<svg version="1.1" viewBox="0.0 0.0 600.0 371.0" fill="none" stroke="none" stroke-linecap="square" stroke-miterlimit="10" width="600" height="371" xmlns:xlink="http://www.w3.org/1999/xlink" xmlns="http://www.w3.org/2000/svg"><path fill="#ffffff" d="M0 0L600.0 0L600.0 371.0L0 371.0L0 0Z" fill-rule="nonzero"/><path stroke="#333333" stroke-width="1.0" stroke-linecap="butt" d="M84.5 332.5L581.5 332.5" fill-rule="nonzero"/><path stroke="#cccccc" stroke-width="1.0" stroke-linecap="butt" d="M84.5 271.5L581.5 271.5" fill-rule="nonzero"/><path stroke="#cccccc" stroke-width="1.0" stroke-linecap="butt" d="M84.5 210.5L581.5 210.5" fill-rule="nonzero"/><path stroke="#cccccc" stroke-width="1.0" stroke-linecap="butt" d="M84.5 149.5L581.5 149.5" fill-rule="nonzero"/><path stroke="#cccccc" stroke-width="1.0" stroke-linecap="butt" d="M84.5 88.5L581.5 88.5" fill-rule="nonzero"/><clipPath id="id_0"><path d="M84.55 88.28333L581.45 88.28333L581.45 332.45L84.55 332.45L84.55 88.28333Z" clip-rule="nonzero"/></clipPath><path stroke="#000000" stroke-width="2.0" stroke-linecap="butt" stroke-opacity="0.0" clip-path="url(#id_0)" d="M332.0 332.0L214.0 332.0L214.0 146.0C214.0 144.89543 214.89543 144.0 216.0 144.0L330.0 144.0C331.10458 144.0 332.0 144.89543 332.0 146.0Z" fill-rule="nonzero"/><path fill="#4285f4" clip-path="url(#id_0)" d="M332.0 332.0L214.0 332.0L214.0 146.0C214.0 144.89543 214.89543 144.0 216.0 144.0L330.0 144.0C331.10458 144.0 332.0 144.89543 332.0 146.0Z" fill-rule="nonzero"/><path stroke="#000000" stroke-width="2.0" stroke-linecap="butt" stroke-opacity="0.0" clip-path="url(#id_0)" d="M452.0 332.0L334.0 332.0L334.0 216.0C334.0 214.89543 334.89542 214.0 336.0 214.0L450.0 214.0C451.10458 214.0 452.0 214.89543 452.0 216.0Z" fill-rule="nonzero"/><path fill="#ea4335" clip-path="url(#id_0)" d="M452.0 332.0L334.0 332.0L334.0 216.0C334.0 214.89543 334.89542 214.0 336.0 214.0L450.0 214.0C451.10458 214.0 452.0 214.89543 452.0 216.0Z" fill-rule="nonzero"/><path stroke="#4285f4" stroke-width="3.0" stroke-linejoin="round" stroke-linecap="round" d="M255.46875 152.5627L255.46875 153.46895L255.26562 153.46895Q254.0 153.5002 253.25 154.23457Q252.5 154.95332 252.375 156.26582Q253.0625 155.5002 254.21875 155.5002Q255.32812 155.5002 256.0 156.28145Q256.67188 157.0627 256.67188 158.3127Q256.67188 159.6252 255.95312 160.42207Q255.23438 161.21895 254.01562 161.21895Q252.79688 161.21895 252.03125 160.28145Q251.28125 159.32832 251.28125 157.84395L251.28125 157.4377Q251.28125 155.07832 252.28125 153.82832Q253.28125 152.57832 255.26562 152.5627L255.46875 152.5627ZM254.04688 156.40645Q253.48438 156.40645 253.01562 156.73457Q252.54688 157.0627 252.35938 157.57832L252.35938 157.96895Q252.35938 159.03145 252.82812 159.67207Q253.3125 160.3127 254.01562 160.3127Q254.75 160.3127 255.17188 159.78145Q255.59375 159.23457 255.59375 158.35957Q255.59375 157.48457 255.17188 156.95332Q254.75 156.40645 254.04688 156.40645ZM261.76562 161.09395L260.6875 161.09395L260.6875 153.8752L258.5 154.67207L258.5 153.6877L261.60938 152.51582L261.76562 152.51582L261.76562 161.09395ZM269.46875 152.5627L269.46875 153.46895L269.26562 153.46895Q268.0 153.5002 267.25 154.23457Q266.5 154.95332 266.375 156.26582Q267.0625 155.5002 268.21875 155.5002Q269.32812 155.5002 270.0 156.28145Q270.67188 157.0627 270.67188 158.3127Q270.67188 159.6252 269.95312 160.42207Q269.23438 161.21895 268.01562 161.21895Q266.79688 161.21895 266.03125 160.28145Q265.28125 159.32832 265.28125 157.84395L265.28125 157.4377Q265.28125 155.07832 266.28125 153.82832Q267.28125 152.57832 269.26562 152.5627L269.46875 152.5627ZM268.04688 156.40645Q267.48438 156.40645 267.01562 156.73457Q266.54688 157.0627 266.35938 157.57832L266.35938 157.96895Q266.35938 159.03145 266.82812 159.67207Q267.3125 160.3127 268.01562 160.3127Q268.75 160.3127 269.17188 159.78145Q269.59375 159.23457 269.59375 158.35957Q269.59375 157.48457 269.17188 156.95332Q268.75 156.40645 268.04688 156.40645ZM276.78125 158.23457L277.96875 158.23457L277.96875 159.10957L276.78125 159.10957L276.78125 161.09395L275.70312 161.09395L275.70312 159.10957L271.8125 159.10957L271.8125 158.46895L275.625 152.5627L276.78125 152.5627L276.78125 158.23457ZM273.04688 158.23457L275.70312 158.23457L275.70312 154.04707L275.5625 154.28145L273.04688 158.23457ZM279.34375 160.53145Q279.34375 160.2502 279.5 160.0627Q279.67188 159.8752 280.0 159.8752Q280.34375 159.8752 280.51562 160.0627Q280.6875 160.2502 280.6875 160.53145Q280.6875 160.79707 280.51562 160.98457Q280.34375 161.15645 280.0 161.15645Q279.67188 161.15645 279.5 160.98457Q279.34375 160.79707 279.34375 160.53145ZM287.39062 154.78145Q287.39062 155.42207 287.04688 155.92207Q286.70312 156.42207 286.14062 156.70332Q286.79688 156.98457 287.1875 157.54707Q287.57812 158.09395 287.57812 158.79707Q287.57812 159.89082 286.82812 160.5627Q286.09375 161.21895 284.875 161.21895Q283.64062 161.21895 282.89062 160.5627Q282.15625 159.89082 282.15625 158.79707Q282.15625 158.09395 282.53125 157.54707Q282.90625 156.98457 283.57812 156.70332Q283.01562 156.42207 282.6875 155.92207Q282.35938 155.42207 282.35938 154.78145Q282.35938 153.70332 283.04688 153.07832Q283.73438 152.4377 284.875 152.4377Q286.0 152.4377 286.6875 153.07832Q287.39062 153.70332 287.39062 154.78145ZM286.5 158.76582Q286.5 158.04707 286.04688 157.60957Q285.59375 157.15645 284.85938 157.15645Q284.125 157.15645 283.67188 157.60957Q283.23438 158.04707 283.23438 158.78145Q283.23438 159.5002 283.67188 159.92207Q284.10938 160.32832 284.875 160.32832Q285.625 160.32832 286.0625 159.90645Q286.5 159.48457 286.5 158.76582ZM284.875 153.32832Q284.23438 153.32832 283.82812 153.73457Q283.4375 154.1252 283.4375 154.8127Q283.4375 155.45332 283.82812 155.85957Q284.21875 156.26582 284.85938 156.26582Q285.51562 156.26582 285.90625 155.85957Q286.29688 155.45332 286.29688 154.8127Q286.29688 154.15645 285.89062 153.7502Q285.48438 153.32832 284.875 153.32832ZM293.78125 158.23457L294.96875 158.23457L294.96875 159.10957L293.78125 159.10957L293.78125 161.09395L292.70312 161.09395L292.70312 159.10957L288.8125 159.10957L288.8125 158.46895L292.625 152.5627L293.78125 152.5627L293.78125 158.23457ZM290.04688 158.23457L292.70312 158.23457L292.70312 154.04707L292.5625 154.28145L290.04688 158.23457Z" fill-rule="nonzero"/><path fill="#ffffff" d="M255.46875 152.5627L255.46875 153.46895L255.26562 153.46895Q254.0 153.5002 253.25 154.23457Q252.5 154.95332 252.375 156.26582Q253.0625 155.5002 254.21875 155.5002Q255.32812 155.5002 256.0 156.28145Q256.67188 157.0627 256.67188 158.3127Q256.67188 159.6252 255.95312 160.42207Q255.23438 161.21895 254.01562 161.21895Q252.79688 161.21895 252.03125 160.28145Q251.28125 159.32832 251.28125 157.84395L251.28125 157.4377Q251.28125 155.07832 252.28125 153.82832Q253.28125 152.57832 255.26562 152.5627L255.46875 152.5627ZM254.04688 156.40645Q253.48438 156.40645 253.01562 156.73457Q252.54688 157.0627 252.35938 157.57832L252.35938 157.96895Q252.35938 159.03145 252.82812 159.67207Q253.3125 160.3127 254.01562 160.3127Q254.75 160.3127 255.17188 159.78145Q255.59375 159.23457 255.59375 158.35957Q255.59375 157.48457 255.17188 156.95332Q254.75 156.40645 254.04688 156.40645ZM261.76562 161.09395L260.6875 161.09395L260.6875 153.8752L258.5 154.67207L258.5 153.6877L261.60938 152.51582L261.76562 152.51582L261.76562 161.09395ZM269.46875 152.5627L269.46875 153.46895L269.26562 153.46895Q268.0 153.5002 267.25 154.23457Q266.5 154.95332 266.375 156.26582Q267.0625 155.5002 268.21875 155.5002Q269.32812 155.5002 270.0 156.28145Q270.67188 157.0627 270.67188 158.3127Q270.67188 159.6252 269.95312 160.42207Q269.23438 161.21895 268.01562 161.21895Q266.79688 161.21895 266.03125 160.28145Q265.28125 159.32832 265.28125 157.84395L265.28125 157.4377Q265.28125 155.07832 266.28125 153.82832Q267.28125 152.57832 269.26562 152.5627L269.46875 152.5627ZM268.04688 156.40645Q267.48438 156.40645 267.01562 156.73457Q266.54688 157.0627 266.35938 157.57832L266.35938 157.96895Q266.35938 159.03145 266.82812 159.67207Q267.3125 160.3127 268.01562 160.3127Q268.75 160.3127 269.17188 159.78145Q269.59375 159.23457 269.59375 158.35957Q269.59375 157.48457 269.17188 156.95332Q268.75 156.40645 268.04688 156.40645ZM276.78125 158.23457L277.96875 158.23457L277.96875 159.10957L276.78125 159.10957L276.78125 161.09395L275.70312 161.09395L275.70312 159.10957L271.8125 159.10957L271.8125 158.46895L275.625 152.5627L276.78125 152.5627L276.78125 158.23457ZM273.04688 158.23457L275.70312 158.23457L275.70312 154.04707L275.5625 154.28145L273.04688 158.23457ZM279.34375 160.53145Q279.34375 160.2502 279.5 160.0627Q279.67188 159.8752 280.0 159.8752Q280.34375 159.8752 280.51562 160.0627Q280.6875 160.2502 280.6875 160.53145Q280.6875 160.79707 280.51562 160.98457Q280.34375 161.15645 280.0 161.15645Q279.67188 161.15645 279.5 160.98457Q279.34375 160.79707 279.34375 160.53145ZM287.39062 154.78145Q287.39062 155.42207 287.04688 155.92207Q286.70312 156.42207 286.14062 156.70332Q286.79688 156.98457 287.1875 157.54707Q287.57812 158.09395 287.57812 158.79707Q287.57812 159.89082 286.82812 160.5627Q286.09375 161.21895 284.875 161.21895Q283.64062 161.21895 282.89062 160.5627Q282.15625 159.89082 282.15625 158.79707Q282.15625 158.09395 282.53125 157.54707Q282.90625 156.98457 283.57812 156.70332Q283.01562 156.42207 282.6875 155.92207Q282.35938 155.42207 282.35938 154.78145Q282.35938 153.70332 283.04688 153.07832Q283.73438 152.4377 284.875 152.4377Q286.0 152.4377 286.6875 153.07832Q287.39062 153.70332 287.39062 154.78145ZM286.5 158.76582Q286.5 158.04707 286.04688 157.60957Q285.59375 157.15645 284.85938 157.15645Q284.125 157.15645 283.67188 157.60957Q283.23438 158.04707 283.23438 158.78145Q283.23438 159.5002 283.67188 159.92207Q284.10938 160.32832 284.875 160.32832Q285.625 160.32832 286.0625 159.90645Q286.5 159.48457 286.5 158.76582ZM284.875 153.32832Q284.23438 153.32832 283.82812 153.73457Q283.4375 154.1252 283.4375 154.8127Q283.4375 155.45332 283.82812 155.85957Q284.21875 156.26582 284.85938 156.26582Q285.51562 156.26582 285.90625 155.85957Q286.29688 155.45332 286.29688 154.8127Q286.29688 154.15645 285.89062 153.7502Q285.48438 153.32832 284.875 153.32832ZM293.78125 158.23457L294.96875 158.23457L294.96875 159.10957L293.78125 159.10957L293.78125 161.09395L292.70312 161.09395L292.70312 159.10957L288.8125 159.10957L288.8125 158.46895L292.625 152.5627L293.78125 152.5627L293.78125 158.23457ZM290.04688 158.23457L292.70312 158.23457L292.70312 154.04707L292.5625 154.28145L290.04688 158.23457Z" fill-rule="nonzero"/><path stroke="#ea4335" stroke-width="3.0" stroke-linejoin="round" stroke-linecap="round" d="M372.78125 225.50642L373.59375 225.50642Q374.375 225.4908 374.8125 225.10017Q375.25 224.70955 375.25 224.03767Q375.25 222.53767 373.75 222.53767Q373.04688 222.53767 372.625 222.94392Q372.21875 223.35017 372.21875 224.00642L371.125 224.00642Q371.125 222.9908 371.85938 222.31892Q372.60938 221.64705 373.75 221.64705Q374.95312 221.64705 375.64062 222.28767Q376.32812 222.9283 376.32812 224.06892Q376.32812 224.63142 375.96875 225.14705Q375.60938 225.66267 374.98438 225.9283Q375.6875 226.14705 376.0625 226.66267Q376.45312 227.1783 376.45312 227.9283Q376.45312 229.06892 375.70312 229.75642Q374.95312 230.4283 373.75 230.4283Q372.5625 230.4283 371.79688 229.77205Q371.04688 229.1158 371.04688 228.0533L372.14062 228.0533Q372.14062 228.72517 372.57812 229.13142Q373.01562 229.53767 373.76562 229.53767Q374.54688 229.53767 374.95312 229.13142Q375.375 228.70955 375.375 227.94392Q375.375 227.20955 374.92188 226.81892Q374.46875 226.41267 373.59375 226.39705L372.78125 226.39705L372.78125 225.50642ZM383.39062 223.9908Q383.39062 224.63142 383.04688 225.13142Q382.70312 225.63142 382.14062 225.91267Q382.79688 226.19392 383.1875 226.75642Q383.57812 227.3033 383.57812 228.00642Q383.57812 229.10017 382.82812 229.77205Q382.09375 230.4283 380.875 230.4283Q379.64062 230.4283 378.89062 229.77205Q378.15625 229.10017 378.15625 228.00642Q378.15625 227.3033 378.53125 226.75642Q378.90625 226.19392 379.57812 225.91267Q379.01562 225.63142 378.6875 225.13142Q378.35938 224.63142 378.35938 223.9908Q378.35938 222.91267 379.04688 222.28767Q379.73438 221.64705 380.875 221.64705Q382.0 221.64705 382.6875 222.28767Q383.39062 222.91267 383.39062 223.9908ZM382.5 227.97517Q382.5 227.25642 382.04688 226.81892Q381.59375 226.3658 380.85938 226.3658Q380.125 226.3658 379.67188 226.81892Q379.23438 227.25642 379.23438 227.9908Q379.23438 228.70955 379.67188 229.13142Q380.10938 229.53767 380.875 229.53767Q381.625 229.53767 382.0625 229.1158Q382.5 228.69392 382.5 227.97517ZM380.875 222.53767Q380.23438 222.53767 379.82812 222.94392Q379.4375 223.33455 379.4375 224.02205Q379.4375 224.66267 379.82812 225.06892Q380.21875 225.47517 380.85938 225.47517Q381.51562 225.47517 381.90625 225.06892Q382.29688 224.66267 382.29688 224.02205Q382.29688 223.3658 381.89062 222.95955Q381.48438 222.53767 380.875 222.53767ZM389.35938 226.5533Q389.03125 226.95955 388.54688 227.20955Q388.07812 227.44392 387.51562 227.44392Q386.78125 227.44392 386.23438 227.08455Q385.6875 226.72517 385.39062 226.06892Q385.09375 225.39705 385.09375 224.60017Q385.09375 223.75642 385.40625 223.06892Q385.73438 222.38142 386.32812 222.02205Q386.9375 221.64705 387.73438 221.64705Q389.0 221.64705 389.71875 222.60017Q390.45312 223.5533 390.45312 225.1783L390.45312 225.4908Q390.45312 227.9908 389.46875 229.13142Q388.48438 230.27205 386.5 230.3033L386.28125 230.3033L386.28125 229.39705L386.51562 229.39705Q387.85938 229.3658 388.57812 228.69392Q389.29688 228.02205 389.35938 226.5533ZM387.6875 226.5533Q388.23438 226.5533 388.6875 226.22517Q389.15625 225.88142 389.375 225.39705L389.375 224.95955Q389.375 223.89705 388.90625 223.22517Q388.4375 222.5533 387.73438 222.5533Q387.01562 222.5533 386.57812 223.10017Q386.15625 223.64705 386.15625 224.5533Q386.15625 225.4283 386.5625 225.9908Q386.98438 226.5533 387.6875 226.5533ZM397.71875 222.38142L394.1875 230.3033L393.04688 230.3033L396.5625 222.66267L391.95312 222.66267L391.95312 221.77205L397.71875 221.77205L397.71875 222.38142ZM399.34375 229.7408Q399.34375 229.45955 399.5 229.27205Q399.67188 229.08455 400.0 229.08455Q400.34375 229.08455 400.51562 229.27205Q400.6875 229.45955 400.6875 229.7408Q400.6875 230.00642 400.51562 230.19392Q400.34375 230.3658 400.0 230.3658Q399.67188 230.3658 399.5 230.19392Q399.34375 230.00642 399.34375 229.7408ZM407.79688 230.3033L402.20312 230.3033L402.20312 229.52205L405.15625 226.2408Q405.8125 225.4908 406.0625 225.03767Q406.3125 224.56892 406.3125 224.06892Q406.3125 223.39705 405.90625 222.97517Q405.51562 222.53767 404.82812 222.53767Q404.03125 222.53767 403.57812 223.00642Q403.125 223.45955 403.125 224.28767L402.04688 224.28767Q402.04688 223.10017 402.79688 222.38142Q403.5625 221.64705 404.82812 221.64705Q406.03125 221.64705 406.71875 222.27205Q407.40625 222.89705 407.40625 223.94392Q407.40625 225.19392 405.79688 226.94392L403.51562 229.41267L407.79688 229.41267L407.79688 230.3033ZM410.78125 225.50642L411.59375 225.50642Q412.375 225.4908 412.8125 225.10017Q413.25 224.70955 413.25 224.03767Q413.25 222.53767 411.75 222.53767Q411.04688 222.53767 410.625 222.94392Q410.21875 223.35017 410.21875 224.00642L409.125 224.00642Q409.125 222.9908 409.85938 222.31892Q410.60938 221.64705 411.75 221.64705Q412.95312 221.64705 413.64062 222.28767Q414.32812 222.9283 414.32812 224.06892Q414.32812 224.63142 413.96875 225.14705Q413.60938 225.66267 412.98438 225.9283Q413.6875 226.14705 414.0625 226.66267Q414.45312 227.1783 414.45312 227.9283Q414.45312 229.06892 413.70312 229.75642Q412.95312 230.4283 411.75 230.4283Q410.5625 230.4283 409.79688 229.77205Q409.04688 229.1158 409.04688 228.0533L410.14062 228.0533Q410.14062 228.72517 410.57812 229.13142Q411.01562 229.53767 411.76562 229.53767Q412.54688 229.53767 412.95312 229.13142Q413.375 228.70955 413.375 227.94392Q413.375 227.20955 412.92188 226.81892Q412.46875 226.41267 411.59375 226.39705L410.78125 226.39705L410.78125 225.50642Z" fill-rule="nonzero"/><path fill="#ffffff" d="M372.78125 225.50642L373.59375 225.50642Q374.375 225.4908 374.8125 225.10017Q375.25 224.70955 375.25 224.03767Q375.25 222.53767 373.75 222.53767Q373.04688 222.53767 372.625 222.94392Q372.21875 223.35017 372.21875 224.00642L371.125 224.00642Q371.125 222.9908 371.85938 222.31892Q372.60938 221.64705 373.75 221.64705Q374.95312 221.64705 375.64062 222.28767Q376.32812 222.9283 376.32812 224.06892Q376.32812 224.63142 375.96875 225.14705Q375.60938 225.66267 374.98438 225.9283Q375.6875 226.14705 376.0625 226.66267Q376.45312 227.1783 376.45312 227.9283Q376.45312 229.06892 375.70312 229.75642Q374.95312 230.4283 373.75 230.4283Q372.5625 230.4283 371.79688 229.77205Q371.04688 229.1158 371.04688 228.0533L372.14062 228.0533Q372.14062 228.72517 372.57812 229.13142Q373.01562 229.53767 373.76562 229.53767Q374.54688 229.53767 374.95312 229.13142Q375.375 228.70955 375.375 227.94392Q375.375 227.20955 374.92188 226.81892Q374.46875 226.41267 373.59375 226.39705L372.78125 226.39705L372.78125 225.50642ZM383.39062 223.9908Q383.39062 224.63142 383.04688 225.13142Q382.70312 225.63142 382.14062 225.91267Q382.79688 226.19392 383.1875 226.75642Q383.57812 227.3033 383.57812 228.00642Q383.57812 229.10017 382.82812 229.77205Q382.09375 230.4283 380.875 230.4283Q379.64062 230.4283 378.89062 229.77205Q378.15625 229.10017 378.15625 228.00642Q378.15625 227.3033 378.53125 226.75642Q378.90625 226.19392 379.57812 225.91267Q379.01562 225.63142 378.6875 225.13142Q378.35938 224.63142 378.35938 223.9908Q378.35938 222.91267 379.04688 222.28767Q379.73438 221.64705 380.875 221.64705Q382.0 221.64705 382.6875 222.28767Q383.39062 222.91267 383.39062 223.9908ZM382.5 227.97517Q382.5 227.25642 382.04688 226.81892Q381.59375 226.3658 380.85938 226.3658Q380.125 226.3658 379.67188 226.81892Q379.23438 227.25642 379.23438 227.9908Q379.23438 228.70955 379.67188 229.13142Q380.10938 229.53767 380.875 229.53767Q381.625 229.53767 382.0625 229.1158Q382.5 228.69392 382.5 227.97517ZM380.875 222.53767Q380.23438 222.53767 379.82812 222.94392Q379.4375 223.33455 379.4375 224.02205Q379.4375 224.66267 379.82812 225.06892Q380.21875 225.47517 380.85938 225.47517Q381.51562 225.47517 381.90625 225.06892Q382.29688 224.66267 382.29688 224.02205Q382.29688 223.3658 381.89062 222.95955Q381.48438 222.53767 380.875 222.53767ZM389.35938 226.5533Q389.03125 226.95955 388.54688 227.20955Q388.07812 227.44392 387.51562 227.44392Q386.78125 227.44392 386.23438 227.08455Q385.6875 226.72517 385.39062 226.06892Q385.09375 225.39705 385.09375 224.60017Q385.09375 223.75642 385.40625 223.06892Q385.73438 222.38142 386.32812 222.02205Q386.9375 221.64705 387.73438 221.64705Q389.0 221.64705 389.71875 222.60017Q390.45312 223.5533 390.45312 225.1783L390.45312 225.4908Q390.45312 227.9908 389.46875 229.13142Q388.48438 230.27205 386.5 230.3033L386.28125 230.3033L386.28125 229.39705L386.51562 229.39705Q387.85938 229.3658 388.57812 228.69392Q389.29688 228.02205 389.35938 226.5533ZM387.6875 226.5533Q388.23438 226.5533 388.6875 226.22517Q389.15625 225.88142 389.375 225.39705L389.375 224.95955Q389.375 223.89705 388.90625 223.22517Q388.4375 222.5533 387.73438 222.5533Q387.01562 222.5533 386.57812 223.10017Q386.15625 223.64705 386.15625 224.5533Q386.15625 225.4283 386.5625 225.9908Q386.98438 226.5533 387.6875 226.5533ZM397.71875 222.38142L394.1875 230.3033L393.04688 230.3033L396.5625 222.66267L391.95312 222.66267L391.95312 221.77205L397.71875 221.77205L397.71875 222.38142ZM399.34375 229.7408Q399.34375 229.45955 399.5 229.27205Q399.67188 229.08455 400.0 229.08455Q400.34375 229.08455 400.51562 229.27205Q400.6875 229.45955 400.6875 229.7408Q400.6875 230.00642 400.51562 230.19392Q400.34375 230.3658 400.0 230.3658Q399.67188 230.3658 399.5 230.19392Q399.34375 230.00642 399.34375 229.7408ZM407.79688 230.3033L402.20312 230.3033L402.20312 229.52205L405.15625 226.2408Q405.8125 225.4908 406.0625 225.03767Q406.3125 224.56892 406.3125 224.06892Q406.3125 223.39705 405.90625 222.97517Q405.51562 222.53767 404.82812 222.53767Q404.03125 222.53767 403.57812 223.00642Q403.125 223.45955 403.125 224.28767L402.04688 224.28767Q402.04688 223.10017 402.79688 222.38142Q403.5625 221.64705 404.82812 221.64705Q406.03125 221.64705 406.71875 222.27205Q407.40625 222.89705 407.40625 223.94392Q407.40625 225.19392 405.79688 226.94392L403.51562 229.41267L407.79688 229.41267L407.79688 230.3033ZM410.78125 225.50642L411.59375 225.50642Q412.375 225.4908 412.8125 225.10017Q413.25 224.70955 413.25 224.03767Q413.25 222.53767 411.75 222.53767Q411.04688 222.53767 410.625 222.94392Q410.21875 223.35017 410.21875 224.00642L409.125 224.00642Q409.125 222.9908 409.85938 222.31892Q410.60938 221.64705 411.75 221.64705Q412.95312 221.64705 413.64062 222.28767Q414.32812 222.9283 414.32812 224.06892Q414.32812 224.63142 413.96875 225.14705Q413.60938 225.66267 412.98438 225.9283Q413.6875 226.14705 414.0625 226.66267Q414.45312 227.1783 414.45312 227.9283Q414.45312 229.06892 413.70312 229.75642Q412.95312 230.4283 411.75 230.4283Q410.5625 230.4283 409.79688 229.77205Q409.04688 229.1158 409.04688 228.0533L410.14062 228.0533Q410.14062 228.72517 410.57812 229.13142Q411.01562 229.53767 411.76562 229.53767Q412.54688 229.53767 412.95312 229.13142Q413.375 228.70955 413.375 227.94392Q413.375 227.20955 412.92188 226.81892Q412.46875 226.41267 411.59375 226.39705L410.78125 226.39705L410.78125 225.50642Z" fill-rule="nonzero"/><path fill="#000000" d="M28.628138 221.92917Q29.175013 221.1323 29.425013 220.47604L30.221888 220.80417Q29.878138 221.72604 29.159388 222.64792Q29.690638 223.60104 29.690638 224.7573Q29.690638 225.92917 29.128138 226.8823Q28.565638 227.8198 27.550013 228.33542Q26.534388 228.85104 25.253138 228.85104Q23.987513 228.85104 22.940638 228.33542Q21.893763 227.8198 21.346888 226.86667Q20.800013 225.91354 20.800013 224.74167Q20.800013 223.55417 21.378138 222.60104Q21.940638 221.6323 22.956263 221.1323Q23.971888 220.6323 25.253138 220.6323Q26.315638 220.6323 27.159388 220.96042Q28.003138 221.27292 28.628138 221.92917ZM27.175013 224.42917Q27.456263 223.4448 28.003138 222.80417Q27.081263 221.80417 25.253138 221.80417Q24.206263 221.80417 23.425013 222.16354Q22.643763 222.52292 22.221888 223.21042Q21.784388 223.8823 21.784388 224.72604Q21.784388 226.0073 22.659388 226.85104Q23.518763 227.67917 25.253138 227.67917Q26.925013 227.67917 27.831263 226.85104Q28.721888 226.02292 28.721888 224.72604Q28.721888 224.11667 28.487513 223.58542Q28.143763 224.11667 28.003138 224.71042L27.175013 224.42917ZM29.550013 219.4448L20.956263 219.4448L20.956263 216.1948Q20.956263 215.35104 21.034388 214.89792Q21.143763 214.2573 21.440638 213.83542Q21.737513 213.39792 22.268763 213.14792Q22.800013 212.8823 23.440638 212.8823Q24.534388 212.8823 25.300013 213.58542Q26.050013 214.27292 26.050013 216.10104L26.050013 218.30417L29.550013 218.30417L29.550013 219.4448ZM25.050013 218.30417L25.050013 216.08542Q25.050013 214.97604 24.643763 214.52292Q24.221888 214.05417 23.471888 214.05417Q22.940638 214.05417 22.565638 214.33542Q22.175013 214.60104 22.050013 215.03854Q21.971888 215.33542 21.971888 216.10104L21.971888 218.30417L25.050013 218.30417ZM26.784388 211.8198L26.690638 210.7573Q27.346888 210.67917 27.753138 210.39792Q28.159388 210.11667 28.425013 209.53854Q28.675013 208.9448 28.675013 208.21042Q28.675013 207.5698 28.487513 207.0698Q28.284388 206.5698 27.956263 206.33542Q27.612513 206.08542 27.221888 206.08542Q26.815638 206.08542 26.518763 206.3198Q26.206263 206.55417 26.003138 207.08542Q25.862513 207.4448 25.581263 208.6323Q25.300013 209.80417 25.050013 210.27292Q24.721888 210.89792 24.253138 211.1948Q23.768763 211.49167 23.175013 211.49167Q22.534388 211.49167 21.971888 211.1323Q21.393763 210.7573 21.112513 210.05417Q20.815638 209.33542 20.815638 208.47604Q20.815638 207.52292 21.128138 206.78854Q21.425013 206.05417 22.034388 205.66354Q22.628138 205.27292 23.378138 205.24167L23.456263 206.33542Q22.643763 206.42917 22.237513 206.9448Q21.815638 207.4448 21.815638 208.42917Q21.815638 209.46042 22.190638 209.92917Q22.565638 210.39792 23.096888 210.39792Q23.565638 210.39792 23.862513 210.0698Q24.159388 209.74167 24.471888 208.36667Q24.784388 206.97604 25.018763 206.46042Q25.378138 205.71042 25.909388 205.35104Q26.425013 204.99167 27.128138 204.99167Q27.815638 204.99167 28.425013 205.3823Q29.018763 205.77292 29.362513 206.5073Q29.690638 207.24167 29.690638 208.16354Q29.690638 209.33542 29.362513 210.1323Q29.018763 210.91354 28.331263 211.36667Q27.643763 211.80417 26.784388 211.8198Z" fill-rule="nonzero"/><path fill="#000000" d="M72.05 332.21564Q72.05 330.6844 72.3625 329.7625Q72.675 328.825 73.28438 328.325Q73.90938 327.825 74.84688 327.825Q75.53438 327.825 76.05 328.10626Q76.58125 328.3875 76.925 328.91876Q77.26875 329.4344 77.45625 330.1844Q77.64375 330.9344 77.64375 332.21564Q77.64375 333.73126 77.33125 334.65314Q77.03438 335.575 76.40938 336.09064Q75.8 336.59064 74.84688 336.59064Q73.6125 336.59064 72.89375 335.7Q72.05 334.6375 72.05 332.21564ZM73.12813 332.21564Q73.12813 334.325 73.62813 335.02814Q74.12813 335.73126 74.84688 335.73126Q75.58125 335.73126 76.06563 335.02814Q76.56563 334.325 76.56563 332.21564Q76.56563 330.09064 76.06563 329.40314Q75.58125 328.7 74.83125 328.7Q74.1125 328.7 73.675 329.3094Q73.12813 330.09064 73.12813 332.21564Z" fill-rule="nonzero"/><path fill="#000000" d="M56.596874 274.3927L56.596874 275.40833L50.909374 275.40833Q50.909374 275.03333 51.034374 274.67395Q51.253124 274.09583 51.721874 273.53333Q52.20625 272.97083 53.1125 272.23645Q54.51875 271.0802 55.003124 270.40833Q55.503124 269.73645 55.503124 269.1427Q55.503124 268.5177 55.05 268.09583Q54.596874 267.65833 53.878124 267.65833Q53.1125 267.65833 52.659374 268.11145Q52.20625 268.56458 52.190624 269.37708L51.1125 269.2677Q51.221874 268.04895 51.940624 267.42395Q52.675 266.78333 53.909374 266.78333Q55.14375 266.78333 55.8625 267.47083Q56.58125 268.15833 56.58125 269.17395Q56.58125 269.68958 56.3625 270.18958Q56.159374 270.67395 55.659374 271.23645Q55.175 271.78333 54.05 272.73645Q53.096874 273.53333 52.815624 273.8302Q52.55 274.11145 52.378124 274.3927L56.596874 274.3927ZM58.05 271.17395Q58.05 269.6427 58.3625 268.72083Q58.675 267.78333 59.284374 267.28333Q59.909374 266.78333 60.846874 266.78333Q61.534374 266.78333 62.05 267.06458Q62.58125 267.34583 62.925 267.87708Q63.26875 268.3927 63.45625 269.1427Q63.64375 269.8927 63.64375 271.17395Q63.64375 272.68958 63.33125 273.61145Q63.034374 274.53333 62.409374 275.04895Q61.8 275.54895 60.846874 275.54895Q59.6125 275.54895 58.89375 274.65833Q58.05 273.59583 58.05 271.17395ZM59.128124 271.17395Q59.128124 273.28333 59.628124 273.98645Q60.128124 274.68958 60.846874 274.68958Q61.58125 274.68958 62.065624 273.98645Q62.565624 273.28333 62.565624 271.17395Q62.565624 269.04895 62.065624 268.36145Q61.58125 267.65833 60.83125 267.65833Q60.1125 267.65833 59.675 268.2677Q59.128124 269.04895 59.128124 271.17395ZM65.05 271.17395Q65.05 269.6427 65.3625 268.72083Q65.675 267.78333 66.28438 267.28333Q66.90938 266.78333 67.84688 266.78333Q68.53438 266.78333 69.05 267.06458Q69.58125 267.34583 69.925 267.87708Q70.26875 268.3927 70.45625 269.1427Q70.64375 269.8927 70.64375 271.17395Q70.64375 272.68958 70.33125 273.61145Q70.03438 274.53333 69.40938 275.04895Q68.8 275.54895 67.84688 275.54895Q66.6125 275.54895 65.89375 274.65833Q65.05 273.59583 65.05 271.17395ZM66.12813 271.17395Q66.12813 273.28333 66.62813 273.98645Q67.12813 274.68958 67.84688 274.68958Q68.58125 274.68958 69.06563 273.98645Q69.56563 273.28333 69.56563 271.17395Q69.56563 269.04895 69.06563 268.36145Q68.58125 267.65833 67.83125 267.65833Q67.1125 267.65833 66.675 268.2677Q66.12813 269.04895 66.12813 271.17395ZM72.05 271.17395Q72.05 269.6427 72.3625 268.72083Q72.675 267.78333 73.28438 267.28333Q73.90938 266.78333 74.84688 266.78333Q75.53438 266.78333 76.05 267.06458Q76.58125 267.34583 76.925 267.87708Q77.26875 268.3927 77.45625 269.1427Q77.64375 269.8927 77.64375 271.17395Q77.64375 272.68958 77.33125 273.61145Q77.03438 274.53333 76.40938 275.04895Q75.8 275.54895 74.84688 275.54895Q73.6125 275.54895 72.89375 274.65833Q72.05 273.59583 72.05 271.17395ZM73.12813 271.17395Q73.12813 273.28333 73.62813 273.98645Q74.12813 274.68958 74.84688 274.68958Q75.58125 274.68958 76.06563 273.98645Q76.56563 273.28333 76.56563 271.17395Q76.56563 269.04895 76.06563 268.36145Q75.58125 267.65833 74.83125 267.65833Q74.1125 267.65833 73.675 268.2677Q73.12813 269.04895 73.12813 271.17395Z" fill-rule="nonzero"/><path fill="#000000" d="M54.425 214.36667L54.425 212.30417L50.70625 212.30417L50.70625 211.33542L54.628124 205.77292L55.4875 205.77292L55.4875 211.33542L56.64375 211.33542L56.64375 212.30417L55.4875 212.30417L55.4875 214.36667L54.425 214.36667ZM54.425 211.33542L54.425 207.47604L51.7375 211.33542L54.425 211.33542ZM58.05 210.1323Q58.05 208.60104 58.3625 207.67917Q58.675 206.74167 59.284374 206.24167Q59.909374 205.74167 60.846874 205.74167Q61.534374 205.74167 62.05 206.02292Q62.58125 206.30417 62.925 206.83542Q63.26875 207.35104 63.45625 208.10104Q63.64375 208.85104 63.64375 210.1323Q63.64375 211.64792 63.33125 212.5698Q63.034374 213.49167 62.409374 214.0073Q61.8 214.5073 60.846874 214.5073Q59.6125 214.5073 58.89375 213.61667Q58.05 212.55417 58.05 210.1323ZM59.128124 210.1323Q59.128124 212.24167 59.628124 212.9448Q60.128124 213.64792 60.846874 213.64792Q61.58125 213.64792 62.065624 212.9448Q62.565624 212.24167 62.565624 210.1323Q62.565624 208.0073 62.065624 207.3198Q61.58125 206.61667 60.83125 206.61667Q60.1125 206.61667 59.675 207.22604Q59.128124 208.0073 59.128124 210.1323ZM65.05 210.1323Q65.05 208.60104 65.3625 207.67917Q65.675 206.74167 66.28438 206.24167Q66.90938 205.74167 67.84688 205.74167Q68.53438 205.74167 69.05 206.02292Q69.58125 206.30417 69.925 206.83542Q70.26875 207.35104 70.45625 208.10104Q70.64375 208.85104 70.64375 210.1323Q70.64375 211.64792 70.33125 212.5698Q70.03438 213.49167 69.40938 214.0073Q68.8 214.5073 67.84688 214.5073Q66.6125 214.5073 65.89375 213.61667Q65.05 212.55417 65.05 210.1323ZM66.12813 210.1323Q66.12813 212.24167 66.62813 212.9448Q67.12813 213.64792 67.84688 213.64792Q68.58125 213.64792 69.06563 212.9448Q69.56563 212.24167 69.56563 210.1323Q69.56563 208.0073 69.06563 207.3198Q68.58125 206.61667 67.83125 206.61667Q67.1125 206.61667 66.675 207.22604Q66.12813 208.0073 66.12813 210.1323ZM72.05 210.1323Q72.05 208.60104 72.3625 207.67917Q72.675 206.74167 73.28438 206.24167Q73.90938 205.74167 74.84688 205.74167Q75.53438 205.74167 76.05 206.02292Q76.58125 206.30417 76.925 206.83542Q77.26875 207.35104 77.45625 208.10104Q77.64375 208.85104 77.64375 210.1323Q77.64375 211.64792 77.33125 212.5698Q77.03438 213.49167 76.40938 214.0073Q75.8 214.5073 74.84688 214.5073Q73.6125 214.5073 72.89375 213.61667Q72.05 212.55417 72.05 210.1323ZM73.12813 210.1323Q73.12813 212.24167 73.62813 212.9448Q74.12813 213.64792 74.84688 213.64792Q75.58125 213.64792 76.06563 212.9448Q76.56563 212.24167 76.56563 210.1323Q76.56563 208.0073 76.06563 207.3198Q75.58125 206.61667 74.83125 206.61667Q74.1125 206.61667 73.675 207.22604Q73.12813 208.0073 73.12813 210.1323Z" fill-rule="nonzero"/><path fill="#000000" d="M56.51875 146.84062L55.471874 146.91875Q55.33125 146.29375 55.08125 146.0125Q54.64375 145.55937 54.01875 145.55937Q53.51875 145.55937 53.128124 145.84062Q52.64375 146.21562 52.346874 146.91875Q52.065624 147.60625 52.05 148.8875Q52.425 148.30937 52.971874 148.02812Q53.534374 147.74687 54.14375 147.74687Q55.190624 147.74687 55.925 148.52812Q56.675 149.30937 56.675 150.52812Q56.675 151.34062 56.315624 152.04375Q55.971874 152.73125 55.3625 153.10625Q54.753124 153.46562 53.9875 153.46562Q52.659374 153.46562 51.83125 152.49687Q51.003124 151.52812 51.003124 149.30937Q51.003124 146.80937 51.925 145.68437Q52.721874 144.7 54.08125 144.7Q55.096874 144.7 55.7375 145.27812Q56.39375 145.84062 56.51875 146.84062ZM52.221874 150.54375Q52.221874 151.09062 52.440624 151.59062Q52.675 152.075 53.08125 152.34062Q53.503124 152.60625 53.971874 152.60625Q54.628124 152.60625 55.1125 152.075Q55.596874 151.52812 55.596874 150.60625Q55.596874 149.71562 55.1125 149.2Q54.64375 148.68437 53.925 148.68437Q53.20625 148.68437 52.70625 149.2Q52.221874 149.71562 52.221874 150.54375ZM58.05 149.09062Q58.05 147.55937 58.3625 146.6375Q58.675 145.7 59.284374 145.2Q59.909374 144.7 60.846874 144.7Q61.534374 144.7 62.05 144.98125Q62.58125 145.2625 62.925 145.79375Q63.26875 146.30937 63.45625 147.05937Q63.64375 147.80937 63.64375 149.09062Q63.64375 150.60625 63.33125 151.52812Q63.034374 152.45 62.409374 152.96562Q61.8 153.46562 60.846874 153.46562Q59.6125 153.46562 58.89375 152.575Q58.05 151.5125 58.05 149.09062ZM59.128124 149.09062Q59.128124 151.2 59.628124 151.90312Q60.128124 152.60625 60.846874 152.60625Q61.58125 152.60625 62.065624 151.90312Q62.565624 151.2 62.565624 149.09062Q62.565624 146.96562 62.065624 146.27812Q61.58125 145.575 60.83125 145.575Q60.1125 145.575 59.675 146.18437Q59.128124 146.96562 59.128124 149.09062ZM65.05 149.09062Q65.05 147.55937 65.3625 146.6375Q65.675 145.7 66.28438 145.2Q66.90938 144.7 67.84688 144.7Q68.53438 144.7 69.05 144.98125Q69.58125 145.2625 69.925 145.79375Q70.26875 146.30937 70.45625 147.05937Q70.64375 147.80937 70.64375 149.09062Q70.64375 150.60625 70.33125 151.52812Q70.03438 152.45 69.40938 152.96562Q68.8 153.46562 67.84688 153.46562Q66.6125 153.46562 65.89375 152.575Q65.05 151.5125 65.05 149.09062ZM66.12813 149.09062Q66.12813 151.2 66.62813 151.90312Q67.12813 152.60625 67.84688 152.60625Q68.58125 152.60625 69.06563 151.90312Q69.56563 151.2 69.56563 149.09062Q69.56563 146.96562 69.06563 146.27812Q68.58125 145.575 67.83125 145.575Q67.1125 145.575 66.675 146.18437Q66.12813 146.96562 66.12813 149.09062ZM72.05 149.09062Q72.05 147.55937 72.3625 146.6375Q72.675 145.7 73.28438 145.2Q73.90938 144.7 74.84688 144.7Q75.53438 144.7 76.05 144.98125Q76.58125 145.2625 76.925 145.79375Q77.26875 146.30937 77.45625 147.05937Q77.64375 147.80937 77.64375 149.09062Q77.64375 150.60625 77.33125 151.52812Q77.03438 152.45 76.40938 152.96562Q75.8 153.46562 74.84688 153.46562Q73.6125 153.46562 72.89375 152.575Q72.05 151.5125 72.05 149.09062ZM73.12813 149.09062Q73.12813 151.2 73.62813 151.90312Q74.12813 152.60625 74.84688 152.60625Q75.58125 152.60625 76.06563 151.90312Q76.56563 151.2 76.56563 149.09062Q76.56563 146.96562 76.06563 146.27812Q75.58125 145.575 74.83125 145.575Q74.1125 145.575 73.675 146.18437Q73.12813 146.96562 73.12813 149.09062Z" fill-rule="nonzero"/><path fill="#000000" d="M52.675 87.62708Q52.01875 87.37708 51.690624 86.93958Q51.378124 86.48646 51.378124 85.87708Q51.378124 84.93958 52.05 84.29896Q52.7375 83.65833 53.846874 83.65833Q54.971874 83.65833 55.659374 84.31458Q56.346874 84.97083 56.346874 85.90833Q56.346874 86.50208 56.034374 86.93958Q55.721874 87.37708 55.08125 87.62708Q55.878124 87.87708 56.284374 88.45521Q56.690624 89.03333 56.690624 89.83021Q56.690624 90.92396 55.909374 91.67396Q55.14375 92.42396 53.8625 92.42396Q52.596874 92.42396 51.815624 91.67396Q51.034374 90.92396 51.034374 89.79896Q51.034374 88.95521 51.45625 88.39271Q51.89375 87.83021 52.675 87.62708ZM52.45625 85.83021Q52.45625 86.43958 52.846874 86.83021Q53.253124 87.22083 53.878124 87.22083Q54.4875 87.22083 54.878124 86.84583Q55.26875 86.45521 55.26875 85.89271Q55.26875 85.31458 54.8625 84.92396Q54.45625 84.51771 53.8625 84.51771Q53.253124 84.51771 52.846874 84.90833Q52.45625 85.29896 52.45625 85.83021ZM52.128124 89.79896Q52.128124 90.25208 52.33125 90.67396Q52.55 91.09583 52.971874 91.33021Q53.39375 91.56458 53.878124 91.56458Q54.628124 91.56458 55.1125 91.08021Q55.6125 90.59583 55.6125 89.84583Q55.6125 89.08021 55.1125 88.58021Q54.6125 88.08021 53.846874 88.08021Q53.096874 88.08021 52.6125 88.58021Q52.128124 89.06458 52.128124 89.79896ZM58.05 88.04896Q58.05 86.51771 58.3625 85.59583Q58.675 84.65833 59.284374 84.15833Q59.909374 83.65833 60.846874 83.65833Q61.534374 83.65833 62.05 83.93958Q62.58125 84.22083 62.925 84.75208Q63.26875 85.26771 63.45625 86.01771Q63.64375 86.76771 63.64375 88.04896Q63.64375 89.56458 63.33125 90.48646Q63.034374 91.40833 62.409374 91.92396Q61.8 92.42396 60.846874 92.42396Q59.6125 92.42396 58.89375 91.53333Q58.05 90.47083 58.05 88.04896ZM59.128124 88.04896Q59.128124 90.15833 59.628124 90.86146Q60.128124 91.56458 60.846874 91.56458Q61.58125 91.56458 62.065624 90.86146Q62.565624 90.15833 62.565624 88.04896Q62.565624 85.92396 62.065624 85.23646Q61.58125 84.53333 60.83125 84.53333Q60.1125 84.53333 59.675 85.14271Q59.128124 85.92396 59.128124 88.04896ZM65.05 88.04896Q65.05 86.51771 65.3625 85.59583Q65.675 84.65833 66.28438 84.15833Q66.90938 83.65833 67.84688 83.65833Q68.53438 83.65833 69.05 83.93958Q69.58125 84.22083 69.925 84.75208Q70.26875 85.26771 70.45625 86.01771Q70.64375 86.76771 70.64375 88.04896Q70.64375 89.56458 70.33125 90.48646Q70.03438 91.40833 69.40938 91.92396Q68.8 92.42396 67.84688 92.42396Q66.6125 92.42396 65.89375 91.53333Q65.05 90.47083 65.05 88.04896ZM66.12813 88.04896Q66.12813 90.15833 66.62813 90.86146Q67.12813 91.56458 67.84688 91.56458Q68.58125 91.56458 69.06563 90.86146Q69.56563 90.15833 69.56563 88.04896Q69.56563 85.92396 69.06563 85.23646Q68.58125 84.53333 67.83125 84.53333Q67.1125 84.53333 66.675 85.14271Q66.12813 85.92396 66.12813 88.04896ZM72.05 88.04896Q72.05 86.51771 72.3625 85.59583Q72.675 84.65833 73.28438 84.15833Q73.90938 83.65833 74.84688 83.65833Q75.53438 83.65833 76.05 83.93958Q76.58125 84.22083 76.925 84.75208Q77.26875 85.26771 77.45625 86.01771Q77.64375 86.76771 77.64375 88.04896Q77.64375 89.56458 77.33125 90.48646Q77.03438 91.40833 76.40938 91.92396Q75.8 92.42396 74.84688 92.42396Q73.6125 92.42396 72.89375 91.53333Q72.05 90.47083 72.05 88.04896ZM73.12813 88.04896Q73.12813 90.15833 73.62813 90.86146Q74.12813 91.56458 74.84688 91.56458Q75.58125 91.56458 76.06563 90.86146Q76.56563 90.15833 76.56563 88.04896Q76.56563 85.92396 76.06563 85.23646Q75.58125 84.53333 74.83125 84.53333Q74.1125 84.53333 73.675 85.14271Q73.12813 85.92396 73.12813 88.04896Z" fill-rule="nonzero"/><path fill="#000000" d="M306.59375 348.5125L306.75 349.4344Q306.29688 349.52814 305.95312 349.52814Q305.375 349.52814 305.0625 349.35626Q304.75 349.16876 304.60938 348.8719Q304.48438 348.575 304.48438 347.6219L304.48438 344.04376L303.71875 344.04376L303.71875 343.23126L304.48438 343.23126L304.48438 341.6844L305.53125 341.0594L305.53125 343.23126L306.59375 343.23126L306.59375 344.04376L305.53125 344.04376L305.53125 347.6844Q305.53125 348.1375 305.57812 348.2625Q305.64062 348.3875 305.76562 348.46564Q305.89062 348.54376 306.125 348.54376Q306.3125 348.54376 306.59375 348.5125ZM307.29688 349.45L307.29688 340.85626L308.34375 340.85626L308.34375 343.9344Q309.07812 343.09064 310.20312 343.09064Q310.90625 343.09064 311.40625 343.3719Q311.92188 343.6375 312.14062 344.1219Q312.35938 344.59064 312.35938 345.5125L312.35938 349.45L311.3125 349.45L311.3125 345.5125Q311.3125 344.71564 310.96875 344.35626Q310.625 343.9969 310.0 343.9969Q309.53125 343.9969 309.10938 344.2469Q308.70312 344.48126 308.51562 344.90314Q308.34375 345.3094 308.34375 346.04376L308.34375 349.45L307.29688 349.45ZM314.28125 349.45L314.28125 343.23126L315.23438 343.23126L315.23438 344.16876Q315.59375 343.5125 315.89062 343.3094Q316.20312 343.09064 316.57812 343.09064Q317.10938 343.09064 317.65625 343.41876L317.29688 344.40314Q316.90625 344.16876 316.53125 344.16876Q316.17188 344.16876 315.89062 344.3875Q315.625 344.59064 315.51562 344.96564Q315.32812 345.52814 315.32812 346.1844L315.32812 349.45L314.28125 349.45ZM317.90625 346.34064Q317.90625 344.60626 318.85938 343.77814Q319.65625 343.09064 320.8125 343.09064Q322.09375 343.09064 322.90625 343.9344Q323.73438 344.7625 323.73438 346.2469Q323.73438 347.45 323.375 348.1375Q323.01562 348.825 322.3125 349.21564Q321.625 349.59064 320.8125 349.59064Q319.51562 349.59064 318.70312 348.7625Q317.90625 347.91876 317.90625 346.34064ZM318.98438 346.34064Q318.98438 347.52814 319.5 348.1219Q320.03125 348.71564 320.8125 348.71564Q321.60938 348.71564 322.125 348.1219Q322.64062 347.52814 322.64062 346.3094Q322.64062 345.15314 322.10938 344.5594Q321.59375 343.96564 320.8125 343.96564Q320.03125 343.96564 319.5 344.5594Q318.98438 345.1375 318.98438 346.34064ZM329.375 349.45L329.375 348.52814Q328.64062 349.59064 327.39062 349.59064Q326.84375 349.59064 326.35938 349.3875Q325.89062 349.16876 325.65625 348.85626Q325.42188 348.52814 325.32812 348.0594Q325.26562 347.7625 325.26562 347.075L325.26562 343.23126L326.32812 343.23126L326.32812 346.6844Q326.32812 347.4969 326.39062 347.79376Q326.48438 348.2 326.79688 348.45Q327.125 348.6844 327.60938 348.6844Q328.07812 348.6844 328.48438 348.45Q328.90625 348.2 329.07812 347.77814Q329.26562 347.35626 329.26562 346.5594L329.26562 343.23126L330.3125 343.23126L330.3125 349.45L329.375 349.45ZM332.09375 349.96564L333.125 350.1219Q333.1875 350.59064 333.48438 350.8094Q333.875 351.10626 334.54688 351.10626Q335.28125 351.10626 335.67188 350.8094Q336.07812 350.5125 336.21875 349.9969Q336.3125 349.66876 336.29688 348.6375Q335.60938 349.45 334.57812 349.45Q333.29688 349.45 332.59375 348.52814Q331.89062 347.59064 331.89062 346.3094Q331.89062 345.41876 332.20312 344.66876Q332.53125 343.90314 333.14062 343.4969Q333.75 343.09064 334.57812 343.09064Q335.6875 343.09064 336.40625 343.98126L336.40625 343.23126L337.375 343.23126L337.375 348.60626Q337.375 350.0594 337.07812 350.66876Q336.78125 351.27814 336.14062 351.6219Q335.5 351.98126 334.5625 351.98126Q333.45312 351.98126 332.76562 351.48126Q332.07812 350.98126 332.09375 349.96564ZM332.96875 346.23126Q332.96875 347.45 333.45312 348.0125Q333.9375 348.575 334.67188 348.575Q335.40625 348.575 335.89062 348.0125Q336.39062 347.45 336.39062 346.2625Q336.39062 345.1219 335.875 344.54376Q335.375 343.96564 334.65625 343.96564Q333.95312 343.96564 333.45312 344.54376Q332.96875 345.10626 332.96875 346.23126ZM339.29688 349.45L339.29688 340.85626L340.34375 340.85626L340.34375 343.9344Q341.07812 343.09064 342.20312 343.09064Q342.90625 343.09064 343.40625 343.3719Q343.92188 343.6375 344.14062 344.1219Q344.35938 344.59064 344.35938 345.5125L344.35938 349.45L343.3125 349.45L343.3125 345.5125Q343.3125 344.71564 342.96875 344.35626Q342.625 343.9969 342.0 343.9969Q341.53125 343.9969 341.10938 344.2469Q340.70312 344.48126 340.51562 344.90314Q340.34375 345.3094 340.34375 346.04376L340.34375 349.45L339.29688 349.45ZM346.29688 351.84064L346.29688 343.23126L347.25 343.23126L347.25 344.02814Q347.59375 343.5594 348.01562 343.325Q348.45312 343.09064 349.0625 343.09064Q349.85938 343.09064 350.46875 343.4969Q351.07812 343.90314 351.375 344.65314Q351.6875 345.40314 351.6875 346.29376Q351.6875 347.2469 351.34375 348.0125Q351.01562 348.77814 350.35938 349.1844Q349.70312 349.59064 348.98438 349.59064Q348.45312 349.59064 348.03125 349.3719Q347.60938 349.1375 347.34375 348.8094L347.34375 351.84064L346.29688 351.84064ZM347.25 346.3719Q347.25 347.575 347.73438 348.15314Q348.21875 348.71564 348.90625 348.71564Q349.60938 348.71564 350.10938 348.1219Q350.60938 347.52814 350.60938 346.27814Q350.60938 345.09064 350.125 344.5125Q349.64062 343.91876 348.95312 343.91876Q348.28125 343.91876 347.76562 344.54376Q347.25 345.16876 347.25 346.3719ZM357.375 349.45L357.375 348.52814Q356.64062 349.59064 355.39062 349.59064Q354.84375 349.59064 354.35938 349.3875Q353.89062 349.16876 353.65625 348.85626Q353.42188 348.52814 353.32812 348.0594Q353.26562 347.7625 353.26562 347.075L353.26562 343.23126L354.32812 343.23126L354.32812 346.6844Q354.32812 347.4969 354.39062 347.79376Q354.48438 348.2 354.79688 348.45Q355.125 348.6844 355.60938 348.6844Q356.07812 348.6844 356.48438 348.45Q356.90625 348.2 357.07812 347.77814Q357.26562 347.35626 357.26562 346.5594L357.26562 343.23126L358.3125 343.23126L358.3125 349.45L357.375 349.45ZM362.59375 348.5125L362.75 349.4344Q362.29688 349.52814 361.95312 349.52814Q361.375 349.52814 361.0625 349.35626Q360.75 349.16876 360.60938 348.8719Q360.48438 348.575 360.48438 347.6219L360.48438 344.04376L359.71875 344.04376L359.71875 343.23126L360.48438 343.23126L360.48438 341.6844L361.53125 341.0594L361.53125 343.23126L362.59375 343.23126L362.59375 344.04376L361.53125 344.04376L361.53125 347.6844Q361.53125 348.1375 361.57812 348.2625Q361.64062 348.3875 361.76562 348.46564Q361.89062 348.54376 362.125 348.54376Q362.3125 348.54376 362.59375 348.5125Z" fill-rule="nonzero"/><path fill="#4285f4" d="M246.0 56.916668C246.0 56.364384 246.44771 55.916668 247.0 55.916668L257.0 55.916668C257.55228 55.916668 258.0 56.364384 258.0 56.916668L258.0 66.916664C258.0 67.46895 257.55228 67.916664 257.0 67.916664L247.0 67.916664C246.44771 67.916664 246.0 67.46895 246.0 66.916664Z" fill-rule="nonzero"/><path fill="#1a1a1a" d="M266.78125 65.916664L266.78125 59.697914L267.73438 59.697914L267.73438 60.635414Q268.09375 59.979164 268.39062 59.77604Q268.70312 59.55729 269.07812 59.55729Q269.60938 59.55729 270.15625 59.885414L269.79688 60.86979Q269.40625 60.635414 269.03125 60.635414Q268.67188 60.635414 268.39062 60.854164Q268.125 61.05729 268.01562 61.43229Q267.82812 61.99479 267.82812 62.65104L267.82812 65.916664L266.78125 65.916664ZM274.85938 65.15104Q274.26562 65.65104 273.71875 65.854164Q273.1875 66.05729 272.5625 66.05729Q271.53125 66.05729 270.98438 65.55729Q270.4375 65.05729 270.4375 64.27604Q270.4375 63.822914 270.64062 63.447914Q270.84375 63.05729 271.1875 62.83854Q271.53125 62.604164 271.95312 62.49479Q272.25 62.40104 272.89062 62.322914Q274.15625 62.18229 274.76562 61.96354Q274.76562 61.74479 274.76562 61.697914Q274.76562 61.041664 274.46875 60.77604Q274.0625 60.43229 273.26562 60.43229Q272.53125 60.43229 272.17188 60.697914Q271.8125 60.947914 271.64062 61.604164L270.60938 61.46354Q270.75 60.80729 271.07812 60.40104Q271.40625 59.99479 272.01562 59.77604Q272.625 59.55729 273.42188 59.55729Q274.21875 59.55729 274.71875 59.74479Q275.21875 59.93229 275.45312 60.21354Q275.6875 60.49479 275.78125 60.93229Q275.82812 61.197914 275.82812 61.90104L275.82812 63.30729Q275.82812 64.77604 275.89062 65.166664Q275.96875 65.55729 276.17188 65.916664L275.0625 65.916664Q274.90625 65.58854 274.85938 65.15104ZM274.76562 62.791664Q274.1875 63.02604 273.04688 63.197914Q272.39062 63.291664 272.125 63.416664Q271.85938 63.52604 271.70312 63.74479Q271.5625 63.96354 271.5625 64.24479Q271.5625 64.666664 271.875 64.947914Q272.20312 65.229164 272.8125 65.229164Q273.42188 65.229164 273.89062 64.96354Q274.375 64.697914 274.59375 64.229164Q274.76562 63.86979 274.76562 63.18229L274.76562 62.791664ZM280.09375 64.979164L280.25 65.90104Q279.79688 65.99479 279.45312 65.99479Q278.875 65.99479 278.5625 65.822914Q278.25 65.635414 278.10938 65.33854Q277.98438 65.041664 277.98438 64.08854L277.98438 60.510414L277.21875 60.510414L277.21875 59.697914L277.98438 59.697914L277.98438 58.15104L279.03125 57.52604L279.03125 59.697914L280.09375 59.697914L280.09375 60.510414L279.03125 60.510414L279.03125 64.15104Q279.03125 64.604164 279.07812 64.729164Q279.14062 64.854164 279.26562 64.93229Q279.39062 65.010414 279.625 65.010414Q279.8125 65.010414 280.09375 64.979164ZM280.79688 65.916664L280.79688 57.322914L281.84375 57.322914L281.84375 60.40104Q282.57812 59.55729 283.70312 59.55729Q284.40625 59.55729 284.90625 59.83854Q285.42188 60.104164 285.64062 60.58854Q285.85938 61.05729 285.85938 61.979164L285.85938 65.916664L284.8125 65.916664L284.8125 61.979164Q284.8125 61.18229 284.46875 60.822914Q284.125 60.46354 283.5 60.46354Q283.03125 60.46354 282.60938 60.71354Q282.20312 60.947914 282.01562 61.36979Q281.84375 61.77604 281.84375 62.510414L281.84375 65.916664L280.79688 65.916664ZM287.40625 62.80729Q287.40625 61.072914 288.35938 60.24479Q289.15625 59.55729 290.3125 59.55729Q291.59375 59.55729 292.40625 60.40104Q293.23438 61.229164 293.23438 62.71354Q293.23438 63.916664 292.875 64.604164Q292.51562 65.291664 291.8125 65.68229Q291.125 66.05729 290.3125 66.05729Q289.01562 66.05729 288.20312 65.229164Q287.40625 64.385414 287.40625 62.80729ZM288.48438 62.80729Q288.48438 63.99479 289.0 64.58854Q289.53125 65.18229 290.3125 65.18229Q291.10938 65.18229 291.625 64.58854Q292.14062 63.99479 292.14062 62.77604Q292.14062 61.61979 291.60938 61.02604Q291.09375 60.43229 290.3125 60.43229Q289.53125 60.43229 289.0 61.02604Q288.48438 61.604164 288.48438 62.80729ZM294.76562 65.916664L294.76562 57.322914L295.82812 57.322914L295.82812 65.916664L294.76562 65.916664ZM302.04688 63.916664L303.14062 64.041664Q302.89062 64.99479 302.1875 65.52604Q301.48438 66.05729 300.40625 66.05729Q299.04688 66.05729 298.23438 65.21354Q297.4375 64.36979 297.4375 62.854164Q297.4375 61.291664 298.25 60.43229Q299.0625 59.55729 300.34375 59.55729Q301.59375 59.55729 302.375 60.40104Q303.17188 61.24479 303.17188 62.791664Q303.17188 62.885414 303.17188 63.072914L298.53125 63.072914Q298.59375 64.104164 299.10938 64.65104Q299.625 65.18229 300.40625 65.18229Q300.98438 65.18229 301.39062 64.885414Q301.8125 64.572914 302.04688 63.916664ZM298.59375 62.21354L302.0625 62.21354Q302.0 61.416664 301.67188 61.02604Q301.15625 60.416664 300.35938 60.416664Q299.625 60.416664 299.125 60.90104Q298.64062 61.385414 298.59375 62.21354Z" fill-rule="nonzero"/><path fill="#ea4335" d="M320.0 56.916668C320.0 56.364384 320.44772 55.916668 321.0 55.916668L331.0 55.916668C331.55228 55.916668 332.0 56.364384 332.0 56.916668L332.0 66.916664C332.0 67.46895 331.55228 67.916664 331.0 67.916664L321.0 67.916664C320.44772 67.916664 320.0 67.46895 320.0 66.916664Z" fill-rule="nonzero"/><path fill="#1a1a1a" d="M341.04688 65.916664L341.04688 60.510414L340.10938 60.510414L340.10938 59.697914L341.04688 59.697914L341.04688 59.02604Q341.04688 58.40104 341.15625 58.104164Q341.3125 57.68229 341.6875 57.43229Q342.07812 57.18229 342.76562 57.18229Q343.21875 57.18229 343.75 57.291664L343.59375 58.197914Q343.26562 58.15104 342.96875 58.15104Q342.48438 58.15104 342.28125 58.354164Q342.09375 58.55729 342.09375 59.11979L342.09375 59.697914L343.3125 59.697914L343.3125 60.510414L342.09375 60.510414L342.09375 65.916664L341.04688 65.916664ZM343.78125 65.916664L343.78125 59.697914L344.73438 59.697914L344.73438 60.635414Q345.09375 59.979164 345.39062 59.77604Q345.70312 59.55729 346.07812 59.55729Q346.60938 59.55729 347.15625 59.885414L346.79688 60.86979Q346.40625 60.635414 346.03125 60.635414Q345.67188 60.635414 345.39062 60.854164Q345.125 61.05729 345.01562 61.43229Q344.82812 61.99479 344.82812 62.65104L344.82812 65.916664L343.78125 65.916664ZM347.79688 68.30729L347.79688 59.697914L348.75 59.697914L348.75 60.49479Q349.09375 60.02604 349.51562 59.791664Q349.95312 59.55729 350.5625 59.55729Q351.35938 59.55729 351.96875 59.96354Q352.57812 60.36979 352.875 61.11979Q353.1875 61.86979 353.1875 62.760414Q353.1875 63.71354 352.84375 64.479164Q352.51562 65.24479 351.85938 65.65104Q351.20312 66.05729 350.48438 66.05729Q349.95312 66.05729 349.53125 65.83854Q349.10938 65.604164 348.84375 65.27604L348.84375 68.30729L347.79688 68.30729ZM348.75 62.83854Q348.75 64.041664 349.23438 64.61979Q349.71875 65.18229 350.40625 65.18229Q351.10938 65.18229 351.60938 64.58854Q352.10938 63.99479 352.10938 62.74479Q352.10938 61.55729 351.625 60.979164Q351.14062 60.385414 350.45312 60.385414Q349.78125 60.385414 349.26562 61.010414Q348.75 61.635414 348.75 62.83854Z" fill-rule="nonzero"/><path fill="#757575" d="M20.159374 37.55L20.159374 23.2375L22.05 23.2375L22.05 29.1125L29.4875 29.1125L29.4875 23.2375L31.378124 23.2375L31.378124 37.55L29.4875 37.55L29.4875 30.8L22.05 30.8L22.05 37.55L20.159374 37.55ZM36.7375 37.55L36.7375 24.925L32.01875 24.925L32.01875 23.2375L43.3625 23.2375L43.3625 24.925L38.628124 24.925L38.628124 37.55L36.7375 37.55ZM48.7375 37.55L48.7375 24.925L44.01875 24.925L44.01875 23.2375L55.3625 23.2375L55.3625 24.925L50.628124 24.925L50.628124 37.55L48.7375 37.55ZM57.096874 37.55L57.096874 23.2375L62.4875 23.2375Q63.925 23.2375 64.675 23.3625Q65.72188 23.55 66.44063 24.05Q67.15938 24.534374 67.58125 25.425Q68.01875 26.315624 68.01875 27.378124Q68.01875 29.20625 66.84688 30.471874Q65.69063 31.721874 62.659374 31.721874L58.9875 31.721874L58.9875 37.55L57.096874 37.55ZM58.9875 30.034374L62.690624 30.034374Q64.51875 30.034374 65.28438 29.3625Q66.06563 28.675 66.06563 27.425Q66.06563 26.534374 65.6125 25.89375Q65.15938 25.253124 64.425 25.05Q63.940624 24.925 62.64375 24.925L58.9875 24.925L58.9875 30.034374ZM79.7375 37.55L79.7375 24.925L75.01875 24.925L75.01875 23.2375L86.3625 23.2375L86.3625 24.925L81.62813 24.925L81.62813 37.55L79.7375 37.55ZM87.8625 37.55L87.8625 23.2375L89.62813 23.2375L89.62813 28.3625Q90.8625 26.940624 92.7375 26.940624Q93.87813 26.940624 94.72188 27.39375Q95.58125 27.846874 95.94063 28.659374Q96.31563 29.45625 96.31563 30.971874L96.31563 37.55L94.56563 37.55L94.56563 30.971874Q94.56563 29.659374 93.9875 29.065624Q93.40938 28.45625 92.37813 28.45625Q91.59688 28.45625 90.89375 28.8625Q90.20625 29.26875 89.90938 29.971874Q89.62813 30.659374 89.62813 31.878124L89.62813 37.55L87.8625 37.55ZM97.84688 37.55L97.84688 27.175L99.425 27.175L99.425 28.753124Q100.03438 27.64375 100.55 27.3Q101.06563 26.940624 101.675 26.940624Q102.56563 26.940624 103.4875 27.503124L102.87813 29.14375Q102.2375 28.753124 101.59688 28.753124Q101.01875 28.753124 100.55 29.1125Q100.09688 29.45625 99.89375 30.065624Q99.6125 31.003124 99.6125 32.1125L99.6125 37.55L97.84688 37.55ZM104.22188 32.3625Q104.22188 29.4875 105.81563 28.096874Q107.15938 26.940624 109.08125 26.940624Q111.22188 26.940624 112.56563 28.346874Q113.925 29.753124 113.925 32.221874Q113.925 34.221874 113.33125 35.378124Q112.7375 36.51875 111.58125 37.159374Q110.44063 37.784374 109.08125 37.784374Q106.89375 37.784374 105.55 36.39375Q104.22188 34.9875 104.22188 32.3625ZM106.01875 32.3625Q106.01875 34.3625 106.87813 35.346874Q107.75313 36.33125 109.08125 36.33125Q110.39375 36.33125 111.25313 35.346874Q112.12813 34.346874 112.12813 32.3Q112.12813 30.378124 111.25313 29.39375Q110.37813 28.39375 109.08125 28.39375Q107.75313 28.39375 106.87813 29.39375Q106.01875 30.378124 106.01875 32.3625ZM122.65938 37.55L122.65938 36.01875Q121.45625 37.784374 119.37813 37.784374Q118.45625 37.784374 117.65938 37.440624Q116.8625 37.08125 116.47188 36.55Q116.09688 36.01875 115.94063 35.2375Q115.83125 34.721874 115.83125 33.596874L115.83125 27.175L117.58125 27.175L117.58125 32.925Q117.58125 34.3 117.69063 34.784374Q117.8625 35.471874 118.39375 35.878124Q118.94063 36.26875 119.72188 36.26875Q120.51875 36.26875 121.20625 35.8625Q121.90938 35.45625 122.19063 34.76875Q122.4875 34.065624 122.4875 32.7375L122.4875 27.175L124.2375 27.175L124.2375 37.55L122.65938 37.55ZM125.55 38.409374L127.25313 38.659374Q127.3625 39.45625 127.84688 39.815624Q128.50313 40.3 129.64375 40.3Q130.8625 40.3 131.51875 39.815624Q132.19063 39.33125 132.425 38.45625Q132.56563 37.909374 132.55 36.190624Q131.39375 37.55 129.675 37.55Q127.53438 37.55 126.3625 36.003124Q125.19063 34.45625 125.19063 32.3Q125.19063 30.815624 125.72188 29.565624Q126.26875 28.315624 127.28438 27.628124Q128.31563 26.940624 129.69063 26.940624Q131.51875 26.940624 132.72188 28.425L132.72188 27.175L134.33125 27.175L134.33125 36.14375Q134.33125 38.565624 133.83125 39.565624Q133.34688 40.58125 132.26875 41.159374Q131.20625 41.753124 129.64375 41.753124Q127.8 41.753124 126.64375 40.925Q125.50313 40.096874 125.55 38.409374ZM127.00313 32.175Q127.00313 34.221874 127.81563 35.159374Q128.62813 36.096874 129.84688 36.096874Q131.05 36.096874 131.8625 35.159374Q132.69063 34.221874 132.69063 32.2375Q132.69063 30.33125 131.84688 29.3625Q131.00313 28.39375 129.81563 28.39375Q128.64375 28.39375 127.81563 29.346874Q127.00313 30.3 127.00313 32.175ZM136.8625 37.55L136.8625 23.2375L138.62813 23.2375L138.62813 28.3625Q139.8625 26.940624 141.7375 26.940624Q142.87813 26.940624 143.72188 27.39375Q144.58125 27.846874 144.94063 28.659374Q145.31563 29.45625 145.31563 30.971874L145.31563 37.55L143.56563 37.55L143.56563 30.971874Q143.56563 29.659374 142.9875 29.065624Q142.40938 28.45625 141.37813 28.45625Q140.59688 28.45625 139.89375 28.8625Q139.20625 29.26875 138.90938 29.971874Q138.62813 30.659374 138.62813 31.878124L138.62813 37.55L136.8625 37.55ZM146.8625 41.51875L146.8625 27.175L148.47188 27.175L148.47188 28.51875Q149.03438 27.7375 149.7375 27.346874Q150.45625 26.940624 151.47188 26.940624Q152.8 26.940624 153.81563 27.628124Q154.83125 28.315624 155.34688 29.565624Q155.87813 30.8 155.87813 32.284374Q155.87813 33.878124 155.3 35.159374Q154.7375 36.425 153.64375 37.1125Q152.55 37.784374 151.34688 37.784374Q150.47188 37.784374 149.76875 37.409374Q149.08125 37.034374 148.62813 36.471874L148.62813 41.51875L146.8625 41.51875ZM148.45625 32.425Q148.45625 34.425 149.26875 35.378124Q150.08125 36.33125 151.2375 36.33125Q152.40938 36.33125 153.2375 35.346874Q154.08125 34.3625 154.08125 32.26875Q154.08125 30.3 153.25313 29.315624Q152.44063 28.315624 151.31563 28.315624Q150.19063 28.315624 149.31563 29.378124Q148.45625 30.425 148.45625 32.425ZM164.65938 37.55L164.65938 36.01875Q163.45625 37.784374 161.37813 37.784374Q160.45625 37.784374 159.65938 37.440624Q158.8625 37.08125 158.47188 36.55Q158.09688 36.01875 157.94063 35.2375Q157.83125 34.721874 157.83125 33.596874L157.83125 27.175L159.58125 27.175L159.58125 32.925Q159.58125 34.3 159.69063 34.784374Q159.8625 35.471874 160.39375 35.878124Q160.94063 36.26875 161.72188 36.26875Q162.51875 36.26875 163.20625 35.8625Q163.90938 35.45625 164.19063 34.76875Q164.4875 34.065624 164.4875 32.7375L164.4875 27.175L166.2375 27.175L166.2375 37.55L164.65938 37.55ZM171.70625 35.971874L171.95625 37.534374Q171.22188 37.690624 170.62813 37.690624Q169.675 37.690624 169.14375 37.39375Q168.62813 37.08125 168.40938 36.596874Q168.19063 36.096874 168.19063 34.51875L168.19063 28.55L166.90938 28.55L166.90938 27.175L168.19063 27.175L168.19063 24.6125L169.94063 23.55L169.94063 27.175L171.70625 27.175L171.70625 28.55L169.94063 28.55L169.94063 34.6125Q169.94063 35.3625 170.03438 35.58125Q170.12813 35.784374 170.33125 35.925Q170.55 36.05 170.94063 36.05Q171.22188 36.05 171.70625 35.971874Z" fill-rule="nonzero"/></svg>