<svg version="1.1" viewBox="0.0 0.0 600.0 371.0" fill="none" stroke="none" stroke-linecap="square" stroke-miterlimit="10" width="600" height="371" xmlns:xlink="http://www.w3.org/1999/xlink" xmlns="http://www.w3.org/2000/svg"><path fill="#ffffff" d="M0 0L600.0 0L600.0 371.0L0 371.0L0 0Z" fill-rule="nonzero"/><path stroke="#333333" stroke-width="1.0" stroke-linecap="butt" d="M84.5 332.5L581.5 332.5" fill-rule="nonzero"/><path stroke="#cccccc" stroke-width="1.0" stroke-linecap="butt" d="M84.5 271.5L581.5 271.5" fill-rule="nonzero"/><path stroke="#cccccc" stroke-width="1.0" stroke-linecap="butt" d="M84.5 210.5L581.5 210.5" fill-rule="nonzero"/><path stroke="#cccccc" stroke-width="1.0" stroke-linecap="butt" d="M84.5 149.5L581.5 149.5" fill-rule="nonzero"/><path stroke="#cccccc" stroke-width="1.0" stroke-linecap="butt" d="M84.5 88.5L581.5 88.5" fill-rule="nonzero"/><clipPath id="id_0"><path d="M84.55 88.28333L581.45 88.28333L581.45 332.45L84.55 332.45L84.55 88.28333Z" clip-rule="nonzero"/></clipPath><path stroke="#000000" stroke-width="2.0" stroke-linecap="butt" stroke-opacity="0.0" clip-path="url(#id_0)" d="M332.0 332.0L214.0 332.0L214.0 113.0C214.0 111.89543 214.89543 111.0 216.0 111.0L330.0 111.0C331.10458 111.0 332.0 111.89543 332.0 113.0Z" fill-rule="nonzero"/><path fill="#4285f4" clip-path="url(#id_0)" d="M332.0 332.0L214.0 332.0L214.0 113.0C214.0 111.89543 214.89543 111.0 216.0 111.0L330.0 111.0C331.10458 111.0 332.0 111.89543 332.0 113.0Z" fill-rule="nonzero"/><path stroke="#000000" stroke-width="2.0" stroke-linecap="butt" stroke-opacity="0.0" clip-path="url(#id_0)" d="M452.0 332.0L334.0 332.0L334.0 284.0C334.0 282.89542 334.89542 282.0 336.0 282.0L450.0 282.0C451.10458 282.0 452.0 282.89542 452.0 284.0Z" fill-rule="nonzero"/><path fill="#ea4335" clip-path="url(#id_0)" d="M452.0 332.0L334.0 332.0L334.0 284.0C334.0 282.89542 334.89542 282.0 336.0 282.0L450.0 282.0C451.10458 282.0 452.0 282.89542 452.0 284.0Z" fill-rule="nonzero"/><path stroke="#4285f4" stroke-width="3.0" stroke-linejoin="round" stroke-linecap="round" d="M261.28125 123.48229L262.09375 123.48229Q262.875 123.46667 263.3125 123.07604Q263.75 122.68542 263.75 122.01354Q263.75 120.51354 262.25 120.51354Q261.54688 120.51354 261.125 120.91979Q260.71875 121.32604 260.71875 121.98229L259.625 121.98229Q259.625 120.96667 260.35938 120.29479Q261.10938 119.62292 262.25 119.62292Q263.45312 119.62292 264.14062 120.26354Q264.82812 120.90417 264.82812 122.04479Q264.82812 122.60729 264.46875 123.12292Q264.10938 123.63854 263.48438 123.90417Q264.1875 124.12292 264.5625 124.63854Q264.95312 125.15417 264.95312 125.90417Q264.95312 127.04479 264.20312 127.73229Q263.45312 128.40416 262.25 128.40416Q261.0625 128.40416 260.29688 127.74792Q259.54688 127.09167 259.54688 126.02917L260.64062 126.02917Q260.64062 126.70104 261.07812 127.10729Q261.51562 127.51354 262.26562 127.51354Q263.04688 127.51354 263.45312 127.10729Q263.875 126.68542 263.875 125.91979Q263.875 125.18542 263.42188 124.79479Q262.96875 124.38854 262.09375 124.37292L261.28125 124.37292L261.28125 123.48229ZM270.96875 119.74792L270.96875 120.65417L270.76562 120.65417Q269.5 120.68542 268.75 121.41979Q268.0 122.13854 267.875 123.45104Q268.5625 122.68542 269.71875 122.68542Q270.82812 122.68542 271.5 123.46667Q272.17188 124.24792 272.17188 125.49792Q272.17188 126.81042 271.45312 127.60729Q270.73438 128.40416 269.51562 128.40416Q268.29688 128.40416 267.53125 127.46667Q266.78125 126.51354 266.78125 125.02917L266.78125 124.62292Q266.78125 122.26354 267.78125 121.01354Q268.78125 119.76354 270.76562 119.74792L270.96875 119.74792ZM269.54688 123.59167Q268.98438 123.59167 268.51562 123.91979Q268.04688 124.24792 267.85938 124.76354L267.85938 125.15417Q267.85938 126.21667 268.32812 126.85729Q268.8125 127.49792 269.51562 127.49792Q270.25 127.49792 270.67188 126.96667Q271.09375 126.41979 271.09375 125.54479Q271.09375 124.66979 270.67188 124.13854Q270.25 123.59167 269.54688 123.59167ZM279.29688 128.27916L273.70312 128.27916L273.70312 127.49792L276.65625 124.21667Q277.3125 123.46667 277.5625 123.01354Q277.8125 122.54479 277.8125 122.04479Q277.8125 121.37292 277.40625 120.95104Q277.01562 120.51354 276.32812 120.51354Q275.53125 120.51354 275.07812 120.98229Q274.625 121.43542 274.625 122.26354L273.54688 122.26354Q273.54688 121.07604 274.29688 120.35729Q275.0625 119.62292 276.32812 119.62292Q277.53125 119.62292 278.21875 120.24792Q278.90625 120.87292 278.90625 121.91979Q278.90625 123.16979 277.29688 124.91979L275.01562 127.38854L279.29688 127.38854L279.29688 128.27916ZM286.0625 124.63854Q286.0625 126.54479 285.40625 127.48229Q284.76562 128.40416 283.375 128.40416Q282.01562 128.40416 281.35938 127.49792Q280.70312 126.59167 280.67188 124.77917L280.67188 123.34167Q280.67188 121.45104 281.3125 120.54479Q281.96875 119.62292 283.35938 119.62292Q284.73438 119.62292 285.39062 120.51354Q286.04688 121.38854 286.0625 123.23229L286.0625 124.63854ZM284.96875 123.15417Q284.96875 121.77917 284.57812 121.15417Q284.20312 120.51354 283.35938 120.51354Q282.53125 120.51354 282.14062 121.15417Q281.76562 121.77917 281.76562 123.07604L281.76562 124.81042Q281.76562 126.18542 282.15625 126.85729Q282.5625 127.51354 283.375 127.51354Q284.17188 127.51354 284.5625 126.88854Q284.95312 126.26354 284.96875 124.93542L284.96875 123.15417Z" fill-rule="nonzero"/><path fill="#ffffff" d="M261.28125 123.482285L262.09375 123.482285Q262.875 123.46666 263.3125 123.076035Q263.75 122.68541 263.75 122.013535Q263.75 120.513535 262.25 120.513535Q261.54688 120.513535 261.125 120.919785Q260.71875 121.326035 260.71875 121.982285L259.625 121.982285Q259.625 120.96666 260.35938 120.294785Q261.10938 119.62291 262.25 119.62291Q263.45312 119.62291 264.14062 120.263535Q264.82812 120.90416 264.82812 122.044785Q264.82812 122.607285 264.46875 123.12291Q264.10938 123.638535 263.48438 123.90416Q264.1875 124.12291 264.5625 124.638535Q264.95312 125.15416 264.95312 125.90416Q264.95312 127.044785 264.20312 127.732285Q263.45312 128.40416 262.25 128.40416Q261.0625 128.40416 260.29688 127.74791Q259.54688 127.09166 259.54688 126.02916L260.64062 126.02916Q260.64062 126.701035 261.07812 127.107285Q261.51562 127.513535 262.26562 127.513535Q263.04688 127.513535 263.45312 127.107285Q263.875 126.68541 263.875 125.919785Q263.875 125.18541 263.42188 124.794785Q262.96875 124.388535 262.09375 124.37291L261.28125 124.37291L261.28125 123.482285ZM270.96875 119.74791L270.96875 120.65416L270.76562 120.65416Q269.5 120.68541 268.75 121.419785Q268.0 122.138535 267.875 123.451035Q268.5625 122.68541 269.71875 122.68541Q270.82812 122.68541 271.5 123.46666Q272.17188 124.24791 272.17188 125.49791Q272.17188 126.81041 271.45312 127.607285Q270.73438 128.40416 269.51562 128.40416Q268.29688 128.40416 267.53125 127.46666Q266.78125 126.513535 266.78125 125.02916L266.78125 124.62291Q266.78125 122.263535 267.78125 121.013535Q268.78125 119.763535 270.76562 119.74791L270.96875 119.74791ZM269.54688 123.59166Q268.98438 123.59166 268.51562 123.919785Q268.04688 124.24791 267.85938 124.763535L267.85938 125.15416Q267.85938 126.21666 268.32812 126.857285Q268.8125 127.49791 269.51562 127.49791Q270.25 127.49791 270.67188 126.96666Q271.09375 126.419785 271.09375 125.544785Q271.09375 124.669785 270.67188 124.138535Q270.25 123.59166 269.54688 123.59166ZM279.29688 128.27916L273.70312 128.27916L273.70312 127.49791L276.65625 124.21666Q277.3125 123.46666 277.5625 123.013535Q277.8125 122.544785 277.8125 122.044785Q277.8125 121.37291 277.40625 120.951035Q277.01562 120.513535 276.32812 120.513535Q275.53125 120.513535 275.07812 120.982285Q274.625 121.43541 274.625 122.263535L273.54688 122.263535Q273.54688 121.076035 274.29688 120.357285Q275.0625 119.62291 276.32812 119.62291Q277.53125 119.62291 278.21875 120.24791Q278.90625 120.87291 278.90625 121.919785Q278.90625 123.169785 277.29688 124.919785L275.01562 127.388535L279.29688 127.388535L279.29688 128.27916ZM286.0625 124.638535Q286.0625 126.544785 285.40625 127.482285Q284.76562 128.40416 283.375 128.40416Q282.01562 128.40416 281.35938 127.49791Q280.70312 126.59166 280.67188 124.77916L280.67188 123.34166Q280.67188 121.451035 281.3125 120.544785Q281.96875 119.62291 283.35938 119.62291Q284.73438 119.62291 285.39062 120.513535Q286.04688 121.388535 286.0625 123.232285L286.0625 124.638535ZM284.96875 123.15416Q284.96875 121.77916 284.57812 121.15416Q284.20312 120.513535 283.35938 120.513535Q282.53125 120.513535 282.14062 121.15416Q281.76562 121.77916 281.76562 123.076035L281.76562 124.81041Q281.76562 126.18541 282.15625 126.857285Q282.5625 127.513535 283.375 127.513535Q284.17188 127.513535 284.5625 126.888535Q284.95312 126.263535 284.96875 124.93541L284.96875 123.15416Z" fill-rule="nonzero"/><path stroke="#ea4335" stroke-width="3.0" stroke-linejoin="round" stroke-linecap="round" d="M388.39062 292.63916Q388.39062 293.2798 388.04688 293.7798Q387.70312 294.2798 387.14062 294.56104Q387.79688 294.8423 388.1875 295.4048Q388.57812 295.95166 388.57812 296.6548Q388.57812 297.74854 387.82812 298.4204Q387.09375 299.07666 385.875 299.07666Q384.64062 299.07666 383.89062 298.4204Q383.15625 297.74854 383.15625 296.6548Q383.15625 295.95166 383.53125 295.4048Q383.90625 294.8423 384.57812 294.56104Q384.01562 294.2798 383.6875 293.7798Q383.35938 293.2798 383.35938 292.63916Q383.35938 291.56104 384.04688 290.93604Q384.73438 290.2954 385.875 290.2954Q387.0 290.2954 387.6875 290.93604Q388.39062 291.56104 388.39062 292.63916ZM387.5 296.62354Q387.5 295.9048 387.04688 295.4673Q386.59375 295.01416 385.85938 295.01416Q385.125 295.01416 384.67188 295.4673Q384.23438 295.9048 384.23438 296.63916Q384.23438 297.3579 384.67188 297.7798Q385.10938 298.18604 385.875 298.18604Q386.625 298.18604 387.0625 297.76416Q387.5 297.3423 387.5 296.62354ZM385.875 291.18604Q385.23438 291.18604 384.82812 291.5923Q384.4375 291.9829 384.4375 292.6704Q384.4375 293.31104 384.82812 293.7173Q385.21875 294.12354 385.85938 294.12354Q386.51562 294.12354 386.90625 293.7173Q387.29688 293.31104 387.29688 292.6704Q387.29688 292.01416 386.89062 291.6079Q386.48438 291.18604 385.875 291.18604ZM395.79688 298.95166L390.20312 298.95166L390.20312 298.1704L393.15625 294.88916Q393.8125 294.13916 394.0625 293.68604Q394.3125 293.2173 394.3125 292.7173Q394.3125 292.0454 393.90625 291.62354Q393.51562 291.18604 392.82812 291.18604Q392.03125 291.18604 391.57812 291.6548Q391.125 292.1079 391.125 292.93604L390.04688 292.93604Q390.04688 291.74854 390.79688 291.0298Q391.5625 290.2954 392.82812 290.2954Q394.03125 290.2954 394.71875 290.9204Q395.40625 291.5454 395.40625 292.5923Q395.40625 293.8423 393.79688 295.5923L391.51562 298.06104L395.79688 298.06104L395.79688 298.95166ZM401.78125 296.0923L402.96875 296.0923L402.96875 296.9673L401.78125 296.9673L401.78125 298.95166L400.70312 298.95166L400.70312 296.9673L396.8125 296.9673L396.8125 296.32666L400.625 290.4204L401.78125 290.4204L401.78125 296.0923ZM398.04688 296.0923L400.70312 296.0923L400.70312 291.9048L400.5625 292.13916L398.04688 296.0923Z" fill-rule="nonzero"/><path fill="#ffffff" d="M388.39062 292.63916Q388.39062 293.2798 388.04688 293.7798Q387.70312 294.2798 387.14062 294.56104Q387.79688 294.8423 388.1875 295.4048Q388.57812 295.95166 388.57812 296.6548Q388.57812 297.74854 387.82812 298.4204Q387.09375 299.07666 385.875 299.07666Q384.64062 299.07666 383.89062 298.4204Q383.15625 297.74854 383.15625 296.6548Q383.15625 295.95166 383.53125 295.4048Q383.90625 294.8423 384.57812 294.56104Q384.01562 294.2798 383.6875 293.7798Q383.35938 293.2798 383.35938 292.63916Q383.35938 291.56104 384.04688 290.93604Q384.73438 290.2954 385.875 290.2954Q387.0 290.2954 387.6875 290.93604Q388.39062 291.56104 388.39062 292.63916ZM387.5 296.62354Q387.5 295.9048 387.04688 295.4673Q386.59375 295.01416 385.85938 295.01416Q385.125 295.01416 384.67188 295.4673Q384.23438 295.9048 384.23438 296.63916Q384.23438 297.3579 384.67188 297.7798Q385.10938 298.18604 385.875 298.18604Q386.625 298.18604 387.0625 297.76416Q387.5 297.3423 387.5 296.62354ZM385.875 291.18604Q385.23438 291.18604 384.82812 291.5923Q384.4375 291.9829 384.4375 292.6704Q384.4375 293.31104 384.82812 293.7173Q385.21875 294.12354 385.85938 294.12354Q386.51562 294.12354 386.90625 293.7173Q387.29688 293.31104 387.29688 292.6704Q387.29688 292.01416 386.89062 291.6079Q386.48438 291.18604 385.875 291.18604ZM395.79688 298.95166L390.20312 298.95166L390.20312 298.1704L393.15625 294.88916Q393.8125 294.13916 394.0625 293.68604Q394.3125 293.2173 394.3125 292.7173Q394.3125 292.0454 393.90625 291.62354Q393.51562 291.18604 392.82812 291.18604Q392.03125 291.18604 391.57812 291.6548Q391.125 292.1079 391.125 292.93604L390.04688 292.93604Q390.04688 291.74854 390.79688 291.0298Q391.5625 290.2954 392.82812 290.2954Q394.03125 290.2954 394.71875 290.9204Q395.40625 291.5454 395.40625 292.5923Q395.40625 293.8423 393.79688 295.5923L391.51562 298.06104L395.79688 298.06104L395.79688 298.95166ZM401.78125 296.0923L402.96875 296.0923L402.96875 296.9673L401.78125 296.9673L401.78125 298.95166L400.70312 298.95166L400.70312 296.9673L396.8125 296.9673L396.8125 296.32666L400.625 290.4204L401.78125 290.4204L401.78125 296.0923ZM398.04688 296.0923L400.70312 296.0923L400.70312 291.9048L400.5625 292.13916L398.04688 296.0923Z" fill-rule="nonzero"/><path fill="#000000" d="M29.550013 264.7573L21.971888 264.7573L21.971888 267.58542L20.956263 267.58542L20.956263 260.77292L21.971888 260.77292L21.971888 263.61667L29.550013 263.61667L29.550013 264.7573ZM26.534388 253.80417L26.831263 252.67917Q28.221888 253.03854 28.956263 253.96042Q29.690638 254.8823 29.690638 256.22604Q29.690638 257.61667 29.128138 258.49167Q28.565638 259.36667 27.503138 259.8198Q26.425013 260.27292 25.190638 260.27292Q23.846888 260.27292 22.846888 259.7573Q21.846888 259.24167 21.331263 258.30417Q20.815638 257.35104 20.815638 256.21042Q20.815638 254.92917 21.471888 254.05417Q22.128138 253.16354 23.315638 252.8198L23.581263 253.9448Q22.643763 254.24167 22.221888 254.8198Q21.784388 255.3823 21.784388 256.24167Q21.784388 257.22604 22.268763 257.89792Q22.737513 258.55417 23.534388 258.83542Q24.331263 259.10104 25.190638 259.10104Q26.284388 259.10104 27.096888 258.78854Q27.909388 258.46042 28.315638 257.78854Q28.721888 257.11667 28.721888 256.3198Q28.721888 255.36667 28.175013 254.71042Q27.628138 254.03854 26.534388 253.80417ZM29.550013 250.9448L20.956263 250.9448L20.956263 247.6948Q20.956263 246.85104 21.034388 246.39792Q21.143763 245.7573 21.440638 245.33542Q21.737513 244.89792 22.268763 244.64792Q22.800013 244.3823 23.440638 244.3823Q24.534388 244.3823 25.300013 245.08542Q26.050013 245.77292 26.050013 247.60104L26.050013 249.80417L29.550013 249.80417L29.550013 250.9448ZM25.050013 249.80417L25.050013 247.58542Q25.050013 246.47604 24.643763 246.02292Q24.221888 245.55417 23.471888 245.55417Q22.940638 245.55417 22.565638 245.83542Q22.175013 246.10104 22.050013 246.53854Q21.971888 246.83542 21.971888 247.60104L21.971888 249.80417L25.050013 249.80417ZM29.550013 239.99167L20.956263 239.99167L20.956263 236.7573Q20.956263 235.77292 21.221888 235.17917Q21.487513 234.58542 22.034388 234.2573Q22.565638 233.91354 23.159388 233.91354Q23.706263 233.91354 24.190638 234.21042Q24.675013 234.5073 24.971888 235.11667Q25.206263 234.33542 25.768763 233.92917Q26.315638 233.5073 27.065638 233.5073Q27.659388 233.5073 28.190638 233.7573Q28.706263 234.0073 28.987513 234.3823Q29.268763 234.7573 29.409388 235.33542Q29.550013 235.89792 29.550013 236.71042L29.550013 239.99167ZM24.565638 238.85104L24.565638 236.99167Q24.565638 236.24167 24.471888 235.91354Q24.346888 235.47604 24.050013 235.2573Q23.737513 235.03854 23.284388 235.03854Q22.862513 235.03854 22.534388 235.24167Q22.206263 235.4448 22.096888 235.83542Q21.971888 236.21042 21.971888 237.1323L21.971888 238.85104L24.565638 238.85104ZM28.534388 238.85104L28.534388 236.71042Q28.534388 236.16354 28.487513 235.9448Q28.425013 235.53854 28.268763 235.28854Q28.096888 235.02292 27.784388 234.85104Q27.471888 234.67917 27.065638 234.67917Q26.581263 234.67917 26.221888 234.92917Q25.862513 235.16354 25.721888 235.60104Q25.581263 236.03854 25.581263 236.86667L25.581263 238.85104L28.534388 238.85104ZM22.175013 232.0698L20.956263 232.0698L20.956263 231.0073L22.175013 231.0073L22.175013 232.0698ZM29.550013 232.0698L23.331263 232.0698L23.331263 231.0073L29.550013 231.0073L29.550013 232.0698ZM28.612513 226.77292L29.534388 226.61667Q29.628138 227.0698 29.628138 227.41354Q29.628138 227.99167 29.456263 228.30417Q29.268763 228.61667 28.971888 228.7573Q28.675013 228.8823 27.721888 228.8823L24.143763 228.8823L24.143763 229.64792L23.331263 229.64792L23.331263 228.8823L21.784388 228.8823L21.159388 227.83542L23.331263 227.83542L23.331263 226.77292L24.143763 226.77292L24.143763 227.83542L27.784388 227.83542Q28.237513 227.83542 28.362513 227.78854Q28.487513 227.72604 28.565638 227.60104Q28.643763 227.47604 28.643763 227.24167Q28.643763 227.05417 28.612513 226.77292ZM29.550013 226.08542L23.331263 226.08542L23.331263 225.1323L24.268763 225.1323Q23.612513 224.77292 23.409388 224.47604Q23.190638 224.16354 23.190638 223.78854Q23.190638 223.2573 23.518763 222.71042L24.503138 223.0698Q24.268763 223.46042 24.268763 223.83542Q24.268763 224.1948 24.487513 224.47604Q24.690638 224.74167 25.065638 224.85104Q25.628138 225.03854 26.284388 225.03854L29.550013 225.03854L29.550013 226.08542ZM28.784388 218.0073Q29.284388 218.60104 29.487513 219.14792Q29.690638 219.67917 29.690638 220.30417Q29.690638 221.33542 29.190638 221.8823Q28.690638 222.42917 27.909388 222.42917Q27.456263 222.42917 27.081263 222.22604Q26.690638 222.02292 26.471888 221.67917Q26.237513 221.33542 26.128138 220.91354Q26.034388 220.61667 25.956263 219.97604Q25.815638 218.71042 25.596888 218.10104Q25.378138 218.10104 25.331263 218.10104Q24.675013 218.10104 24.409388 218.39792Q24.065638 218.80417 24.065638 219.60104Q24.065638 220.33542 24.331263 220.6948Q24.581263 221.05417 25.237513 221.22604L25.096888 222.2573Q24.440638 222.11667 24.034388 221.78854Q23.628138 221.46042 23.409388 220.85104Q23.190638 220.24167 23.190638 219.4448Q23.190638 218.64792 23.378138 218.14792Q23.565638 217.64792 23.846888 217.41354Q24.128138 217.17917 24.565638 217.08542Q24.831263 217.03854 25.534388 217.03854L26.940638 217.03854Q28.409388 217.03854 28.800013 216.97604Q29.190638 216.89792 29.550013 216.6948L29.550013 217.80417Q29.221888 217.96042 28.784388 218.0073ZM26.425013 218.10104Q26.659388 218.67917 26.831263 219.8198Q26.925013 220.47604 27.050013 220.74167Q27.159388 221.0073 27.378138 221.16354Q27.596888 221.30417 27.878138 221.30417Q28.300013 221.30417 28.581263 220.99167Q28.862513 220.66354 28.862513 220.05417Q28.862513 219.4448 28.596888 218.97604Q28.331263 218.49167 27.862513 218.27292Q27.503138 218.10104 26.815638 218.10104L26.425013 218.10104ZM28.612513 212.77292L29.534388 212.61667Q29.628138 213.0698 29.628138 213.41354Q29.628138 213.99167 29.456263 214.30417Q29.268763 214.61667 28.971888 214.7573Q28.675013 214.8823 27.721888 214.8823L24.143763 214.8823L24.143763 215.64792L23.331263 215.64792L23.331263 214.8823L21.784388 214.8823L21.159388 213.83542L23.331263 213.83542L23.331263 212.77292L24.143763 212.77292L24.143763 213.83542L27.784388 213.83542Q28.237513 213.83542 28.362513 213.78854Q28.487513 213.72604 28.565638 213.60104Q28.643763 213.47604 28.643763 213.24167Q28.643763 213.05417 28.612513 212.77292ZM27.550013 207.8198L27.675013 206.72604Q28.628138 206.97604 29.159388 207.67917Q29.690638 208.3823 29.690638 209.46042Q29.690638 210.8198 28.846888 211.6323Q28.003138 212.42917 26.487513 212.42917Q24.925013 212.42917 24.065638 211.61667Q23.190638 210.80417 23.190638 209.52292Q23.190638 208.27292 24.034388 207.49167Q24.878138 206.6948 26.425013 206.6948Q26.518763 206.6948 26.706263 206.6948L26.706263 211.33542Q27.737513 211.27292 28.284388 210.7573Q28.815638 210.24167 28.815638 209.46042Q28.815638 208.8823 28.518763 208.47604Q28.206263 208.05417 27.550013 207.8198ZM25.846888 211.27292L25.846888 207.80417Q25.050013 207.86667 24.659388 208.1948Q24.050013 208.71042 24.050013 209.5073Q24.050013 210.24167 24.534388 210.74167Q25.018763 211.22604 25.846888 211.27292ZM32.08126 203.05417Q30.971888 203.92917 29.503138 204.53854Q28.018763 205.1323 26.440638 205.1323Q25.050013 205.1323 23.768763 204.6948Q22.284388 204.16354 20.815638 203.05417L20.815638 202.30417Q22.034388 203.0073 22.550013 203.24167Q23.362513 203.60104 24.237513 203.80417Q25.331263 204.05417 26.440638 204.05417Q29.268763 204.05417 32.08126 202.30417L32.08126 203.05417ZM29.550013 200.97604L20.956263 200.97604L20.956263 199.2573L27.034388 197.22604Q27.893763 196.9448 28.315638 196.8198Q27.846888 196.67917 26.940638 196.36667L20.956263 194.30417L20.956263 192.77292L29.550013 192.77292L29.550013 193.86667L22.362513 193.86667L29.550013 196.36667L29.550013 197.39792L22.237513 199.8823L29.550013 199.8823L29.550013 200.97604ZM29.550013 191.10104L29.550013 192.08542L20.956263 192.08542L20.956263 191.02292L24.018763 191.02292Q23.190638 190.35104 23.190638 189.3198Q23.190638 188.74167 23.425013 188.24167Q23.643763 187.72604 24.065638 187.39792Q24.487513 187.05417 25.081263 186.86667Q25.675013 186.67917 26.346888 186.67917Q27.940638 186.67917 28.815638 187.47604Q29.690638 188.27292 29.690638 189.36667Q29.690638 190.47604 28.768763 191.10104L29.550013 191.10104ZM26.393763 191.11667Q27.503138 191.11667 28.003138 190.80417Q28.815638 190.30417 28.815638 189.46042Q28.815638 188.77292 28.221888 188.27292Q27.628138 187.7573 26.425013 187.7573Q25.206263 187.7573 24.628138 188.24167Q24.050013 188.72604 24.050013 189.41354Q24.050013 190.10104 24.659388 190.61667Q25.253138 191.11667 26.393763 191.11667ZM22.175013 185.0698L20.956263 185.0698L20.956263 184.0073L22.175013 184.0073L22.175013 185.0698ZM29.550013 185.0698L23.331263 185.0698L23.331263 184.0073L29.550013 184.0073L29.550013 185.0698ZM28.612513 179.77292L29.534388 179.61667Q29.628138 180.0698 29.628138 180.41354Q29.628138 180.99167 29.456263 181.30417Q29.268763 181.61667 28.971888 181.7573Q28.675013 181.8823 27.721888 181.8823L24.143763 181.8823L24.143763 182.64792L23.331263 182.64792L23.331263 181.8823L21.784388 181.8823L21.159388 180.83542L23.331263 180.83542L23.331263 179.77292L24.143763 179.77292L24.143763 180.83542L27.784388 180.83542Q28.237513 180.83542 28.362513 180.78854Q28.487513 180.72604 28.565638 180.60104Q28.643763 180.47604 28.643763 180.24167Q28.643763 180.05417 28.612513 179.77292ZM29.690638 179.86667L20.815638 177.3823L20.815638 176.53854L29.690638 179.02292L29.690638 179.86667ZM27.690638 176.49167L27.534388 175.46042Q28.159388 175.36667 28.487513 174.97604Q28.815638 174.5698 28.815638 173.83542Q28.815638 173.11667 28.534388 172.77292Q28.237513 172.41354 27.831263 172.41354Q27.471888 172.41354 27.268763 172.72604Q27.128138 172.9448 26.909388 173.80417Q26.612513 174.96042 26.409388 175.41354Q26.190638 175.85104 25.815638 176.08542Q25.440638 176.3198 24.971888 176.3198Q24.565638 176.3198 24.206263 176.1323Q23.846888 175.9448 23.612513 175.61667Q23.440638 175.36667 23.315638 174.9448Q23.190638 174.52292 23.190638 174.02292Q23.190638 173.30417 23.409388 172.7573Q23.612513 172.1948 23.971888 171.92917Q24.331263 171.66354 24.925013 171.5698L25.065638 172.60104Q24.596888 172.66354 24.331263 173.0073Q24.050013 173.33542 24.050013 173.96042Q24.050013 174.67917 24.300013 174.99167Q24.534388 175.30417 24.862513 175.30417Q25.065638 175.30417 25.221888 175.17917Q25.393763 175.03854 25.503138 174.77292Q25.565638 174.61667 25.768763 173.83542Q26.081263 172.71042 26.268763 172.27292Q26.456263 171.83542 26.815638 171.58542Q27.175013 171.33542 27.721888 171.33542Q28.253138 171.33542 28.721888 171.64792Q29.175013 171.9448 29.440638 172.52292Q29.690638 173.10104 29.690638 173.83542Q29.690638 175.05417 29.190638 175.6948Q28.675013 176.3198 27.690638 176.49167ZM32.08126 168.3823L32.08126 169.1323Q29.268763 167.3823 26.440638 167.3823Q25.346888 167.3823 24.253138 167.6323Q23.378138 167.83542 22.565638 168.1948Q22.050013 168.42917 20.815638 169.1323L20.815638 168.3823Q22.284388 167.28854 23.768763 166.7573Q25.050013 166.30417 26.440638 166.30417Q28.018763 166.30417 29.503138 166.91354Q30.971888 167.52292 32.08126 168.3823Z" fill-rule="nonzero"/><path fill="#000000" d="M72.05 332.21564Q72.05 330.6844 72.3625 329.7625Q72.675 328.825 73.28438 328.325Q73.90938 327.825 74.84688 327.825Q75.53438 327.825 76.05 328.10626Q76.58125 328.3875 76.925 328.91876Q77.26875 329.4344 77.45625 330.1844Q77.64375 330.9344 77.64375 332.21564Q77.64375 333.73126 77.33125 334.65314Q77.03438 335.575 76.40938 336.09064Q75.8 336.59064 74.84688 336.59064Q73.6125 336.59064 72.89375 335.7Q72.05 334.6375 72.05 332.21564ZM73.12813 332.21564Q73.12813 334.325 73.62813 335.02814Q74.12813 335.73126 74.84688 335.73126Q75.58125 335.73126 76.06563 335.02814Q76.56563 334.325 76.56563 332.21564Q76.56563 330.09064 76.06563 329.40314Q75.58125 328.7 74.83125 328.7Q74.1125 328.7 73.675 329.3094Q73.12813 330.09064 73.12813 332.21564Z" fill-rule="nonzero"/><path fill="#000000" d="M55.01875 275.40833L53.971874 275.40833L53.971874 268.68958Q53.58125 269.04895 52.95625 269.42395Q52.346874 269.78333 51.8625 269.9552L51.8625 268.93958Q52.7375 268.5177 53.39375 267.93958Q54.065624 267.34583 54.346874 266.78333L55.01875 266.78333L55.01875 275.40833ZM58.05 271.17395Q58.05 269.6427 58.3625 268.72083Q58.675 267.78333 59.284374 267.28333Q59.909374 266.78333 60.846874 266.78333Q61.534374 266.78333 62.05 267.06458Q62.58125 267.34583 62.925 267.87708Q63.26875 268.3927 63.45625 269.1427Q63.64375 269.8927 63.64375 271.17395Q63.64375 272.68958 63.33125 273.61145Q63.034374 274.53333 62.409374 275.04895Q61.8 275.54895 60.846874 275.54895Q59.6125 275.54895 58.89375 274.65833Q58.05 273.59583 58.05 271.17395ZM59.128124 271.17395Q59.128124 273.28333 59.628124 273.98645Q60.128124 274.68958 60.846874 274.68958Q61.58125 274.68958 62.065624 273.98645Q62.565624 273.28333 62.565624 271.17395Q62.565624 269.04895 62.065624 268.36145Q61.58125 267.65833 60.83125 267.65833Q60.1125 267.65833 59.675 268.2677Q59.128124 269.04895 59.128124 271.17395ZM65.05 271.17395Q65.05 269.6427 65.3625 268.72083Q65.675 267.78333 66.28438 267.28333Q66.90938 266.78333 67.84688 266.78333Q68.53438 266.78333 69.05 267.06458Q69.58125 267.34583 69.925 267.87708Q70.26875 268.3927 70.45625 269.1427Q70.64375 269.8927 70.64375 271.17395Q70.64375 272.68958 70.33125 273.61145Q70.03438 274.53333 69.40938 275.04895Q68.8 275.54895 67.84688 275.54895Q66.6125 275.54895 65.89375 274.65833Q65.05 273.59583 65.05 271.17395ZM66.12813 271.17395Q66.12813 273.28333 66.62813 273.98645Q67.12813 274.68958 67.84688 274.68958Q68.58125 274.68958 69.06563 273.98645Q69.56563 273.28333 69.56563 271.17395Q69.56563 269.04895 69.06563 268.36145Q68.58125 267.65833 67.83125 267.65833Q67.1125 267.65833 66.675 268.2677Q66.12813 269.04895 66.12813 271.17395ZM72.05 271.17395Q72.05 269.6427 72.3625 268.72083Q72.675 267.78333 73.28438 267.28333Q73.90938 266.78333 74.84688 266.78333Q75.53438 266.78333 76.05 267.06458Q76.58125 267.34583 76.925 267.87708Q77.26875 268.3927 77.45625 269.1427Q77.64375 269.8927 77.64375 271.17395Q77.64375 272.68958 77.33125 273.61145Q77.03438 274.53333 76.40938 275.04895Q75.8 275.54895 74.84688 275.54895Q73.6125 275.54895 72.89375 274.65833Q72.05 273.59583 72.05 271.17395ZM73.12813 271.17395Q73.12813 273.28333 73.62813 273.98645Q74.12813 274.68958 74.84688 274.68958Q75.58125 274.68958 76.06563 273.98645Q76.56563 273.28333 76.56563 271.17395Q76.56563 269.04895 76.06563 268.36145Q75.58125 267.65833 74.83125 267.65833Q74.1125 267.65833 73.675 268.2677Q73.12813 269.04895 73.12813 271.17395Z" fill-rule="nonzero"/><path fill="#000000" d="M56.596874 213.35104L56.596874 214.36667L50.909374 214.36667Q50.909374 213.99167 51.034374 213.6323Q51.253124 213.05417 51.721874 212.49167Q52.20625 211.92917 53.1125 211.1948Q54.51875 210.03854 55.003124 209.36667Q55.503124 208.6948 55.503124 208.10104Q55.503124 207.47604 55.05 207.05417Q54.596874 206.61667 53.878124 206.61667Q53.1125 206.61667 52.659374 207.0698Q52.20625 207.52292 52.190624 208.33542L51.1125 208.22604Q51.221874 207.0073 51.940624 206.3823Q52.675 205.74167 53.909374 205.74167Q55.14375 205.74167 55.8625 206.42917Q56.58125 207.11667 56.58125 208.1323Q56.58125 208.64792 56.3625 209.14792Q56.159374 209.6323 55.659374 210.1948Q55.175 210.74167 54.05 211.6948Q53.096874 212.49167 52.815624 212.78854Q52.55 213.0698 52.378124 213.35104L56.596874 213.35104ZM58.05 210.1323Q58.05 208.60104 58.3625 207.67917Q58.675 206.74167 59.284374 206.24167Q59.909374 205.74167 60.846874 205.74167Q61.534374 205.74167 62.05 206.02292Q62.58125 206.30417 62.925 206.83542Q63.26875 207.35104 63.45625 208.10104Q63.64375 208.85104 63.64375 210.1323Q63.64375 211.64792 63.33125 212.5698Q63.034374 213.49167 62.409374 214.0073Q61.8 214.5073 60.846874 214.5073Q59.6125 214.5073 58.89375 213.61667Q58.05 212.55417 58.05 210.1323ZM59.128124 210.1323Q59.128124 212.24167 59.628124 212.9448Q60.128124 213.64792 60.846874 213.64792Q61.58125 213.64792 62.065624 212.9448Q62.565624 212.24167 62.565624 210.1323Q62.565624 208.0073 62.065624 207.3198Q61.58125 206.61667 60.83125 206.61667Q60.1125 206.61667 59.675 207.22604Q59.128124 208.0073 59.128124 210.1323ZM65.05 210.1323Q65.05 208.60104 65.3625 207.67917Q65.675 206.74167 66.28438 206.24167Q66.90938 205.74167 67.84688 205.74167Q68.53438 205.74167 69.05 206.02292Q69.58125 206.30417 69.925 206.83542Q70.26875 207.35104 70.45625 208.10104Q70.64375 208.85104 70.64375 210.1323Q70.64375 211.64792 70.33125 212.5698Q70.03438 213.49167 69.40938 214.0073Q68.8 214.5073 67.84688 214.5073Q66.6125 214.5073 65.89375 213.61667Q65.05 212.55417 65.05 210.1323ZM66.12813 210.1323Q66.12813 212.24167 66.62813 212.9448Q67.12813 213.64792 67.84688 213.64792Q68.58125 213.64792 69.06563 212.9448Q69.56563 212.24167 69.56563 210.1323Q69.56563 208.0073 69.06563 207.3198Q68.58125 206.61667 67.83125 206.61667Q67.1125 206.61667 66.675 207.22604Q66.12813 208.0073 66.12813 210.1323ZM72.05 210.1323Q72.05 208.60104 72.3625 207.67917Q72.675 206.74167 73.28438 206.24167Q73.90938 205.74167 74.84688 205.74167Q75.53438 205.74167 76.05 206.02292Q76.58125 206.30417 76.925 206.83542Q77.26875 207.35104 77.45625 208.10104Q77.64375 208.85104 77.64375 210.1323Q77.64375 211.64792 77.33125 212.5698Q77.03438 213.49167 76.40938 214.0073Q75.8 214.5073 74.84688 214.5073Q73.6125 214.5073 72.89375 213.61667Q72.05 212.55417 72.05 210.1323ZM73.12813 210.1323Q73.12813 212.24167 73.62813 212.9448Q74.12813 213.64792 74.84688 213.64792Q75.58125 213.64792 76.06563 212.9448Q76.56563 212.24167 76.56563 210.1323Q76.56563 208.0073 76.06563 207.3198Q75.58125 206.61667 74.83125 206.61667Q74.1125 206.61667 73.675 207.22604Q73.12813 208.0073 73.12813 210.1323Z" fill-rule="nonzero"/><path fill="#000000" d="M51.05 151.05937L52.1125 150.91875Q52.284374 151.80937 52.721874 152.21562Q53.159374 152.60625 53.784374 152.60625Q54.534374 152.60625 55.05 152.09062Q55.565624 151.575 55.565624 150.80937Q55.565624 150.09062 55.08125 149.62187Q54.6125 149.1375 53.878124 149.1375Q53.58125 149.1375 53.128124 149.2625L53.253124 148.325Q53.3625 148.34062 53.425 148.34062Q54.096874 148.34062 54.628124 147.99687Q55.175 147.6375 55.175 146.90312Q55.175 146.325 54.784374 145.95Q54.39375 145.55937 53.76875 145.55937Q53.159374 145.55937 52.7375 145.95Q52.33125 146.34062 52.221874 147.10625L51.159374 146.91875Q51.346874 145.87187 52.034374 145.29375Q52.721874 144.7 53.7375 144.7Q54.440624 144.7 55.034374 145.0125Q55.628124 145.30937 55.940624 145.825Q56.253124 146.34062 56.253124 146.93437Q56.253124 147.48125 55.95625 147.95Q55.659374 148.40312 55.08125 148.66875Q55.83125 148.84062 56.253124 149.40312Q56.675 149.95 56.675 150.79375Q56.675 151.91875 55.846874 152.7Q55.034374 153.48125 53.784374 153.48125Q52.659374 153.48125 51.909374 152.80937Q51.159374 152.12187 51.05 151.05937ZM58.05 149.09062Q58.05 147.55937 58.3625 146.6375Q58.675 145.7 59.284374 145.2Q59.909374 144.7 60.846874 144.7Q61.534374 144.7 62.05 144.98125Q62.58125 145.2625 62.925 145.79375Q63.26875 146.30937 63.45625 147.05937Q63.64375 147.80937 63.64375 149.09062Q63.64375 150.60625 63.33125 151.52812Q63.034374 152.45 62.409374 152.96562Q61.8 153.46562 60.846874 153.46562Q59.6125 153.46562 58.89375 152.575Q58.05 151.5125 58.05 149.09062ZM59.128124 149.09062Q59.128124 151.2 59.628124 151.90312Q60.128124 152.60625 60.846874 152.60625Q61.58125 152.60625 62.065624 151.90312Q62.565624 151.2 62.565624 149.09062Q62.565624 146.96562 62.065624 146.27812Q61.58125 145.575 60.83125 145.575Q60.1125 145.575 59.675 146.18437Q59.128124 146.96562 59.128124 149.09062ZM65.05 149.09062Q65.05 147.55937 65.3625 146.6375Q65.675 145.7 66.28438 145.2Q66.90938 144.7 67.84688 144.7Q68.53438 144.7 69.05 144.98125Q69.58125 145.2625 69.925 145.79375Q70.26875 146.30937 70.45625 147.05937Q70.64375 147.80937 70.64375 149.09062Q70.64375 150.60625 70.33125 151.52812Q70.03438 152.45 69.40938 152.96562Q68.8 153.46562 67.84688 153.46562Q66.6125 153.46562 65.89375 152.575Q65.05 151.5125 65.05 149.09062ZM66.12813 149.09062Q66.12813 151.2 66.62813 151.90312Q67.12813 152.60625 67.84688 152.60625Q68.58125 152.60625 69.06563 151.90312Q69.56563 151.2 69.56563 149.09062Q69.56563 146.96562 69.06563 146.27812Q68.58125 145.575 67.83125 145.575Q67.1125 145.575 66.675 146.18437Q66.12813 146.96562 66.12813 149.09062ZM72.05 149.09062Q72.05 147.55937 72.3625 146.6375Q72.675 145.7 73.28438 145.2Q73.90938 144.7 74.84688 144.7Q75.53438 144.7 76.05 144.98125Q76.58125 145.2625 76.925 145.79375Q77.26875 146.30937 77.45625 147.05937Q77.64375 147.80937 77.64375 149.09062Q77.64375 150.60625 77.33125 151.52812Q77.03438 152.45 76.40938 152.96562Q75.8 153.46562 74.84688 153.46562Q73.6125 153.46562 72.89375 152.575Q72.05 151.5125 72.05 149.09062ZM73.12813 149.09062Q73.12813 151.2 73.62813 151.90312Q74.12813 152.60625 74.84688 152.60625Q75.58125 152.60625 76.06563 151.90312Q76.56563 151.2 76.56563 149.09062Q76.56563 146.96562 76.06563 146.27812Q75.58125 145.575 74.83125 145.575Q74.1125 145.575 73.675 146.18437Q73.12813 146.96562 73.12813 149.09062Z" fill-rule="nonzero"/><path fill="#000000" d="M54.425 92.28333L54.425 90.22083L50.70625 90.22083L50.70625 89.25208L54.628124 83.68958L55.4875 83.68958L55.4875 89.25208L56.64375 89.25208L56.64375 90.22083L55.4875 90.22083L55.4875 92.28333L54.425 92.28333ZM54.425 89.25208L54.425 85.39271L51.7375 89.25208L54.425 89.25208ZM58.05 88.04896Q58.05 86.51771 58.3625 85.59583Q58.675 84.65833 59.284374 84.15833Q59.909374 83.65833 60.846874 83.65833Q61.534374 83.65833 62.05 83.93958Q62.58125 84.22083 62.925 84.75208Q63.26875 85.26771 63.45625 86.01771Q63.64375 86.76771 63.64375 88.04896Q63.64375 89.56458 63.33125 90.48646Q63.034374 91.40833 62.409374 91.92396Q61.8 92.42396 60.846874 92.42396Q59.6125 92.42396 58.89375 91.53333Q58.05 90.47083 58.05 88.04896ZM59.128124 88.04896Q59.128124 90.15833 59.628124 90.86146Q60.128124 91.56458 60.846874 91.56458Q61.58125 91.56458 62.065624 90.86146Q62.565624 90.15833 62.565624 88.04896Q62.565624 85.92396 62.065624 85.23646Q61.58125 84.53333 60.83125 84.53333Q60.1125 84.53333 59.675 85.14271Q59.128124 85.92396 59.128124 88.04896ZM65.05 88.04896Q65.05 86.51771 65.3625 85.59583Q65.675 84.65833 66.28438 84.15833Q66.90938 83.65833 67.84688 83.65833Q68.53438 83.65833 69.05 83.93958Q69.58125 84.22083 69.925 84.75208Q70.26875 85.26771 70.45625 86.01771Q70.64375 86.76771 70.64375 88.04896Q70.64375 89.56458 70.33125 90.48646Q70.03438 91.40833 69.40938 91.92396Q68.8 92.42396 67.84688 92.42396Q66.6125 92.42396 65.89375 91.53333Q65.05 90.47083 65.05 88.04896ZM66.12813 88.04896Q66.12813 90.15833 66.62813 90.86146Q67.12813 91.56458 67.84688 91.56458Q68.58125 91.56458 69.06563 90.86146Q69.56563 90.15833 69.56563 88.04896Q69.56563 85.92396 69.06563 85.23646Q68.58125 84.53333 67.83125 84.53333Q67.1125 84.53333 66.675 85.14271Q66.12813 85.92396 66.12813 88.04896ZM72.05 88.04896Q72.05 86.51771 72.3625 85.59583Q72.675 84.65833 73.28438 84.15833Q73.90938 83.65833 74.84688 83.65833Q75.53438 83.65833 76.05 83.93958Q76.58125 84.22083 76.925 84.75208Q77.26875 85.26771 77.45625 86.01771Q77.64375 86.76771 77.64375 88.04896Q77.64375 89.56458 77.33125 90.48646Q77.03438 91.40833 76.40938 91.92396Q75.8 92.42396 74.84688 92.42396Q73.6125 92.42396 72.89375 91.53333Q72.05 90.47083 72.05 88.04896ZM73.12813 88.04896Q73.12813 90.15833 73.62813 90.86146Q74.12813 91.56458 74.84688 91.56458Q75.58125 91.56458 76.06563 90.86146Q76.56563 90.15833 76.56563 88.04896Q76.56563 85.92396 76.06563 85.23646Q75.58125 84.53333 74.83125 84.53333Q74.1125 84.53333 73.675 85.14271Q73.12813 85.92396 73.12813 88.04896Z" fill-rule="nonzero"/><path fill="#000000" d="M285.10938 349.45L285.10938 341.8719L282.28125 341.8719L282.28125 340.85626L289.09375 340.85626L289.09375 341.8719L286.25 341.8719L286.25 349.45L285.10938 349.45ZM296.0625 346.4344L297.1875 346.73126Q296.82812 348.1219 295.90625 348.85626Q294.98438 349.59064 293.64062 349.59064Q292.25 349.59064 291.375 349.02814Q290.5 348.46564 290.04688 347.40314Q289.59375 346.325 289.59375 345.09064Q289.59375 343.7469 290.10938 342.7469Q290.625 341.7469 291.5625 341.23126Q292.51562 340.71564 293.65625 340.71564Q294.9375 340.71564 295.8125 341.3719Q296.70312 342.02814 297.04688 343.21564L295.92188 343.48126Q295.625 342.54376 295.04688 342.1219Q294.48438 341.6844 293.625 341.6844Q292.64062 341.6844 291.96875 342.16876Q291.3125 342.6375 291.03125 343.4344Q290.76562 344.23126 290.76562 345.09064Q290.76562 346.1844 291.07812 346.9969Q291.40625 347.8094 292.07812 348.21564Q292.75 348.6219 293.54688 348.6219Q294.5 348.6219 295.15625 348.075Q295.82812 347.52814 296.0625 346.4344ZM298.92188 349.45L298.92188 340.85626L302.17188 340.85626Q303.01562 340.85626 303.46875 340.9344Q304.10938 341.04376 304.53125 341.34064Q304.96875 341.6375 305.21875 342.16876Q305.48438 342.7 305.48438 343.34064Q305.48438 344.4344 304.78125 345.2Q304.09375 345.95 302.26562 345.95L300.0625 345.95L300.0625 349.45L298.92188 349.45ZM300.0625 344.95L302.28125 344.95Q303.39062 344.95 303.84375 344.54376Q304.3125 344.1219 304.3125 343.3719Q304.3125 342.84064 304.03125 342.46564Q303.76562 342.075 303.32812 341.95Q303.03125 341.8719 302.26562 341.8719L300.0625 341.8719L300.0625 344.95ZM309.875 349.45L309.875 340.85626L313.10938 340.85626Q314.09375 340.85626 314.6875 341.1219Q315.28125 341.3875 315.60938 341.9344Q315.95312 342.46564 315.95312 343.0594Q315.95312 343.60626 315.65625 344.09064Q315.35938 344.575 314.75 344.8719Q315.53125 345.10626 315.9375 345.66876Q316.35938 346.21564 316.35938 346.96564Q316.35938 347.5594 316.10938 348.09064Q315.85938 348.60626 315.48438 348.8875Q315.10938 349.16876 314.53125 349.3094Q313.96875 349.45 313.15625 349.45L309.875 349.45ZM311.01562 344.46564L312.875 344.46564Q313.625 344.46564 313.95312 344.3719Q314.39062 344.2469 314.60938 343.95Q314.82812 343.6375 314.82812 343.1844Q314.82812 342.7625 314.625 342.4344Q314.42188 342.10626 314.03125 341.9969Q313.65625 341.8719 312.73438 341.8719L311.01562 341.8719L311.01562 344.46564ZM311.01562 348.4344L313.15625 348.4344Q313.70312 348.4344 313.92188 348.3875Q314.32812 348.325 314.57812 348.16876Q314.84375 347.9969 315.01562 347.6844Q315.1875 347.3719 315.1875 346.96564Q315.1875 346.48126 314.9375 346.1219Q314.70312 345.7625 314.26562 345.6219Q313.82812 345.48126 313.0 345.48126L311.01562 345.48126L311.01562 348.4344ZM317.79688 342.075L317.79688 340.85626L318.85938 340.85626L318.85938 342.075L317.79688 342.075ZM317.79688 349.45L317.79688 343.23126L318.85938 343.23126L318.85938 349.45L317.79688 349.45ZM323.09375 348.5125L323.25 349.4344Q322.79688 349.52814 322.45312 349.52814Q321.875 349.52814 321.5625 349.35626Q321.25 349.16876 321.10938 348.8719Q320.98438 348.575 320.98438 347.6219L320.98438 344.04376L320.21875 344.04376L320.21875 343.23126L320.98438 343.23126L320.98438 341.6844L322.03125 341.0594L322.03125 343.23126L323.09375 343.23126L323.09375 344.04376L322.03125 344.04376L322.03125 347.6844Q322.03125 348.1375 322.07812 348.2625Q322.14062 348.3875 322.26562 348.46564Q322.39062 348.54376 322.625 348.54376Q322.8125 348.54376 323.09375 348.5125ZM323.78125 349.45L323.78125 343.23126L324.73438 343.23126L324.73438 344.16876Q325.09375 343.5125 325.39062 343.3094Q325.70312 343.09064 326.07812 343.09064Q326.60938 343.09064 327.15625 343.41876L326.79688 344.40314Q326.40625 344.16876 326.03125 344.16876Q325.67188 344.16876 325.39062 344.3875Q325.125 344.59064 325.01562 344.96564Q324.82812 345.52814 324.82812 346.1844L324.82812 349.45L323.78125 349.45ZM331.85938 348.6844Q331.26562 349.1844 330.71875 349.3875Q330.1875 349.59064 329.5625 349.59064Q328.53125 349.59064 327.98438 349.09064Q327.4375 348.59064 327.4375 347.8094Q327.4375 347.35626 327.64062 346.98126Q327.84375 346.59064 328.1875 346.3719Q328.53125 346.1375 328.95312 346.02814Q329.25 345.9344 329.89062 345.85626Q331.15625 345.71564 331.76562 345.4969Q331.76562 345.27814 331.76562 345.23126Q331.76562 344.575 331.46875 344.3094Q331.0625 343.96564 330.26562 343.96564Q329.53125 343.96564 329.17188 344.23126Q328.8125 344.48126 328.64062 345.1375L327.60938 344.9969Q327.75 344.34064 328.07812 343.9344Q328.40625 343.52814 329.01562 343.3094Q329.625 343.09064 330.42188 343.09064Q331.21875 343.09064 331.71875 343.27814Q332.21875 343.46564 332.45312 343.7469Q332.6875 344.02814 332.78125 344.46564Q332.82812 344.73126 332.82812 345.4344L332.82812 346.84064Q332.82812 348.3094 332.89062 348.7Q332.96875 349.09064 333.17188 349.45L332.0625 349.45Q331.90625 349.1219 331.85938 348.6844ZM331.76562 346.325Q331.1875 346.5594 330.04688 346.73126Q329.39062 346.825 329.125 346.95Q328.85938 347.0594 328.70312 347.27814Q328.5625 347.4969 328.5625 347.77814Q328.5625 348.2 328.875 348.48126Q329.20312 348.7625 329.8125 348.7625Q330.42188 348.7625 330.89062 348.4969Q331.375 348.23126 331.59375 347.7625Q331.76562 347.40314 331.76562 346.71564L331.76562 346.325ZM337.09375 348.5125L337.25 349.4344Q336.79688 349.52814 336.45312 349.52814Q335.875 349.52814 335.5625 349.35626Q335.25 349.16876 335.10938 348.8719Q334.98438 348.575 334.98438 347.6219L334.98438 344.04376L334.21875 344.04376L334.21875 343.23126L334.98438 343.23126L334.98438 341.6844L336.03125 341.0594L336.03125 343.23126L337.09375 343.23126L337.09375 344.04376L336.03125 344.04376L336.03125 347.6844Q336.03125 348.1375 336.07812 348.2625Q336.14062 348.3875 336.26562 348.46564Q336.39062 348.54376 336.625 348.54376Q336.8125 348.54376 337.09375 348.5125ZM342.04688 347.45L343.14062 347.575Q342.89062 348.52814 342.1875 349.0594Q341.48438 349.59064 340.40625 349.59064Q339.04688 349.59064 338.23438 348.7469Q337.4375 347.90314 337.4375 346.3875Q337.4375 344.825 338.25 343.96564Q339.0625 343.09064 340.34375 343.09064Q341.59375 343.09064 342.375 343.9344Q343.17188 344.77814 343.17188 346.325Q343.17188 346.41876 343.17188 346.60626L338.53125 346.60626Q338.59375 347.6375 339.10938 348.1844Q339.625 348.71564 340.40625 348.71564Q340.98438 348.71564 341.39062 348.41876Q341.8125 348.10626 342.04688 347.45ZM338.59375 345.7469L342.0625 345.7469Q342.0 344.95 341.67188 344.5594Q341.15625 343.95 340.35938 343.95Q339.625 343.95 339.125 344.4344Q338.64062 344.91876 338.59375 345.7469ZM346.8125 351.98126Q345.9375 350.8719 345.32812 349.40314Q344.73438 347.91876 344.73438 346.34064Q344.73438 344.95 345.17188 343.66876Q345.70312 342.1844 346.8125 340.71564L347.5625 340.71564Q346.85938 341.9344 346.625 342.45Q346.26562 343.2625 346.0625 344.1375Q345.8125 345.23126 345.8125 346.34064Q345.8125 349.16876 347.5625 351.98126L346.8125 351.98126ZM348.89062 349.45L348.89062 340.85626L350.60938 340.85626L352.64062 346.9344Q352.92188 347.79376 353.04688 348.21564Q353.1875 347.7469 353.5 346.84064L355.5625 340.85626L357.09375 340.85626L357.09375 349.45L356.0 349.45L356.0 342.2625L353.5 349.45L352.46875 349.45L349.98438 342.1375L349.98438 349.45L348.89062 349.45ZM358.76562 349.45L357.78125 349.45L357.78125 340.85626L358.84375 340.85626L358.84375 343.91876Q359.51562 343.09064 360.54688 343.09064Q361.125 343.09064 361.625 343.325Q362.14062 343.54376 362.46875 343.96564Q362.8125 344.3875 363.0 344.98126Q363.1875 345.575 363.1875 346.2469Q363.1875 347.84064 362.39062 348.71564Q361.59375 349.59064 360.5 349.59064Q359.39062 349.59064 358.76562 348.66876L358.76562 349.45ZM358.75 346.29376Q358.75 347.40314 359.0625 347.90314Q359.5625 348.71564 360.40625 348.71564Q361.09375 348.71564 361.59375 348.1219Q362.10938 347.52814 362.10938 346.325Q362.10938 345.10626 361.625 344.52814Q361.14062 343.95 360.45312 343.95Q359.76562 343.95 359.25 344.5594Q358.75 345.15314 358.75 346.29376ZM364.79688 342.075L364.79688 340.85626L365.85938 340.85626L365.85938 342.075L364.79688 342.075ZM364.79688 349.45L364.79688 343.23126L365.85938 343.23126L365.85938 349.45L364.79688 349.45ZM370.09375 348.5125L370.25 349.4344Q369.79688 349.52814 369.45312 349.52814Q368.875 349.52814 368.5625 349.35626Q368.25 349.16876 368.10938 348.8719Q367.98438 348.575 367.98438 347.6219L367.98438 344.04376L367.21875 344.04376L367.21875 343.23126L367.98438 343.23126L367.98438 341.6844L369.03125 341.0594L369.03125 343.23126L370.09375 343.23126L370.09375 344.04376L369.03125 344.04376L369.03125 347.6844Q369.03125 348.1375 369.07812 348.2625Q369.14062 348.3875 369.26562 348.46564Q369.39062 348.54376 369.625 348.54376Q369.8125 348.54376 370.09375 348.5125ZM370.0 349.59064L372.48438 340.71564L373.32812 340.71564L370.84375 349.59064L370.0 349.59064ZM373.375 347.59064L374.40625 347.4344Q374.5 348.0594 374.89062 348.3875Q375.29688 348.71564 376.03125 348.71564Q376.75 348.71564 377.09375 348.4344Q377.45312 348.1375 377.45312 347.73126Q377.45312 347.3719 377.14062 347.16876Q376.92188 347.02814 376.0625 346.8094Q374.90625 346.5125 374.45312 346.3094Q374.01562 346.09064 373.78125 345.71564Q373.54688 345.34064 373.54688 344.8719Q373.54688 344.46564 373.73438 344.10626Q373.92188 343.7469 374.25 343.5125Q374.5 343.34064 374.92188 343.21564Q375.34375 343.09064 375.84375 343.09064Q376.5625 343.09064 377.10938 343.3094Q377.67188 343.5125 377.9375 343.8719Q378.20312 344.23126 378.29688 344.825L377.26562 344.96564Q377.20312 344.4969 376.85938 344.23126Q376.53125 343.95 375.90625 343.95Q375.1875 343.95 374.875 344.2Q374.5625 344.4344 374.5625 344.7625Q374.5625 344.96564 374.6875 345.1219Q374.82812 345.29376 375.09375 345.40314Q375.25 345.46564 376.03125 345.66876Q377.15625 345.98126 377.59375 346.16876Q378.03125 346.35626 378.28125 346.71564Q378.53125 347.075 378.53125 347.6219Q378.53125 348.15314 378.21875 348.6219Q377.92188 349.075 377.34375 349.34064Q376.76562 349.59064 376.03125 349.59064Q374.8125 349.59064 374.17188 349.09064Q373.54688 348.575 373.375 347.59064ZM381.48438 351.98126L380.73438 351.98126Q382.48438 349.16876 382.48438 346.34064Q382.48438 345.2469 382.23438 344.15314Q382.03125 343.27814 381.67188 342.46564Q381.4375 341.95 380.73438 340.71564L381.48438 340.71564Q382.57812 342.1844 383.10938 343.66876Q383.5625 344.95 383.5625 346.34064Q383.5625 347.91876 382.95312 349.40314Q382.34375 350.8719 381.48438 351.98126Z" fill-rule="nonzero"/><path fill="#4285f4" d="M246.0 56.916668C246.0 56.364384 246.44771 55.916668 247.0 55.916668L257.0 55.916668C257.55228 55.916668 258.0 56.364384 258.0 56.916668L258.0 66.916664C258.0 67.46895 257.55228 67.916664 257.0 67.916664L247.0 67.916664C246.44771 67.916664 246.0 67.46895 246.0 66.916664Z" fill-rule="nonzero"/><path fill="#1a1a1a" d="M266.78125 65.916664L266.78125 59.697914L267.73438 59.697914L267.73438 60.635414Q268.09375 59.979164 268.39062 59.77604Q268.70312 59.55729 269.07812 59.55729Q269.60938 59.55729 270.15625 59.885414L269.79688 60.86979Q269.40625 60.635414 269.03125 60.635414Q268.67188 60.635414 268.39062 60.854164Q268.125 61.05729 268.01562 61.43229Q267.82812 61.99479 267.82812 62.65104L267.82812 65.916664L266.78125 65.916664ZM274.85938 65.15104Q274.26562 65.65104 273.71875 65.854164Q273.1875 66.05729 272.5625 66.05729Q271.53125 66.05729 270.98438 65.55729Q270.4375 65.05729 270.4375 64.27604Q270.4375 63.822914 270.64062 63.447914Q270.84375 63.05729 271.1875 62.83854Q271.53125 62.604164 271.95312 62.49479Q272.25 62.40104 272.89062 62.322914Q274.15625 62.18229 274.76562 61.96354Q274.76562 61.74479 274.76562 61.697914Q274.76562 61.041664 274.46875 60.77604Q274.0625 60.43229 273.26562 60.43229Q272.53125 60.43229 272.17188 60.697914Q271.8125 60.947914 271.64062 61.604164L270.60938 61.46354Q270.75 60.80729 271.07812 60.40104Q271.40625 59.99479 272.01562 59.77604Q272.625 59.55729 273.42188 59.55729Q274.21875 59.55729 274.71875 59.74479Q275.21875 59.93229 275.45312 60.21354Q275.6875 60.49479 275.78125 60.93229Q275.82812 61.197914 275.82812 61.90104L275.82812 63.30729Q275.82812 64.77604 275.89062 65.166664Q275.96875 65.55729 276.17188 65.916664L275.0625 65.916664Q274.90625 65.58854 274.85938 65.15104ZM274.76562 62.791664Q274.1875 63.02604 273.04688 63.197914Q272.39062 63.291664 272.125 63.416664Q271.85938 63.52604 271.70312 63.74479Q271.5625 63.96354 271.5625 64.24479Q271.5625 64.666664 271.875 64.947914Q272.20312 65.229164 272.8125 65.229164Q273.42188 65.229164 273.89062 64.96354Q274.375 64.697914 274.59375 64.229164Q274.76562 63.86979 274.76562 63.18229L274.76562 62.791664ZM280.09375 64.979164L280.25 65.90104Q279.79688 65.99479 279.45312 65.99479Q278.875 65.99479 278.5625 65.822914Q278.25 65.635414 278.10938 65.33854Q277.98438 65.041664 277.98438 64.08854L277.98438 60.510414L277.21875 60.510414L277.21875 59.697914L277.98438 59.697914L277.98438 58.15104L279.03125 57.52604L279.03125 59.697914L280.09375 59.697914L280.09375 60.510414L279.03125 60.510414L279.03125 64.15104Q279.03125 64.604164 279.07812 64.729164Q279.14062 64.854164 279.26562 64.93229Q279.39062 65.010414 279.625 65.010414Q279.8125 65.010414 280.09375 64.979164ZM280.79688 65.916664L280.79688 57.322914L281.84375 57.322914L281.84375 60.40104Q282.57812 59.55729 283.70312 59.55729Q284.40625 59.55729 284.90625 59.83854Q285.42188 60.104164 285.64062 60.58854Q285.85938 61.05729 285.85938 61.979164L285.85938 65.916664L284.8125 65.916664L284.8125 61.979164Q284.8125 61.18229 284.46875 60.822914Q284.125 60.46354 283.5 60.46354Q283.03125 60.46354 282.60938 60.71354Q282.20312 60.947914 282.01562 61.36979Q281.84375 61.77604 281.84375 62.510414L281.84375 65.916664L280.79688 65.916664ZM287.40625 62.80729Q287.40625 61.072914 288.35938 60.24479Q289.15625 59.55729 290.3125 59.55729Q291.59375 59.55729 292.40625 60.40104Q293.23438 61.229164 293.23438 62.71354Q293.23438 63.916664 292.875 64.604164Q292.51562 65.291664 291.8125 65.68229Q291.125 66.05729 290.3125 66.05729Q289.01562 66.05729 288.20312 65.229164Q287.40625 64.385414 287.40625 62.80729ZM288.48438 62.80729Q288.48438 63.99479 289.0 64.58854Q289.53125 65.18229 290.3125 65.18229Q291.10938 65.18229 291.625 64.58854Q292.14062 63.99479 292.14062 62.77604Q292.14062 61.61979 291.60938 61.02604Q291.09375 60.43229 290.3125 60.43229Q289.53125 60.43229 289.0 61.02604Q288.48438 61.604164 288.48438 62.80729ZM294.76562 65.916664L294.76562 57.322914L295.82812 57.322914L295.82812 65.916664L294.76562 65.916664ZM302.04688 63.916664L303.14062 64.041664Q302.89062 64.99479 302.1875 65.52604Q301.48438 66.05729 300.40625 66.05729Q299.04688 66.05729 298.23438 65.21354Q297.4375 64.36979 297.4375 62.854164Q297.4375 61.291664 298.25 60.43229Q299.0625 59.55729 300.34375 59.55729Q301.59375 59.55729 302.375 60.40104Q303.17188 61.24479 303.17188 62.791664Q303.17188 62.885414 303.17188 63.072914L298.53125 63.072914Q298.59375 64.104164 299.10938 64.65104Q299.625 65.18229 300.40625 65.18229Q300.98438 65.18229 301.39062 64.885414Q301.8125 64.572914 302.04688 63.916664ZM298.59375 62.21354L302.0625 62.21354Q302.0 61.416664 301.67188 61.02604Q301.15625 60.416664 300.35938 60.416664Q299.625 60.416664 299.125 60.90104Q298.64062 61.385414 298.59375 62.21354Z" fill-rule="nonzero"/><path fill="#ea4335" d="M320.0 56.916668C320.0 56.364384 320.44772 55.916668 321.0 55.916668L331.0 55.916668C331.55228 55.916668 332.0 56.364384 332.0 56.916668L332.0 66.916664C332.0 67.46895 331.55228 67.916664 331.0 67.916664L321.0 67.916664C320.44772 67.916664 320.0 67.46895 320.0 66.916664Z" fill-rule="nonzero"/><path fill="#1a1a1a" d="M341.04688 65.916664L341.04688 60.510414L340.10938 60.510414L340.10938 59.697914L341.04688 59.697914L341.04688 59.02604Q341.04688 58.40104 341.15625 58.104164Q341.3125 57.68229 341.6875 57.43229Q342.07812 57.18229 342.76562 57.18229Q343.21875 57.18229 343.75 57.291664L343.59375 58.197914Q343.26562 58.15104 342.96875 58.15104Q342.48438 58.15104 342.28125 58.354164Q342.09375 58.55729 342.09375 59.11979L342.09375 59.697914L343.3125 59.697914L343.3125 60.510414L342.09375 60.510414L342.09375 65.916664L341.04688 65.916664ZM343.78125 65.916664L343.78125 59.697914L344.73438 59.697914L344.73438 60.635414Q345.09375 59.979164 345.39062 59.77604Q345.70312 59.55729 346.07812 59.55729Q346.60938 59.55729 347.15625 59.885414L346.79688 60.86979Q346.40625 60.635414 346.03125 60.635414Q345.67188 60.635414 345.39062 60.854164Q345.125 61.05729 345.01562 61.43229Q344.82812 61.99479 344.82812 62.65104L344.82812 65.916664L343.78125 65.916664ZM347.79688 68.30729L347.79688 59.697914L348.75 59.697914L348.75 60.49479Q349.09375 60.02604 349.51562 59.791664Q349.95312 59.55729 350.5625 59.55729Q351.35938 59.55729 351.96875 59.96354Q352.57812 60.36979 352.875 61.11979Q353.1875 61.86979 353.1875 62.760414Q353.1875 63.71354 352.84375 64.479164Q352.51562 65.24479 351.85938 65.65104Q351.20312 66.05729 350.48438 66.05729Q349.95312 66.05729 349.53125 65.83854Q349.10938 65.604164 348.84375 65.27604L348.84375 68.30729L347.79688 68.30729ZM348.75 62.83854Q348.75 64.041664 349.23438 64.61979Q349.71875 65.18229 350.40625 65.18229Q351.10938 65.18229 351.60938 64.58854Q352.10938 63.99479 352.10938 62.74479Q352.10938 61.55729 351.625 60.979164Q351.14062 60.385414 350.45312 60.385414Q349.78125 60.385414 349.26562 61.010414Q348.75 61.635414 348.75 62.83854Z" fill-rule="nonzero"/><path fill="#757575" d="M23.7375 37.55L23.7375 24.925L19.01875 24.925L19.01875 23.2375L30.3625 23.2375L30.3625 24.925L25.628124 24.925L25.628124 37.55L23.7375 37.55ZM42.315624 32.534374L44.20625 33.003124Q43.6125 35.346874 42.065624 36.58125Q40.51875 37.8 38.26875 37.8Q35.95625 37.8 34.503124 36.8625Q33.065624 35.909374 32.3 34.128124Q31.55 32.33125 31.55 30.284374Q31.55 28.05 32.39375 26.39375Q33.253124 24.721874 34.83125 23.8625Q36.409374 22.9875 38.3 22.9875Q40.45625 22.9875 41.909374 24.08125Q43.378124 25.175 43.95625 27.159374L42.096874 27.596874Q41.596874 26.034374 40.64375 25.33125Q39.70625 24.6125 38.26875 24.6125Q36.6125 24.6125 35.503124 25.409374Q34.39375 26.190624 33.940624 27.534374Q33.503124 28.8625 33.503124 30.26875Q33.503124 32.096874 34.034374 33.471874Q34.565624 34.83125 35.690624 35.503124Q36.815624 36.175 38.1125 36.175Q39.70625 36.175 40.815624 35.253124Q41.925 34.33125 42.315624 32.534374ZM46.096874 37.55L46.096874 23.2375L51.4875 23.2375Q52.925 23.2375 53.675 23.3625Q54.721874 23.55 55.440624 24.05Q56.159374 24.534374 56.58125 25.425Q57.01875 26.315624 57.01875 27.378124Q57.01875 29.20625 55.846874 30.471874Q54.690624 31.721874 51.659374 31.721874L47.9875 31.721874L47.9875 37.55L46.096874 37.55ZM47.9875 30.034374L51.690624 30.034374Q53.51875 30.034374 54.284374 29.3625Q55.065624 28.675 55.065624 27.425Q55.065624 26.534374 54.6125 25.89375Q54.159374 25.253124 53.425 25.05Q52.940624 24.925 51.64375 24.925L47.9875 24.925L47.9875 30.034374ZM65.01875 37.55L65.01875 23.2375L70.39375 23.2375Q72.03438 23.2375 73.01875 23.675Q74.00313 24.096874 74.56563 25.003124Q75.12813 25.909374 75.12813 26.89375Q75.12813 27.815624 74.62813 28.628124Q74.14375 29.440624 73.12813 29.925Q74.425 30.315624 75.12813 31.2375Q75.83125 32.14375 75.83125 33.39375Q75.83125 34.409374 75.39375 35.26875Q74.97188 36.128124 74.34688 36.596874Q73.72188 37.065624 72.78438 37.315624Q71.84688 37.55 70.47188 37.55L65.01875 37.55ZM66.90938 29.253124L70.00313 29.253124Q71.26875 29.253124 71.81563 29.08125Q72.53438 28.8625 72.89375 28.378124Q73.26875 27.878124 73.26875 27.1125Q73.26875 26.409374 72.925 25.8625Q72.58125 25.315624 71.94063 25.128124Q71.31563 24.925 69.76875 24.925L66.90938 24.925L66.90938 29.253124ZM66.90938 35.8625L70.47188 35.8625Q71.39375 35.8625 71.76875 35.784374Q72.425 35.675 72.8625 35.409374Q73.3 35.128124 73.58125 34.6125Q73.8625 34.08125 73.8625 33.39375Q73.8625 32.596874 73.45625 32.003124Q73.05 31.409374 72.31563 31.175Q71.58125 30.940624 70.22188 30.940624L66.90938 30.940624L66.90938 35.8625ZM77.87813 25.253124L77.87813 23.2375L79.64375 23.2375L79.64375 25.253124L77.87813 25.253124ZM77.87813 37.55L77.87813 27.175L79.64375 27.175L79.64375 37.55L77.87813 37.55ZM85.70625 35.971874L85.95625 37.534374Q85.22188 37.690624 84.62813 37.690624Q83.675 37.690624 83.14375 37.39375Q82.62813 37.08125 82.40938 36.596874Q82.19063 36.096874 82.19063 34.51875L82.19063 28.55L80.90938 28.55L80.90938 27.175L82.19063 27.175L82.19063 24.6125L83.94063 23.55L83.94063 27.175L85.70625 27.175L85.70625 28.55L83.94063 28.55L83.94063 34.6125Q83.94063 35.3625 84.03438 35.58125Q84.12813 35.784374 84.33125 35.925Q84.55 36.05 84.94063 36.05Q85.22188 36.05 85.70625 35.971874ZM87.84688 37.55L87.84688 27.175L89.425 27.175L89.425 28.753124Q90.03438 27.64375 90.55 27.3Q91.06563 26.940624 91.675 26.940624Q92.56563 26.940624 93.4875 27.503124L92.87813 29.14375Q92.2375 28.753124 91.59688 28.753124Q91.01875 28.753124 90.55 29.1125Q90.09688 29.45625 89.89375 30.065624Q89.6125 31.003124 89.6125 32.1125L89.6125 37.55L87.84688 37.55ZM101.64375 36.26875Q100.65938 37.096874 99.75313 37.440624Q98.84688 37.784374 97.81563 37.784374Q96.1125 37.784374 95.19063 36.95625Q94.26875 36.1125 94.26875 34.815624Q94.26875 34.05 94.6125 33.425Q94.97188 32.8 95.53438 32.425Q96.09688 32.034374 96.8 31.83125Q97.31563 31.70625 98.3625 31.565624Q100.4875 31.315624 101.4875 30.971874Q101.50313 30.6125 101.50313 30.503124Q101.50313 29.440624 101.00313 28.9875Q100.33125 28.39375 99.00313 28.39375Q97.75313 28.39375 97.15938 28.83125Q96.58125 29.26875 96.3 30.378124L94.58125 30.14375Q94.81563 29.034374 95.34688 28.3625Q95.87813 27.675 96.89375 27.315624Q97.90938 26.940624 99.25313 26.940624Q100.58125 26.940624 101.40938 27.253124Q102.2375 27.565624 102.62813 28.05Q103.01875 28.51875 103.175 29.2375Q103.26875 29.690624 103.26875 30.8625L103.26875 33.20625Q103.26875 35.659374 103.37813 36.315624Q103.4875 36.95625 103.83125 37.55L101.9875 37.55Q101.72188 37.003124 101.64375 36.26875ZM101.4875 32.346874Q100.53438 32.7375 98.6125 33.003124Q97.53438 33.159374 97.08125 33.3625Q96.64375 33.55 96.39375 33.925Q96.14375 34.3 96.14375 34.76875Q96.14375 35.471874 96.675 35.940624Q97.20625 36.409374 98.2375 36.409374Q99.25313 36.409374 100.03438 35.971874Q100.83125 35.51875 101.20625 34.753124Q101.4875 34.14375 101.4875 32.9875L101.4875 32.346874ZM109.70625 35.971874L109.95625 37.534374Q109.22188 37.690624 108.62813 37.690624Q107.675 37.690624 107.14375 37.39375Q106.62813 37.08125 106.40938 36.596874Q106.19063 36.096874 106.19063 34.51875L106.19063 28.55L104.90938 28.55L104.90938 27.175L106.19063 27.175L106.19063 24.6125L107.94063 23.55L107.94063 27.175L109.70625 27.175L109.70625 28.55L107.94063 28.55L107.94063 34.6125Q107.94063 35.3625 108.03438 35.58125Q108.12813 35.784374 108.33125 35.925Q108.55 36.05 108.94063 36.05Q109.22188 36.05 109.70625 35.971874ZM118.97188 34.20625L120.78438 34.440624Q120.3625 36.01875 119.19063 36.909374Q118.03438 37.784374 116.22188 37.784374Q113.95625 37.784374 112.6125 36.39375Q111.28438 34.9875 111.28438 32.45625Q111.28438 29.83125 112.62813 28.39375Q113.97188 26.940624 116.12813 26.940624Q118.20625 26.940624 119.51875 28.3625Q120.84688 29.76875 120.84688 32.346874Q120.84688 32.503124 120.83125 32.815624L113.09688 32.815624Q113.19063 34.51875 114.06563 35.425Q114.94063 36.33125 116.2375 36.33125Q117.20625 36.33125 117.87813 35.83125Q118.56563 35.315624 118.97188 34.20625ZM113.19063 31.3625L118.9875 31.3625Q118.87813 30.065624 118.33125 29.409374Q117.4875 28.39375 116.14375 28.39375Q114.94063 28.39375 114.1125 29.20625Q113.28438 30.003124 113.19063 31.3625ZM126.22188 41.753124Q124.76875 39.925 123.76875 37.471874Q122.76875 35.003124 122.76875 32.3625Q122.76875 30.034374 123.51875 27.909374Q124.39375 25.440624 126.22188 22.9875L127.4875 22.9875Q126.3 25.01875 125.925 25.89375Q125.33125 27.2375 124.9875 28.70625Q124.56563 30.534374 124.56563 32.378124Q124.56563 37.065624 127.4875 41.753124L126.22188 41.753124ZM130.03438 37.55L130.03438 23.2375L132.89375 23.2375L136.26875 33.3625Q136.7375 34.784374 136.95625 35.4875Q137.20625 34.70625 137.72188 33.190624L141.14375 23.2375L143.69063 23.2375L143.69063 37.55L141.87813 37.55L141.87813 25.565624L137.70625 37.55L136.00313 37.55L131.8625 25.3625L131.8625 37.55L130.03438 37.55ZM148.4875 37.55L146.8625 37.55L146.8625 23.2375L148.6125 23.2375L148.6125 28.346874Q149.7375 26.940624 151.45625 26.940624Q152.40938 26.940624 153.26875 27.33125Q154.12813 27.721874 154.675 28.425Q155.22188 29.1125 155.53438 30.096874Q155.84688 31.08125 155.84688 32.20625Q155.84688 34.878124 154.53438 36.33125Q153.22188 37.784374 151.37813 37.784374Q149.53438 37.784374 148.4875 36.253124L148.4875 37.55ZM148.47188 32.284374Q148.47188 34.14375 148.97188 34.9875Q149.81563 36.33125 151.22188 36.33125Q152.37813 36.33125 153.20625 35.33125Q154.05 34.33125 154.05 32.346874Q154.05 30.315624 153.2375 29.3625Q152.44063 28.39375 151.3 28.39375Q150.14375 28.39375 149.3 29.39375Q148.47188 30.39375 148.47188 32.284374ZM157.87813 25.253124L157.87813 23.2375L159.64375 23.2375L159.64375 25.253124L157.87813 25.253124ZM157.87813 37.55L157.87813 27.175L159.64375 27.175L159.64375 37.55L157.87813 37.55ZM165.70625 35.971874L165.95625 37.534374Q165.22188 37.690624 164.62813 37.690624Q163.675 37.690624 163.14375 37.39375Q162.62813 37.08125 162.40938 36.596874Q162.19063 36.096874 162.19063 34.51875L162.19063 28.55L160.90938 28.55L160.90938 27.175L162.19063 27.175L162.19063 24.6125L163.94063 23.55L163.94063 27.175L165.70625 27.175L165.70625 28.55L163.94063 28.55L163.94063 34.6125Q163.94063 35.3625 164.03438 35.58125Q164.12813 35.784374 164.33125 35.925Q164.55 36.05 164.94063 36.05Q165.22188 36.05 165.70625 35.971874ZM166.55 37.8L170.70625 22.9875L172.1125 22.9875L167.97188 37.8L166.55 37.8ZM173.15938 34.45625L174.90938 34.175Q175.05 35.221874 175.72188 35.784374Q176.39375 36.33125 177.59688 36.33125Q178.8 36.33125 179.37813 35.846874Q179.97188 35.346874 179.97188 34.690624Q179.97188 34.096874 179.45625 33.753124Q179.09688 33.51875 177.65938 33.159374Q175.72188 32.659374 174.97188 32.315624Q174.2375 31.95625 173.84688 31.33125Q173.45625 30.690624 173.45625 29.925Q173.45625 29.2375 173.76875 28.64375Q174.09688 28.05 174.64375 27.659374Q175.05 27.3625 175.75313 27.159374Q176.47188 26.940624 177.28438 26.940624Q178.50313 26.940624 179.425 27.3Q180.34688 27.64375 180.78438 28.253124Q181.22188 28.846874 181.39375 29.846874L179.675 30.08125Q179.55 29.284374 178.9875 28.846874Q178.425 28.39375 177.40938 28.39375Q176.19063 28.39375 175.675 28.8Q175.15938 29.190624 175.15938 29.721874Q175.15938 30.065624 175.37813 30.346874Q175.58125 30.628124 176.05 30.815624Q176.31563 30.909374 177.59688 31.253124Q179.47188 31.753124 180.20625 32.08125Q180.94063 32.39375 181.3625 33.003124Q181.78438 33.596874 181.78438 34.503124Q181.78438 35.378124 181.26875 36.159374Q180.75313 36.940624 179.78438 37.3625Q178.81563 37.784374 177.59688 37.784374Q175.58125 37.784374 174.51875 36.940624Q173.45625 36.096874 173.15938 34.45625ZM185.01875 41.753124L183.76875 41.753124Q186.675 37.065624 186.675 32.378124Q186.675 30.534374 186.26875 28.7375Q185.925 27.26875 185.33125 25.925Q184.95625 25.034374 183.76875 22.9875L185.01875 22.9875Q186.8625 25.440624 187.7375 27.909374Q188.4875 30.034374 188.4875 32.3625Q188.4875 35.003124 187.47188 37.471874Q186.47188 39.925 185.01875 41.753124Z" fill-rule="nonzero"/></svg>