<svg version="1.1" viewBox="0.0 0.0 600.0 371.0" fill="none" stroke="none" stroke-linecap="square" stroke-miterlimit="10" width="600" height="371" xmlns:xlink="http://www.w3.org/1999/xlink" xmlns="http://www.w3.org/2000/svg"><path fill="#ffffff" d="M0 0L600.0 0L600.0 371.0L0 371.0L0 0Z" fill-rule="nonzero"/><path stroke="#333333" stroke-width="1.0" stroke-linecap="butt" d="M77.5 332.5L581.5 332.5" fill-rule="nonzero"/><path stroke="#cccccc" stroke-width="1.0" stroke-linecap="butt" d="M77.5 283.5L581.5 283.5" fill-rule="nonzero"/><path stroke="#cccccc" stroke-width="1.0" stroke-linecap="butt" d="M77.5 234.5L581.5 234.5" fill-rule="nonzero"/><path stroke="#cccccc" stroke-width="1.0" stroke-linecap="butt" d="M77.5 185.5L581.5 185.5" fill-rule="nonzero"/><path stroke="#cccccc" stroke-width="1.0" stroke-linecap="butt" d="M77.5 137.5L581.5 137.5" fill-rule="nonzero"/><path stroke="#cccccc" stroke-width="1.0" stroke-linecap="butt" d="M77.5 88.5L581.5 88.5" fill-rule="nonzero"/><clipPath id="id_0"><path d="M77.55 88.28333L581.45 88.28333L581.45 332.45L77.55 332.45L77.55 88.28333Z" clip-rule="nonzero"/></clipPath><path stroke="#000000" stroke-width="2.0" stroke-linecap="butt" stroke-opacity="0.0" clip-path="url(#id_0)" d="M329.0 332.0L210.0 332.0L210.0 123.0C210.0 121.89543 210.89543 121.0 212.0 121.0L327.0 121.0C328.10458 121.0 329.0 121.89543 329.0 123.0Z" fill-rule="nonzero"/><path fill="#4285f4" clip-path="url(#id_0)" d="M329.0 332.0L210.0 332.0L210.0 123.0C210.0 121.89543 210.89543 121.0 212.0 121.0L327.0 121.0C328.10458 121.0 329.0 121.89543 329.0 123.0Z" fill-rule="nonzero"/><path stroke="#000000" stroke-width="2.0" stroke-linecap="butt" stroke-opacity="0.0" clip-path="url(#id_0)" d="M450.0 332.0L331.0 332.0L331.0 262.0C331.0 260.89542 331.89542 260.0 333.0 260.0L448.0 260.0C449.10458 260.0 450.0 260.89542 450.0 262.0Z" fill-rule="nonzero"/><path fill="#ea4335" clip-path="url(#id_0)" d="M450.0 332.0L331.0 332.0L331.0 262.0C331.0 260.89542 331.89542 260.0 333.0 260.0L448.0 260.0C449.10458 260.0 450.0 260.89542 450.0 262.0Z" fill-rule="nonzero"/><path stroke="#4285f4" stroke-width="3.0" stroke-linejoin="round" stroke-linecap="round" d="M265.29688 137.31334L259.70312 137.31334L259.70312 136.53209L262.65625 133.25084Q263.3125 132.50084 263.5625 132.04771Q263.8125 131.57896 263.8125 131.07896Q263.8125 130.40709 263.40625 129.98521Q263.01562 129.54771 262.32812 129.54771Q261.53125 129.54771 261.07812 130.01646Q260.625 130.46959 260.625 131.29771L259.54688 131.29771Q259.54688 130.11021 260.29688 129.39146Q261.0625 128.65709 262.32812 128.65709Q263.53125 128.65709 264.21875 129.28209Q264.90625 129.90709 264.90625 130.95396Q264.90625 132.20396 263.29688 133.95396L261.01562 136.42271L265.29688 136.42271L265.29688 137.31334ZM270.26562 137.31334L269.1875 137.31334L269.1875 130.09459L267.0 130.89146L267.0 129.90709L270.10938 128.73521L270.26562 128.73521L270.26562 137.31334ZM279.21875 129.39146L275.6875 137.31334L274.54688 137.31334L278.0625 129.67271L273.45312 129.67271L273.45312 128.78209L279.21875 128.78209L279.21875 129.39146Z" fill-rule="nonzero"/><path fill="#ffffff" d="M265.29688 137.31334L259.70312 137.31334L259.70312 136.53209L262.65625 133.25084Q263.3125 132.50084 263.5625 132.04771Q263.8125 131.57896 263.8125 131.07896Q263.8125 130.40709 263.40625 129.98521Q263.01562 129.54771 262.32812 129.54771Q261.53125 129.54771 261.07812 130.01646Q260.625 130.46959 260.625 131.29771L259.54688 131.29771Q259.54688 130.11021 260.29688 129.39146Q261.0625 128.65709 262.32812 128.65709Q263.53125 128.65709 264.21875 129.28209Q264.90625 129.90709 264.90625 130.95396Q264.90625 132.20396 263.29688 133.95396L261.01562 136.42271L265.29688 136.42271L265.29688 137.31334ZM270.26562 137.31334L269.1875 137.31334L269.1875 130.09459L267.0 130.89146L267.0 129.90709L270.10938 128.73521L270.26562 128.73521L270.26562 137.31334ZM279.21875 129.39146L275.6875 137.31334L274.54688 137.31334L278.0625 129.67271L273.45312 129.67271L273.45312 128.78209L279.21875 128.78209L279.21875 129.39146Z" fill-rule="nonzero"/><path stroke="#ea4335" stroke-width="3.0" stroke-linejoin="round" stroke-linecap="round" d="M384.71875 268.95712L381.1875 276.879L380.04688 276.879L383.5625 269.23837L378.95312 269.23837L378.95312 268.34775L384.71875 268.34775L384.71875 268.95712ZM390.78125 274.01962L391.96875 274.01962L391.96875 274.89462L390.78125 274.89462L390.78125 276.879L389.70312 276.879L389.70312 274.89462L385.8125 274.89462L385.8125 274.254L389.625 268.34775L390.78125 268.34775L390.78125 274.01962ZM387.04688 274.01962L389.70312 274.01962L389.70312 269.83212L389.5625 270.0665L387.04688 274.01962ZM393.34375 276.3165Q393.34375 276.03525 393.5 275.84775Q393.67188 275.66025 394.0 275.66025Q394.34375 275.66025 394.51562 275.84775Q394.6875 276.03525 394.6875 276.3165Q394.6875 276.58212 394.51562 276.76962Q394.34375 276.9415 394.0 276.9415Q393.67188 276.9415 393.5 276.76962Q393.34375 276.58212 393.34375 276.3165ZM399.76562 276.879L398.6875 276.879L398.6875 269.66025L396.5 270.45712L396.5 269.47275L399.60938 268.30087L399.76562 268.30087L399.76562 276.879Z" fill-rule="nonzero"/><path fill="#ffffff" d="M384.71875 268.95712L381.1875 276.879L380.04688 276.879L383.5625 269.23837L378.95312 269.23837L378.95312 268.34775L384.71875 268.34775L384.71875 268.95712ZM390.78125 274.01962L391.96875 274.01962L391.96875 274.89462L390.78125 274.89462L390.78125 276.879L389.70312 276.879L389.70312 274.89462L385.8125 274.89462L385.8125 274.254L389.625 268.34775L390.78125 268.34775L390.78125 274.01962ZM387.04688 274.01962L389.70312 274.01962L389.70312 269.83212L389.5625 270.0665L387.04688 274.01962ZM393.34375 276.3165Q393.34375 276.03525 393.5 275.84775Q393.67188 275.66025 394.0 275.66025Q394.34375 275.66025 394.51562 275.84775Q394.6875 276.03525 394.6875 276.3165Q394.6875 276.58212 394.51562 276.76962Q394.34375 276.9415 394.0 276.9415Q393.67188 276.9415 393.5 276.76962Q393.34375 276.58212 393.34375 276.3165ZM399.76562 276.879L398.6875 276.879L398.6875 269.66025L396.5 270.45712L396.5 269.47275L399.60938 268.30087L399.76562 268.30087L399.76562 276.879Z" fill-rule="nonzero"/><path fill="#000000" d="M20.956263 262.30417L20.956263 261.16354L25.925013 261.16354Q27.221888 261.16354 27.987513 261.46042Q28.737513 261.7573 29.221888 262.52292Q29.690638 263.28854 29.690638 264.52292Q29.690638 265.72604 29.284388 266.5073Q28.862513 267.27292 28.081263 267.60104Q27.284388 267.92917 25.925013 267.92917L20.956263 267.92917L20.956263 266.78854L25.909388 266.78854Q27.034388 266.78854 27.565638 266.58542Q28.096888 266.36667 28.393763 265.86667Q28.675013 265.35104 28.675013 264.61667Q28.675013 263.36667 28.112513 262.83542Q27.534388 262.30417 25.909388 262.30417L20.956263 262.30417ZM29.550013 258.9448L20.956263 258.9448L20.956263 255.97604Q20.956263 254.97604 21.081263 254.4448Q21.253138 253.71042 21.690638 253.1948Q22.268763 252.5073 23.175013 252.17917Q24.065638 251.83542 25.206263 251.83542Q26.190638 251.83542 26.940638 252.0698Q27.690638 252.28854 28.190638 252.64792Q28.690638 253.0073 28.971888 253.4448Q29.253138 253.86667 29.409388 254.46042Q29.550013 255.05417 29.550013 255.83542L29.550013 258.9448ZM28.534388 257.80417L28.534388 255.97604Q28.534388 255.11667 28.378138 254.6323Q28.221888 254.14792 27.925013 253.86667Q27.534388 253.46042 26.846888 253.24167Q26.159388 253.0073 25.190638 253.0073Q23.846888 253.0073 23.128138 253.46042Q22.393763 253.89792 22.143763 254.52292Q21.971888 254.99167 21.971888 255.99167L21.971888 257.80417L28.534388 257.80417ZM29.550013 249.9448L20.956263 249.9448L20.956263 246.6948Q20.956263 245.85104 21.034388 245.39792Q21.143763 244.7573 21.440638 244.33542Q21.737513 243.89792 22.268763 243.64792Q22.800013 243.3823 23.440638 243.3823Q24.534388 243.3823 25.300013 244.08542Q26.050013 244.77292 26.050013 246.60104L26.050013 248.80417L29.550013 248.80417L29.550013 249.9448ZM25.050013 248.80417L25.050013 246.58542Q25.050013 245.47604 24.643763 245.02292Q24.221888 244.55417 23.471888 244.55417Q22.940638 244.55417 22.565638 244.83542Q22.175013 245.10104 22.050013 245.53854Q21.971888 245.83542 21.971888 246.60104L21.971888 248.80417L25.050013 248.80417ZM29.550013 238.99167L20.956263 238.99167L20.956263 235.7573Q20.956263 234.77292 21.221888 234.17917Q21.487513 233.58542 22.034388 233.2573Q22.565638 232.91354 23.159388 232.91354Q23.706263 232.91354 24.190638 233.21042Q24.675013 233.5073 24.971888 234.11667Q25.206263 233.33542 25.768763 232.92917Q26.315638 232.5073 27.065638 232.5073Q27.659388 232.5073 28.190638 232.7573Q28.706263 233.0073 28.987513 233.3823Q29.268763 233.7573 29.409388 234.33542Q29.550013 234.89792 29.550013 235.71042L29.550013 238.99167ZM24.565638 237.85104L24.565638 235.99167Q24.565638 235.24167 24.471888 234.91354Q24.346888 234.47604 24.050013 234.2573Q23.737513 234.03854 23.284388 234.03854Q22.862513 234.03854 22.534388 234.24167Q22.206263 234.4448 22.096888 234.83542Q21.971888 235.21042 21.971888 236.1323L21.971888 237.85104L24.565638 237.85104ZM28.534388 237.85104L28.534388 235.71042Q28.534388 235.16354 28.487513 234.9448Q28.425013 234.53854 28.268763 234.28854Q28.096888 234.02292 27.784388 233.85104Q27.471888 233.67917 27.065638 233.67917Q26.581263 233.67917 26.221888 233.92917Q25.862513 234.16354 25.721888 234.60104Q25.581263 235.03854 25.581263 235.86667L25.581263 237.85104L28.534388 237.85104ZM22.175013 231.0698L20.956263 231.0698L20.956263 230.0073L22.175013 230.0073L22.175013 231.0698ZM29.550013 231.0698L23.331263 231.0698L23.331263 230.0073L29.550013 230.0073L29.550013 231.0698ZM28.612513 225.77292L29.534388 225.61667Q29.628138 226.0698 29.628138 226.41354Q29.628138 226.99167 29.456263 227.30417Q29.268763 227.61667 28.971888 227.7573Q28.675013 227.8823 27.721888 227.8823L24.143763 227.8823L24.143763 228.64792L23.331263 228.64792L23.331263 227.8823L21.784388 227.8823L21.159388 226.83542L23.331263 226.83542L23.331263 225.77292L24.143763 225.77292L24.143763 226.83542L27.784388 226.83542Q28.237513 226.83542 28.362513 226.78854Q28.487513 226.72604 28.565638 226.60104Q28.643763 226.47604 28.643763 226.24167Q28.643763 226.05417 28.612513 225.77292ZM29.550013 225.08542L23.331263 225.08542L23.331263 224.1323L24.268763 224.1323Q23.612513 223.77292 23.409388 223.47604Q23.190638 223.16354 23.190638 222.78854Q23.190638 222.2573 23.518763 221.71042L24.503138 222.0698Q24.268763 222.46042 24.268763 222.83542Q24.268763 223.1948 24.487513 223.47604Q24.690638 223.74167 25.065638 223.85104Q25.628138 224.03854 26.284388 224.03854L29.550013 224.03854L29.550013 225.08542ZM28.784388 217.0073Q29.284388 217.60104 29.487513 218.14792Q29.690638 218.67917 29.690638 219.30417Q29.690638 220.33542 29.190638 220.8823Q28.690638 221.42917 27.909388 221.42917Q27.456263 221.42917 27.081263 221.22604Q26.690638 221.02292 26.471888 220.67917Q26.237513 220.33542 26.128138 219.91354Q26.034388 219.61667 25.956263 218.97604Q25.815638 217.71042 25.596888 217.10104Q25.378138 217.10104 25.331263 217.10104Q24.675013 217.10104 24.409388 217.39792Q24.065638 217.80417 24.065638 218.60104Q24.065638 219.33542 24.331263 219.6948Q24.581263 220.05417 25.237513 220.22604L25.096888 221.2573Q24.440638 221.11667 24.034388 220.78854Q23.628138 220.46042 23.409388 219.85104Q23.190638 219.24167 23.190638 218.4448Q23.190638 217.64792 23.378138 217.14792Q23.565638 216.64792 23.846888 216.41354Q24.128138 216.17917 24.565638 216.08542Q24.831263 216.03854 25.534388 216.03854L26.940638 216.03854Q28.409388 216.03854 28.800013 215.97604Q29.190638 215.89792 29.550013 215.6948L29.550013 216.80417Q29.221888 216.96042 28.784388 217.0073ZM26.425013 217.10104Q26.659388 217.67917 26.831263 218.8198Q26.925013 219.47604 27.050013 219.74167Q27.159388 220.0073 27.378138 220.16354Q27.596888 220.30417 27.878138 220.30417Q28.300013 220.30417 28.581263 219.99167Q28.862513 219.66354 28.862513 219.05417Q28.862513 218.4448 28.596888 217.97604Q28.331263 217.49167 27.862513 217.27292Q27.503138 217.10104 26.815638 217.10104L26.425013 217.10104ZM28.612513 211.77292L29.534388 211.61667Q29.628138 212.0698 29.628138 212.41354Q29.628138 212.99167 29.456263 213.30417Q29.268763 213.61667 28.971888 213.7573Q28.675013 213.8823 27.721888 213.8823L24.143763 213.8823L24.143763 214.64792L23.331263 214.64792L23.331263 213.8823L21.784388 213.8823L21.159388 212.83542L23.331263 212.83542L23.331263 211.77292L24.143763 211.77292L24.143763 212.83542L27.784388 212.83542Q28.237513 212.83542 28.362513 212.78854Q28.487513 212.72604 28.565638 212.60104Q28.643763 212.47604 28.643763 212.24167Q28.643763 212.05417 28.612513 211.77292ZM27.550013 206.8198L27.675013 205.72604Q28.628138 205.97604 29.159388 206.67917Q29.690638 207.3823 29.690638 208.46042Q29.690638 209.8198 28.846888 210.6323Q28.003138 211.42917 26.487513 211.42917Q24.925013 211.42917 24.065638 210.61667Q23.190638 209.80417 23.190638 208.52292Q23.190638 207.27292 24.034388 206.49167Q24.878138 205.6948 26.425013 205.6948Q26.518763 205.6948 26.706263 205.6948L26.706263 210.33542Q27.737513 210.27292 28.284388 209.7573Q28.815638 209.24167 28.815638 208.46042Q28.815638 207.8823 28.518763 207.47604Q28.206263 207.05417 27.550013 206.8198ZM25.846888 210.27292L25.846888 206.80417Q25.050013 206.86667 24.659388 207.1948Q24.050013 207.71042 24.050013 208.5073Q24.050013 209.24167 24.534388 209.74167Q25.018763 210.22604 25.846888 210.27292ZM32.08126 202.05417Q30.971888 202.92917 29.503138 203.53854Q28.018763 204.1323 26.440638 204.1323Q25.050013 204.1323 23.768763 203.6948Q22.284388 203.16354 20.815638 202.05417L20.815638 201.30417Q22.034388 202.0073 22.550013 202.24167Q23.362513 202.60104 24.237513 202.80417Q25.331263 203.05417 26.440638 203.05417Q29.268763 203.05417 32.08126 201.30417L32.08126 202.05417ZM29.550013 199.97604L20.956263 199.97604L20.956263 198.2573L27.034388 196.22604Q27.893763 195.9448 28.315638 195.8198Q27.846888 195.67917 26.940638 195.36667L20.956263 193.30417L20.956263 191.77292L29.550013 191.77292L29.550013 192.86667L22.362513 192.86667L29.550013 195.36667L29.550013 196.39792L22.237513 198.8823L29.550013 198.8823L29.550013 199.97604ZM29.550013 190.10104L29.550013 191.08542L20.956263 191.08542L20.956263 190.02292L24.018763 190.02292Q23.190638 189.35104 23.190638 188.3198Q23.190638 187.74167 23.425013 187.24167Q23.643763 186.72604 24.065638 186.39792Q24.487513 186.05417 25.081263 185.86667Q25.675013 185.67917 26.346888 185.67917Q27.940638 185.67917 28.815638 186.47604Q29.690638 187.27292 29.690638 188.36667Q29.690638 189.47604 28.768763 190.10104L29.550013 190.10104ZM26.393763 190.11667Q27.503138 190.11667 28.003138 189.80417Q28.815638 189.30417 28.815638 188.46042Q28.815638 187.77292 28.221888 187.27292Q27.628138 186.7573 26.425013 186.7573Q25.206263 186.7573 24.628138 187.24167Q24.050013 187.72604 24.050013 188.41354Q24.050013 189.10104 24.659388 189.61667Q25.253138 190.11667 26.393763 190.11667ZM22.175013 184.0698L20.956263 184.0698L20.956263 183.0073L22.175013 183.0073L22.175013 184.0698ZM29.550013 184.0698L23.331263 184.0698L23.331263 183.0073L29.550013 183.0073L29.550013 184.0698ZM28.612513 178.77292L29.534388 178.61667Q29.628138 179.0698 29.628138 179.41354Q29.628138 179.99167 29.456263 180.30417Q29.268763 180.61667 28.971888 180.7573Q28.675013 180.8823 27.721888 180.8823L24.143763 180.8823L24.143763 181.64792L23.331263 181.64792L23.331263 180.8823L21.784388 180.8823L21.159388 179.83542L23.331263 179.83542L23.331263 178.77292L24.143763 178.77292L24.143763 179.83542L27.784388 179.83542Q28.237513 179.83542 28.362513 179.78854Q28.487513 179.72604 28.565638 179.60104Q28.643763 179.47604 28.643763 179.24167Q28.643763 179.05417 28.612513 178.77292ZM29.690638 178.86667L20.815638 176.3823L20.815638 175.53854L29.690638 178.02292L29.690638 178.86667ZM27.690638 175.49167L27.534388 174.46042Q28.159388 174.36667 28.487513 173.97604Q28.815638 173.5698 28.815638 172.83542Q28.815638 172.11667 28.534388 171.77292Q28.237513 171.41354 27.831263 171.41354Q27.471888 171.41354 27.268763 171.72604Q27.128138 171.9448 26.909388 172.80417Q26.612513 173.96042 26.409388 174.41354Q26.190638 174.85104 25.815638 175.08542Q25.440638 175.3198 24.971888 175.3198Q24.565638 175.3198 24.206263 175.1323Q23.846888 174.9448 23.612513 174.61667Q23.440638 174.36667 23.315638 173.9448Q23.190638 173.52292 23.190638 173.02292Q23.190638 172.30417 23.409388 171.7573Q23.612513 171.1948 23.971888 170.92917Q24.331263 170.66354 24.925013 170.5698L25.065638 171.60104Q24.596888 171.66354 24.331263 172.0073Q24.050013 172.33542 24.050013 172.96042Q24.050013 173.67917 24.300013 173.99167Q24.534388 174.30417 24.862513 174.30417Q25.065638 174.30417 25.221888 174.17917Q25.393763 174.03854 25.503138 173.77292Q25.565638 173.61667 25.768763 172.83542Q26.081263 171.71042 26.268763 171.27292Q26.456263 170.83542 26.815638 170.58542Q27.175013 170.33542 27.721888 170.33542Q28.253138 170.33542 28.721888 170.64792Q29.175013 170.9448 29.440638 171.52292Q29.690638 172.10104 29.690638 172.83542Q29.690638 174.05417 29.190638 174.6948Q28.675013 175.3198 27.690638 175.49167ZM32.08126 167.3823L32.08126 168.1323Q29.268763 166.3823 26.440638 166.3823Q25.346888 166.3823 24.253138 166.6323Q23.378138 166.83542 22.565638 167.1948Q22.050013 167.42917 20.815638 168.1323L20.815638 167.3823Q22.284388 166.28854 23.768763 165.7573Q25.050013 165.30417 26.440638 165.30417Q28.018763 165.30417 29.503138 165.91354Q30.971888 166.52292 32.08126 167.3823Z" fill-rule="nonzero"/><path fill="#000000" d="M65.05 332.21564Q65.05 330.6844 65.3625 329.7625Q65.675 328.825 66.28438 328.325Q66.90938 327.825 67.84688 327.825Q68.53438 327.825 69.05 328.10626Q69.58125 328.3875 69.925 328.91876Q70.26875 329.4344 70.45625 330.1844Q70.64375 330.9344 70.64375 332.21564Q70.64375 333.73126 70.33125 334.65314Q70.03438 335.575 69.40938 336.09064Q68.8 336.59064 67.84688 336.59064Q66.6125 336.59064 65.89375 335.7Q65.05 334.6375 65.05 332.21564ZM66.12813 332.21564Q66.12813 334.325 66.62813 335.02814Q67.12813 335.73126 67.84688 335.73126Q68.58125 335.73126 69.06563 335.02814Q69.56563 334.325 69.56563 332.21564Q69.56563 330.09064 69.06563 329.40314Q68.58125 328.7 67.83125 328.7Q67.1125 328.7 66.675 329.3094Q66.12813 330.09064 66.12813 332.21564Z" fill-rule="nonzero"/><path fill="#000000" d="M58.05 285.36667L59.159374 285.27292Q59.284374 286.08542 59.721874 286.49167Q60.175 286.89792 60.815624 286.89792Q61.565624 286.89792 62.096874 286.3198Q62.628124 285.74167 62.628124 284.80417Q62.628124 283.89792 62.1125 283.3823Q61.6125 282.85104 60.784374 282.85104Q60.284374 282.85104 59.8625 283.08542Q59.45625 283.3198 59.221874 283.67917L58.2375 283.55417L59.065624 279.14792L63.346874 279.14792L63.346874 280.14792L59.909374 280.14792L59.45625 282.46042Q60.221874 281.91354 61.065624 281.91354Q62.190624 281.91354 62.95625 282.6948Q63.7375 283.47604 63.7375 284.71042Q63.7375 285.86667 63.065624 286.72604Q62.2375 287.7573 60.815624 287.7573Q59.64375 287.7573 58.89375 287.10104Q58.159374 286.4448 58.05 285.36667ZM65.05 283.3823Q65.05 281.85104 65.3625 280.92917Q65.675 279.99167 66.28438 279.49167Q66.90938 278.99167 67.84688 278.99167Q68.53438 278.99167 69.05 279.27292Q69.58125 279.55417 69.925 280.08542Q70.26875 280.60104 70.45625 281.35104Q70.64375 282.10104 70.64375 283.3823Q70.64375 284.89792 70.33125 285.8198Q70.03438 286.74167 69.40938 287.2573Q68.8 287.7573 67.84688 287.7573Q66.6125 287.7573 65.89375 286.86667Q65.05 285.80417 65.05 283.3823ZM66.12813 283.3823Q66.12813 285.49167 66.62813 286.1948Q67.12813 286.89792 67.84688 286.89792Q68.58125 286.89792 69.06563 286.1948Q69.56563 285.49167 69.56563 283.3823Q69.56563 281.2573 69.06563 280.5698Q68.58125 279.86667 67.83125 279.86667Q67.1125 279.86667 66.675 280.47604Q66.12813 281.2573 66.12813 283.3823Z" fill-rule="nonzero"/><path fill="#000000" d="M55.01875 238.78334L53.971874 238.78334L53.971874 232.06459Q53.58125 232.42397 52.95625 232.79897Q52.346874 233.15834 51.8625 233.33022L51.8625 232.31459Q52.7375 231.89272 53.39375 231.31459Q54.065624 230.72084 54.346874 230.15834L55.01875 230.15834L55.01875 238.78334ZM58.05 234.54897Q58.05 233.01772 58.3625 232.09584Q58.675 231.15834 59.284374 230.65834Q59.909374 230.15834 60.846874 230.15834Q61.534374 230.15834 62.05 230.43959Q62.58125 230.72084 62.925 231.25209Q63.26875 231.76772 63.45625 232.51772Q63.64375 233.26772 63.64375 234.54897Q63.64375 236.06459 63.33125 236.98647Q63.034374 237.90834 62.409374 238.42397Q61.8 238.92397 60.846874 238.92397Q59.6125 238.92397 58.89375 238.03334Q58.05 236.97084 58.05 234.54897ZM59.128124 234.54897Q59.128124 236.65834 59.628124 237.36147Q60.128124 238.06459 60.846874 238.06459Q61.58125 238.06459 62.065624 237.36147Q62.565624 236.65834 62.565624 234.54897Q62.565624 232.42397 62.065624 231.73647Q61.58125 231.03334 60.83125 231.03334Q60.1125 231.03334 59.675 231.64272Q59.128124 232.42397 59.128124 234.54897ZM65.05 234.54897Q65.05 233.01772 65.3625 232.09584Q65.675 231.15834 66.28438 230.65834Q66.90938 230.15834 67.84688 230.15834Q68.53438 230.15834 69.05 230.43959Q69.58125 230.72084 69.925 231.25209Q70.26875 231.76772 70.45625 232.51772Q70.64375 233.26772 70.64375 234.54897Q70.64375 236.06459 70.33125 236.98647Q70.03438 237.90834 69.40938 238.42397Q68.8 238.92397 67.84688 238.92397Q66.6125 238.92397 65.89375 238.03334Q65.05 236.97084 65.05 234.54897ZM66.12813 234.54897Q66.12813 236.65834 66.62813 237.36147Q67.12813 238.06459 67.84688 238.06459Q68.58125 238.06459 69.06563 237.36147Q69.56563 236.65834 69.56563 234.54897Q69.56563 232.42397 69.06563 231.73647Q68.58125 231.03334 67.83125 231.03334Q67.1125 231.03334 66.675 231.64272Q66.12813 232.42397 66.12813 234.54897Z" fill-rule="nonzero"/><path fill="#000000" d="M55.01875 189.95L53.971874 189.95L53.971874 183.23125Q53.58125 183.59062 52.95625 183.96562Q52.346874 184.325 51.8625 184.49687L51.8625 183.48125Q52.7375 183.05937 53.39375 182.48125Q54.065624 181.8875 54.346874 181.325L55.01875 181.325L55.01875 189.95ZM58.05 187.7L59.159374 187.60625Q59.284374 188.41875 59.721874 188.825Q60.175 189.23125 60.815624 189.23125Q61.565624 189.23125 62.096874 188.65312Q62.628124 188.075 62.628124 187.1375Q62.628124 186.23125 62.1125 185.71562Q61.6125 185.18437 60.784374 185.18437Q60.284374 185.18437 59.8625 185.41875Q59.45625 185.65312 59.221874 186.0125L58.2375 185.8875L59.065624 181.48125L63.346874 181.48125L63.346874 182.48125L59.909374 182.48125L59.45625 184.79375Q60.221874 184.24687 61.065624 184.24687Q62.190624 184.24687 62.95625 185.02812Q63.7375 185.80937 63.7375 187.04375Q63.7375 188.2 63.065624 189.05937Q62.2375 190.09062 60.815624 190.09062Q59.64375 190.09062 58.89375 189.43437Q58.159374 188.77812 58.05 187.7ZM65.05 185.71562Q65.05 184.18437 65.3625 183.2625Q65.675 182.325 66.28438 181.825Q66.90938 181.325 67.84688 181.325Q68.53438 181.325 69.05 181.60625Q69.58125 181.8875 69.925 182.41875Q70.26875 182.93437 70.45625 183.68437Q70.64375 184.43437 70.64375 185.71562Q70.64375 187.23125 70.33125 188.15312Q70.03438 189.075 69.40938 189.59062Q68.8 190.09062 67.84688 190.09062Q66.6125 190.09062 65.89375 189.2Q65.05 188.1375 65.05 185.71562ZM66.12813 185.71562Q66.12813 187.825 66.62813 188.52812Q67.12813 189.23125 67.84688 189.23125Q68.58125 189.23125 69.06563 188.52812Q69.56563 187.825 69.56563 185.71562Q69.56563 183.59062 69.06563 182.90312Q68.58125 182.2 67.83125 182.2Q67.1125 182.2 66.675 182.80937Q66.12813 183.59062 66.12813 185.71562Z" fill-rule="nonzero"/><path fill="#000000" d="M56.596874 140.10104L56.596874 141.11667L50.909374 141.11667Q50.909374 140.74167 51.034374 140.3823Q51.253124 139.80417 51.721874 139.24167Q52.20625 138.67917 53.1125 137.9448Q54.51875 136.78854 55.003124 136.11667Q55.503124 135.4448 55.503124 134.85104Q55.503124 134.22604 55.05 133.80417Q54.596874 133.36667 53.878124 133.36667Q53.1125 133.36667 52.659374 133.8198Q52.20625 134.27292 52.190624 135.08542L51.1125 134.97604Q51.221874 133.7573 51.940624 133.1323Q52.675 132.49167 53.909374 132.49167Q55.14375 132.49167 55.8625 133.17917Q56.58125 133.86667 56.58125 134.8823Q56.58125 135.39792 56.3625 135.89792Q56.159374 136.3823 55.659374 136.9448Q55.175 137.49167 54.05 138.4448Q53.096874 139.24167 52.815624 139.53854Q52.55 139.8198 52.378124 140.10104L56.596874 140.10104ZM58.05 136.8823Q58.05 135.35104 58.3625 134.42917Q58.675 133.49167 59.284374 132.99167Q59.909374 132.49167 60.846874 132.49167Q61.534374 132.49167 62.05 132.77292Q62.58125 133.05417 62.925 133.58542Q63.26875 134.10104 63.45625 134.85104Q63.64375 135.60104 63.64375 136.8823Q63.64375 138.39792 63.33125 139.3198Q63.034374 140.24167 62.409374 140.7573Q61.8 141.2573 60.846874 141.2573Q59.6125 141.2573 58.89375 140.36667Q58.05 139.30417 58.05 136.8823ZM59.128124 136.8823Q59.128124 138.99167 59.628124 139.6948Q60.128124 140.39792 60.846874 140.39792Q61.58125 140.39792 62.065624 139.6948Q62.565624 138.99167 62.565624 136.8823Q62.565624 134.7573 62.065624 134.0698Q61.58125 133.36667 60.83125 133.36667Q60.1125 133.36667 59.675 133.97604Q59.128124 134.7573 59.128124 136.8823ZM65.05 136.8823Q65.05 135.35104 65.3625 134.42917Q65.675 133.49167 66.28438 132.99167Q66.90938 132.49167 67.84688 132.49167Q68.53438 132.49167 69.05 132.77292Q69.58125 133.05417 69.925 133.58542Q70.26875 134.10104 70.45625 134.85104Q70.64375 135.60104 70.64375 136.8823Q70.64375 138.39792 70.33125 139.3198Q70.03438 140.24167 69.40938 140.7573Q68.8 141.2573 67.84688 141.2573Q66.6125 141.2573 65.89375 140.36667Q65.05 139.30417 65.05 136.8823ZM66.12813 136.8823Q66.12813 138.99167 66.62813 139.6948Q67.12813 140.39792 67.84688 140.39792Q68.58125 140.39792 69.06563 139.6948Q69.56563 138.99167 69.56563 136.8823Q69.56563 134.7573 69.06563 134.0698Q68.58125 133.36667 67.83125 133.36667Q67.1125 133.36667 66.675 133.97604Q66.12813 134.7573 66.12813 136.8823Z" fill-rule="nonzero"/><path fill="#000000" d="M56.596874 91.26771L56.596874 92.28333L50.909374 92.28333Q50.909374 91.90833 51.034374 91.54896Q51.253124 90.97083 51.721874 90.40833Q52.20625 89.84583 53.1125 89.11146Q54.51875 87.95521 55.003124 87.28333Q55.503124 86.61146 55.503124 86.01771Q55.503124 85.39271 55.05 84.97083Q54.596874 84.53333 53.878124 84.53333Q53.1125 84.53333 52.659374 84.98646Q52.20625 85.43958 52.190624 86.25208L51.1125 86.14271Q51.221874 84.92396 51.940624 84.29896Q52.675 83.65833 53.909374 83.65833Q55.14375 83.65833 55.8625 84.34583Q56.58125 85.03333 56.58125 86.04896Q56.58125 86.56458 56.3625 87.06458Q56.159374 87.54896 55.659374 88.11146Q55.175 88.65833 54.05 89.61146Q53.096874 90.40833 52.815624 90.70521Q52.55 90.98646 52.378124 91.26771L56.596874 91.26771ZM58.05 90.03333L59.159374 89.93958Q59.284374 90.75208 59.721874 91.15833Q60.175 91.56458 60.815624 91.56458Q61.565624 91.56458 62.096874 90.98646Q62.628124 90.40833 62.628124 89.47083Q62.628124 88.56458 62.1125 88.04896Q61.6125 87.51771 60.784374 87.51771Q60.284374 87.51771 59.8625 87.75208Q59.45625 87.98646 59.221874 88.34583L58.2375 88.22083L59.065624 83.81458L63.346874 83.81458L63.346874 84.81458L59.909374 84.81458L59.45625 87.12708Q60.221874 86.58021 61.065624 86.58021Q62.190624 86.58021 62.95625 87.36146Q63.7375 88.14271 63.7375 89.37708Q63.7375 90.53333 63.065624 91.39271Q62.2375 92.42396 60.815624 92.42396Q59.64375 92.42396 58.89375 91.76771Q58.159374 91.11146 58.05 90.03333ZM65.05 88.04896Q65.05 86.51771 65.3625 85.59583Q65.675 84.65833 66.28438 84.15833Q66.90938 83.65833 67.84688 83.65833Q68.53438 83.65833 69.05 83.93958Q69.58125 84.22083 69.925 84.75208Q70.26875 85.26771 70.45625 86.01771Q70.64375 86.76771 70.64375 88.04896Q70.64375 89.56458 70.33125 90.48646Q70.03438 91.40833 69.40938 91.92396Q68.8 92.42396 67.84688 92.42396Q66.6125 92.42396 65.89375 91.53333Q65.05 90.47083 65.05 88.04896ZM66.12813 88.04896Q66.12813 90.15833 66.62813 90.86146Q67.12813 91.56458 67.84688 91.56458Q68.58125 91.56458 69.06563 90.86146Q69.56563 90.15833 69.56563 88.04896Q69.56563 85.92396 69.06563 85.23646Q68.58125 84.53333 67.83125 84.53333Q67.1125 84.53333 66.675 85.14271Q66.12813 85.92396 66.12813 88.04896Z" fill-rule="nonzero"/><path fill="#000000" d="M284.0625 340.85626L285.20312 340.85626L285.20312 345.825Q285.20312 347.1219 284.90625 347.8875Q284.60938 348.6375 283.84375 349.1219Q283.07812 349.59064 281.84375 349.59064Q280.64062 349.59064 279.85938 349.1844Q279.09375 348.7625 278.76562 347.98126Q278.4375 347.1844 278.4375 345.825L278.4375 340.85626L279.57812 340.85626L279.57812 345.8094Q279.57812 346.9344 279.78125 347.46564Q280.0 347.9969 280.5 348.29376Q281.01562 348.575 281.75 348.575Q283.0 348.575 283.53125 348.0125Q284.0625 347.4344 284.0625 345.8094L284.0625 340.85626ZM287.42188 349.45L287.42188 340.85626L290.39062 340.85626Q291.39062 340.85626 291.92188 340.98126Q292.65625 341.15314 293.17188 341.59064Q293.85938 342.16876 294.1875 343.075Q294.53125 343.96564 294.53125 345.10626Q294.53125 346.09064 294.29688 346.84064Q294.07812 347.59064 293.71875 348.09064Q293.35938 348.59064 292.92188 348.8719Q292.5 349.15314 291.90625 349.3094Q291.3125 349.45 290.53125 349.45L287.42188 349.45ZM288.5625 348.4344L290.39062 348.4344Q291.25 348.4344 291.73438 348.27814Q292.21875 348.1219 292.5 347.825Q292.90625 347.4344 293.125 346.7469Q293.35938 346.0594 293.35938 345.09064Q293.35938 343.7469 292.90625 343.02814Q292.46875 342.29376 291.84375 342.04376Q291.375 341.8719 290.375 341.8719L288.5625 341.8719L288.5625 348.4344ZM296.42188 349.45L296.42188 340.85626L299.67188 340.85626Q300.51562 340.85626 300.96875 340.9344Q301.60938 341.04376 302.03125 341.34064Q302.46875 341.6375 302.71875 342.16876Q302.98438 342.7 302.98438 343.34064Q302.98438 344.4344 302.28125 345.2Q301.59375 345.95 299.76562 345.95L297.5625 345.95L297.5625 349.45L296.42188 349.45ZM297.5625 344.95L299.78125 344.95Q300.89062 344.95 301.34375 344.54376Q301.8125 344.1219 301.8125 343.3719Q301.8125 342.84064 301.53125 342.46564Q301.26562 342.075 300.82812 341.95Q300.53125 341.8719 299.76562 341.8719L297.5625 341.8719L297.5625 344.95ZM307.375 349.45L307.375 340.85626L310.60938 340.85626Q311.59375 340.85626 312.1875 341.1219Q312.78125 341.3875 313.10938 341.9344Q313.45312 342.46564 313.45312 343.0594Q313.45312 343.60626 313.15625 344.09064Q312.85938 344.575 312.25 344.8719Q313.03125 345.10626 313.4375 345.66876Q313.85938 346.21564 313.85938 346.96564Q313.85938 347.5594 313.60938 348.09064Q313.35938 348.60626 312.98438 348.8875Q312.60938 349.16876 312.03125 349.3094Q311.46875 349.45 310.65625 349.45L307.375 349.45ZM308.51562 344.46564L310.375 344.46564Q311.125 344.46564 311.45312 344.3719Q311.89062 344.2469 312.10938 343.95Q312.32812 343.6375 312.32812 343.1844Q312.32812 342.7625 312.125 342.4344Q311.92188 342.10626 311.53125 341.9969Q311.15625 341.8719 310.23438 341.8719L308.51562 341.8719L308.51562 344.46564ZM308.51562 348.4344L310.65625 348.4344Q311.20312 348.4344 311.42188 348.3875Q311.82812 348.325 312.07812 348.16876Q312.34375 347.9969 312.51562 347.6844Q312.6875 347.3719 312.6875 346.96564Q312.6875 346.48126 312.4375 346.1219Q312.20312 345.7625 311.76562 345.6219Q311.32812 345.48126 310.5 345.48126L308.51562 345.48126L308.51562 348.4344ZM315.29688 342.075L315.29688 340.85626L316.35938 340.85626L316.35938 342.075L315.29688 342.075ZM315.29688 349.45L315.29688 343.23126L316.35938 343.23126L316.35938 349.45L315.29688 349.45ZM320.59375 348.5125L320.75 349.4344Q320.29688 349.52814 319.95312 349.52814Q319.375 349.52814 319.0625 349.35626Q318.75 349.16876 318.60938 348.8719Q318.48438 348.575 318.48438 347.6219L318.48438 344.04376L317.71875 344.04376L317.71875 343.23126L318.48438 343.23126L318.48438 341.6844L319.53125 341.0594L319.53125 343.23126L320.59375 343.23126L320.59375 344.04376L319.53125 344.04376L319.53125 347.6844Q319.53125 348.1375 319.57812 348.2625Q319.64062 348.3875 319.76562 348.46564Q319.89062 348.54376 320.125 348.54376Q320.3125 348.54376 320.59375 348.5125ZM321.28125 349.45L321.28125 343.23126L322.23438 343.23126L322.23438 344.16876Q322.59375 343.5125 322.89062 343.3094Q323.20312 343.09064 323.57812 343.09064Q324.10938 343.09064 324.65625 343.41876L324.29688 344.40314Q323.90625 344.16876 323.53125 344.16876Q323.17188 344.16876 322.89062 344.3875Q322.625 344.59064 322.51562 344.96564Q322.32812 345.52814 322.32812 346.1844L322.32812 349.45L321.28125 349.45ZM329.35938 348.6844Q328.76562 349.1844 328.21875 349.3875Q327.6875 349.59064 327.0625 349.59064Q326.03125 349.59064 325.48438 349.09064Q324.9375 348.59064 324.9375 347.8094Q324.9375 347.35626 325.14062 346.98126Q325.34375 346.59064 325.6875 346.3719Q326.03125 346.1375 326.45312 346.02814Q326.75 345.9344 327.39062 345.85626Q328.65625 345.71564 329.26562 345.4969Q329.26562 345.27814 329.26562 345.23126Q329.26562 344.575 328.96875 344.3094Q328.5625 343.96564 327.76562 343.96564Q327.03125 343.96564 326.67188 344.23126Q326.3125 344.48126 326.14062 345.1375L325.10938 344.9969Q325.25 344.34064 325.57812 343.9344Q325.90625 343.52814 326.51562 343.3094Q327.125 343.09064 327.92188 343.09064Q328.71875 343.09064 329.21875 343.27814Q329.71875 343.46564 329.95312 343.7469Q330.1875 344.02814 330.28125 344.46564Q330.32812 344.73126 330.32812 345.4344L330.32812 346.84064Q330.32812 348.3094 330.39062 348.7Q330.46875 349.09064 330.67188 349.45L329.5625 349.45Q329.40625 349.1219 329.35938 348.6844ZM329.26562 346.325Q328.6875 346.5594 327.54688 346.73126Q326.89062 346.825 326.625 346.95Q326.35938 347.0594 326.20312 347.27814Q326.0625 347.4969 326.0625 347.77814Q326.0625 348.2 326.375 348.48126Q326.70312 348.7625 327.3125 348.7625Q327.92188 348.7625 328.39062 348.4969Q328.875 348.23126 329.09375 347.7625Q329.26562 347.40314 329.26562 346.71564L329.26562 346.325ZM334.59375 348.5125L334.75 349.4344Q334.29688 349.52814 333.95312 349.52814Q333.375 349.52814 333.0625 349.35626Q332.75 349.16876 332.60938 348.8719Q332.48438 348.575 332.48438 347.6219L332.48438 344.04376L331.71875 344.04376L331.71875 343.23126L332.48438 343.23126L332.48438 341.6844L333.53125 341.0594L333.53125 343.23126L334.59375 343.23126L334.59375 344.04376L333.53125 344.04376L333.53125 347.6844Q333.53125 348.1375 333.57812 348.2625Q333.64062 348.3875 333.76562 348.46564Q333.89062 348.54376 334.125 348.54376Q334.3125 348.54376 334.59375 348.5125ZM339.54688 347.45L340.64062 347.575Q340.39062 348.52814 339.6875 349.0594Q338.98438 349.59064 337.90625 349.59064Q336.54688 349.59064 335.73438 348.7469Q334.9375 347.90314 334.9375 346.3875Q334.9375 344.825 335.75 343.96564Q336.5625 343.09064 337.84375 343.09064Q339.09375 343.09064 339.875 343.9344Q340.67188 344.77814 340.67188 346.325Q340.67188 346.41876 340.67188 346.60626L336.03125 346.60626Q336.09375 347.6375 336.60938 348.1844Q337.125 348.71564 337.90625 348.71564Q338.48438 348.71564 338.89062 348.41876Q339.3125 348.10626 339.54688 347.45ZM336.09375 345.7469L339.5625 345.7469Q339.5 344.95 339.17188 344.5594Q338.65625 343.95 337.85938 343.95Q337.125 343.95 336.625 344.4344Q336.14062 344.91876 336.09375 345.7469ZM344.3125 351.98126Q343.4375 350.8719 342.82812 349.40314Q342.23438 347.91876 342.23438 346.34064Q342.23438 344.95 342.67188 343.66876Q343.20312 342.1844 344.3125 340.71564L345.0625 340.71564Q344.35938 341.9344 344.125 342.45Q343.76562 343.2625 343.5625 344.1375Q343.3125 345.23126 343.3125 346.34064Q343.3125 349.16876 345.0625 351.98126L344.3125 351.98126ZM346.39062 349.45L346.39062 340.85626L348.10938 340.85626L350.14062 346.9344Q350.42188 347.79376 350.54688 348.21564Q350.6875 347.7469 351.0 346.84064L353.0625 340.85626L354.59375 340.85626L354.59375 349.45L353.5 349.45L353.5 342.2625L351.0 349.45L349.96875 349.45L347.48438 342.1375L347.48438 349.45L346.39062 349.45ZM356.26562 349.45L355.28125 349.45L355.28125 340.85626L356.34375 340.85626L356.34375 343.91876Q357.01562 343.09064 358.04688 343.09064Q358.625 343.09064 359.125 343.325Q359.64062 343.54376 359.96875 343.96564Q360.3125 344.3875 360.5 344.98126Q360.6875 345.575 360.6875 346.2469Q360.6875 347.84064 359.89062 348.71564Q359.09375 349.59064 358.0 349.59064Q356.89062 349.59064 356.26562 348.66876L356.26562 349.45ZM356.25 346.29376Q356.25 347.40314 356.5625 347.90314Q357.0625 348.71564 357.90625 348.71564Q358.59375 348.71564 359.09375 348.1219Q359.60938 347.52814 359.60938 346.325Q359.60938 345.10626 359.125 344.52814Q358.64062 343.95 357.95312 343.95Q357.26562 343.95 356.75 344.5594Q356.25 345.15314 356.25 346.29376ZM362.29688 342.075L362.29688 340.85626L363.35938 340.85626L363.35938 342.075L362.29688 342.075ZM362.29688 349.45L362.29688 343.23126L363.35938 343.23126L363.35938 349.45L362.29688 349.45ZM367.59375 348.5125L367.75 349.4344Q367.29688 349.52814 366.95312 349.52814Q366.375 349.52814 366.0625 349.35626Q365.75 349.16876 365.60938 348.8719Q365.48438 348.575 365.48438 347.6219L365.48438 344.04376L364.71875 344.04376L364.71875 343.23126L365.48438 343.23126L365.48438 341.6844L366.53125 341.0594L366.53125 343.23126L367.59375 343.23126L367.59375 344.04376L366.53125 344.04376L366.53125 347.6844Q366.53125 348.1375 366.57812 348.2625Q366.64062 348.3875 366.76562 348.46564Q366.89062 348.54376 367.125 348.54376Q367.3125 348.54376 367.59375 348.5125ZM367.5 349.59064L369.98438 340.71564L370.82812 340.71564L368.34375 349.59064L367.5 349.59064ZM370.875 347.59064L371.90625 347.4344Q372.0 348.0594 372.39062 348.3875Q372.79688 348.71564 373.53125 348.71564Q374.25 348.71564 374.59375 348.4344Q374.95312 348.1375 374.95312 347.73126Q374.95312 347.3719 374.64062 347.16876Q374.42188 347.02814 373.5625 346.8094Q372.40625 346.5125 371.95312 346.3094Q371.51562 346.09064 371.28125 345.71564Q371.04688 345.34064 371.04688 344.8719Q371.04688 344.46564 371.23438 344.10626Q371.42188 343.7469 371.75 343.5125Q372.0 343.34064 372.42188 343.21564Q372.84375 343.09064 373.34375 343.09064Q374.0625 343.09064 374.60938 343.3094Q375.17188 343.5125 375.4375 343.8719Q375.70312 344.23126 375.79688 344.825L374.76562 344.96564Q374.70312 344.4969 374.35938 344.23126Q374.03125 343.95 373.40625 343.95Q372.6875 343.95 372.375 344.2Q372.0625 344.4344 372.0625 344.7625Q372.0625 344.96564 372.1875 345.1219Q372.32812 345.29376 372.59375 345.40314Q372.75 345.46564 373.53125 345.66876Q374.65625 345.98126 375.09375 346.16876Q375.53125 346.35626 375.78125 346.71564Q376.03125 347.075 376.03125 347.6219Q376.03125 348.15314 375.71875 348.6219Q375.42188 349.075 374.84375 349.34064Q374.26562 349.59064 373.53125 349.59064Q372.3125 349.59064 371.67188 349.09064Q371.04688 348.575 370.875 347.59064ZM378.98438 351.98126L378.23438 351.98126Q379.98438 349.16876 379.98438 346.34064Q379.98438 345.2469 379.73438 344.15314Q379.53125 343.27814 379.17188 342.46564Q378.9375 341.95 378.23438 340.71564L378.98438 340.71564Q380.07812 342.1844 380.60938 343.66876Q381.0625 344.95 381.0625 346.34064Q381.0625 347.91876 380.45312 349.40314Q379.84375 350.8719 378.98438 351.98126Z" fill-rule="nonzero"/><path fill="#4285f4" d="M246.0 56.916668C246.0 56.364384 246.44771 55.916668 247.0 55.916668L257.0 55.916668C257.55228 55.916668 258.0 56.364384 258.0 56.916668L258.0 66.916664C258.0 67.46895 257.55228 67.916664 257.0 67.916664L247.0 67.916664C246.44771 67.916664 246.0 67.46895 246.0 66.916664Z" fill-rule="nonzero"/><path fill="#1a1a1a" d="M266.78125 65.916664L266.78125 59.697914L267.73438 59.697914L267.73438 60.635414Q268.09375 59.979164 268.39062 59.77604Q268.70312 59.55729 269.07812 59.55729Q269.60938 59.55729 270.15625 59.885414L269.79688 60.86979Q269.40625 60.635414 269.03125 60.635414Q268.67188 60.635414 268.39062 60.854164Q268.125 61.05729 268.01562 61.43229Q267.82812 61.99479 267.82812 62.65104L267.82812 65.916664L266.78125 65.916664ZM274.85938 65.15104Q274.26562 65.65104 273.71875 65.854164Q273.1875 66.05729 272.5625 66.05729Q271.53125 66.05729 270.98438 65.55729Q270.4375 65.05729 270.4375 64.27604Q270.4375 63.822914 270.64062 63.447914Q270.84375 63.05729 271.1875 62.83854Q271.53125 62.604164 271.95312 62.49479Q272.25 62.40104 272.89062 62.322914Q274.15625 62.18229 274.76562 61.96354Q274.76562 61.74479 274.76562 61.697914Q274.76562 61.041664 274.46875 60.77604Q274.0625 60.43229 273.26562 60.43229Q272.53125 60.43229 272.17188 60.697914Q271.8125 60.947914 271.64062 61.604164L270.60938 61.46354Q270.75 60.80729 271.07812 60.40104Q271.40625 59.99479 272.01562 59.77604Q272.625 59.55729 273.42188 59.55729Q274.21875 59.55729 274.71875 59.74479Q275.21875 59.93229 275.45312 60.21354Q275.6875 60.49479 275.78125 60.93229Q275.82812 61.197914 275.82812 61.90104L275.82812 63.30729Q275.82812 64.77604 275.89062 65.166664Q275.96875 65.55729 276.17188 65.916664L275.0625 65.916664Q274.90625 65.58854 274.85938 65.15104ZM274.76562 62.791664Q274.1875 63.02604 273.04688 63.197914Q272.39062 63.291664 272.125 63.416664Q271.85938 63.52604 271.70312 63.74479Q271.5625 63.96354 271.5625 64.24479Q271.5625 64.666664 271.875 64.947914Q272.20312 65.229164 272.8125 65.229164Q273.42188 65.229164 273.89062 64.96354Q274.375 64.697914 274.59375 64.229164Q274.76562 63.86979 274.76562 63.18229L274.76562 62.791664ZM280.09375 64.979164L280.25 65.90104Q279.79688 65.99479 279.45312 65.99479Q278.875 65.99479 278.5625 65.822914Q278.25 65.635414 278.10938 65.33854Q277.98438 65.041664 277.98438 64.08854L277.98438 60.510414L277.21875 60.510414L277.21875 59.697914L277.98438 59.697914L277.98438 58.15104L279.03125 57.52604L279.03125 59.697914L280.09375 59.697914L280.09375 60.510414L279.03125 60.510414L279.03125 64.15104Q279.03125 64.604164 279.07812 64.729164Q279.14062 64.854164 279.26562 64.93229Q279.39062 65.010414 279.625 65.010414Q279.8125 65.010414 280.09375 64.979164ZM280.79688 65.916664L280.79688 57.322914L281.84375 57.322914L281.84375 60.40104Q282.57812 59.55729 283.70312 59.55729Q284.40625 59.55729 284.90625 59.83854Q285.42188 60.104164 285.64062 60.58854Q285.85938 61.05729 285.85938 61.979164L285.85938 65.916664L284.8125 65.916664L284.8125 61.979164Q284.8125 61.18229 284.46875 60.822914Q284.125 60.46354 283.5 60.46354Q283.03125 60.46354 282.60938 60.71354Q282.20312 60.947914 282.01562 61.36979Q281.84375 61.77604 281.84375 62.510414L281.84375 65.916664L280.79688 65.916664ZM287.40625 62.80729Q287.40625 61.072914 288.35938 60.24479Q289.15625 59.55729 290.3125 59.55729Q291.59375 59.55729 292.40625 60.40104Q293.23438 61.229164 293.23438 62.71354Q293.23438 63.916664 292.875 64.604164Q292.51562 65.291664 291.8125 65.68229Q291.125 66.05729 290.3125 66.05729Q289.01562 66.05729 288.20312 65.229164Q287.40625 64.385414 287.40625 62.80729ZM288.48438 62.80729Q288.48438 63.99479 289.0 64.58854Q289.53125 65.18229 290.3125 65.18229Q291.10938 65.18229 291.625 64.58854Q292.14062 63.99479 292.14062 62.77604Q292.14062 61.61979 291.60938 61.02604Q291.09375 60.43229 290.3125 60.43229Q289.53125 60.43229 289.0 61.02604Q288.48438 61.604164 288.48438 62.80729ZM294.76562 65.916664L294.76562 57.322914L295.82812 57.322914L295.82812 65.916664L294.76562 65.916664ZM302.04688 63.916664L303.14062 64.041664Q302.89062 64.99479 302.1875 65.52604Q301.48438 66.05729 300.40625 66.05729Q299.04688 66.05729 298.23438 65.21354Q297.4375 64.36979 297.4375 62.854164Q297.4375 61.291664 298.25 60.43229Q299.0625 59.55729 300.34375 59.55729Q301.59375 59.55729 302.375 60.40104Q303.17188 61.24479 303.17188 62.791664Q303.17188 62.885414 303.17188 63.072914L298.53125 63.072914Q298.59375 64.104164 299.10938 64.65104Q299.625 65.18229 300.40625 65.18229Q300.98438 65.18229 301.39062 64.885414Q301.8125 64.572914 302.04688 63.916664ZM298.59375 62.21354L302.0625 62.21354Q302.0 61.416664 301.67188 61.02604Q301.15625 60.416664 300.35938 60.416664Q299.625 60.416664 299.125 60.90104Q298.64062 61.385414 298.59375 62.21354Z" fill-rule="nonzero"/><path fill="#ea4335" d="M320.0 56.916668C320.0 56.364384 320.44772 55.916668 321.0 55.916668L331.0 55.916668C331.55228 55.916668 332.0 56.364384 332.0 56.916668L332.0 66.916664C332.0 67.46895 331.55228 67.916664 331.0 67.916664L321.0 67.916664C320.44772 67.916664 320.0 67.46895 320.0 66.916664Z" fill-rule="nonzero"/><path fill="#1a1a1a" d="M341.04688 65.916664L341.04688 60.510414L340.10938 60.510414L340.10938 59.697914L341.04688 59.697914L341.04688 59.02604Q341.04688 58.40104 341.15625 58.104164Q341.3125 57.68229 341.6875 57.43229Q342.07812 57.18229 342.76562 57.18229Q343.21875 57.18229 343.75 57.291664L343.59375 58.197914Q343.26562 58.15104 342.96875 58.15104Q342.48438 58.15104 342.28125 58.354164Q342.09375 58.55729 342.09375 59.11979L342.09375 59.697914L343.3125 59.697914L343.3125 60.510414L342.09375 60.510414L342.09375 65.916664L341.04688 65.916664ZM343.78125 65.916664L343.78125 59.697914L344.73438 59.697914L344.73438 60.635414Q345.09375 59.979164 345.39062 59.77604Q345.70312 59.55729 346.07812 59.55729Q346.60938 59.55729 347.15625 59.885414L346.79688 60.86979Q346.40625 60.635414 346.03125 60.635414Q345.67188 60.635414 345.39062 60.854164Q345.125 61.05729 345.01562 61.43229Q344.82812 61.99479 344.82812 62.65104L344.82812 65.916664L343.78125 65.916664ZM347.79688 68.30729L347.79688 59.697914L348.75 59.697914L348.75 60.49479Q349.09375 60.02604 349.51562 59.791664Q349.95312 59.55729 350.5625 59.55729Q351.35938 59.55729 351.96875 59.96354Q352.57812 60.36979 352.875 61.11979Q353.1875 61.86979 353.1875 62.760414Q353.1875 63.71354 352.84375 64.479164Q352.51562 65.24479 351.85938 65.65104Q351.20312 66.05729 350.48438 66.05729Q349.95312 66.05729 349.53125 65.83854Q349.10938 65.604164 348.84375 65.27604L348.84375 68.30729L347.79688 68.30729ZM348.75 62.83854Q348.75 64.041664 349.23438 64.61979Q349.71875 65.18229 350.40625 65.18229Q351.10938 65.18229 351.60938 64.58854Q352.10938 63.99479 352.10938 62.74479Q352.10938 61.55729 351.625 60.979164Q351.14062 60.385414 350.45312 60.385414Q349.78125 60.385414 349.26562 61.010414Q348.75 61.635414 348.75 62.83854Z" fill-rule="nonzero"/><path fill="#757575" d="M29.4875 23.2375L31.378124 23.2375L31.378124 31.503124Q31.378124 33.659374 30.89375 34.940624Q30.409374 36.20625 29.128124 37.003124Q27.8625 37.8 25.784374 37.8Q23.76875 37.8 22.4875 37.1125Q21.221874 36.409374 20.675 35.096874Q20.128124 33.784374 20.128124 31.503124L20.128124 23.2375L22.01875 23.2375L22.01875 31.4875Q22.01875 33.3625 22.3625 34.253124Q22.70625 35.128124 23.55 35.6125Q24.39375 36.08125 25.628124 36.08125Q27.70625 36.08125 28.596874 35.14375Q29.4875 34.190624 29.4875 31.4875L29.4875 23.2375ZM33.096874 37.55L33.096874 23.2375L38.01875 23.2375Q39.690624 23.2375 40.58125 23.440624Q41.8 23.721874 42.675 24.45625Q43.8 25.425 44.3625 26.909374Q44.925 28.39375 44.925 30.315624Q44.925 31.940624 44.55 33.20625Q44.175 34.45625 43.565624 35.284374Q42.971874 36.1125 42.26875 36.596874Q41.565624 37.065624 40.565624 37.315624Q39.565624 37.55 38.253124 37.55L33.096874 37.55ZM34.9875 35.8625L38.05 35.8625Q39.45625 35.8625 40.253124 35.596874Q41.065624 35.33125 41.55 34.846874Q42.221874 34.175 42.596874 33.05Q42.971874 31.909374 42.971874 30.284374Q42.971874 28.034374 42.2375 26.83125Q41.503124 25.628124 40.440624 25.221874Q39.690624 24.925 38.003124 24.925L34.9875 24.925L34.9875 35.8625ZM47.096874 37.55L47.096874 23.2375L52.4875 23.2375Q53.925 23.2375 54.675 23.3625Q55.721874 23.55 56.440624 24.05Q57.159374 24.534374 57.58125 25.425Q58.01875 26.315624 58.01875 27.378124Q58.01875 29.20625 56.846874 30.471874Q55.690624 31.721874 52.659374 31.721874L48.9875 31.721874L48.9875 37.55L47.096874 37.55ZM48.9875 30.034374L52.690624 30.034374Q54.51875 30.034374 55.284374 29.3625Q56.065624 28.675 56.065624 27.425Q56.065624 26.534374 55.6125 25.89375Q55.159374 25.253124 54.425 25.05Q53.940624 24.925 52.64375 24.925L48.9875 24.925L48.9875 30.034374ZM66.01875 37.55L66.01875 23.2375L71.39375 23.2375Q73.03438 23.2375 74.01875 23.675Q75.00313 24.096874 75.56563 25.003124Q76.12813 25.909374 76.12813 26.89375Q76.12813 27.815624 75.62813 28.628124Q75.14375 29.440624 74.12813 29.925Q75.425 30.315624 76.12813 31.2375Q76.83125 32.14375 76.83125 33.39375Q76.83125 34.409374 76.39375 35.26875Q75.97188 36.128124 75.34688 36.596874Q74.72188 37.065624 73.78438 37.315624Q72.84688 37.55 71.47188 37.55L66.01875 37.55ZM67.90938 29.253124L71.00313 29.253124Q72.26875 29.253124 72.81563 29.08125Q73.53438 28.8625 73.89375 28.378124Q74.26875 27.878124 74.26875 27.1125Q74.26875 26.409374 73.925 25.8625Q73.58125 25.315624 72.94063 25.128124Q72.31563 24.925 70.76875 24.925L67.90938 24.925L67.90938 29.253124ZM67.90938 35.8625L71.47188 35.8625Q72.39375 35.8625 72.76875 35.784374Q73.425 35.675 73.8625 35.409374Q74.3 35.128124 74.58125 34.6125Q74.8625 34.08125 74.8625 33.39375Q74.8625 32.596874 74.45625 32.003124Q74.05 31.409374 73.31563 31.175Q72.58125 30.940624 71.22188 30.940624L67.90938 30.940624L67.90938 35.8625ZM78.87813 25.253124L78.87813 23.2375L80.64375 23.2375L80.64375 25.253124L78.87813 25.253124ZM78.87813 37.55L78.87813 27.175L80.64375 27.175L80.64375 37.55L78.87813 37.55ZM86.70625 35.971874L86.95625 37.534374Q86.22188 37.690624 85.62813 37.690624Q84.675 37.690624 84.14375 37.39375Q83.62813 37.08125 83.40938 36.596874Q83.19063 36.096874 83.19063 34.51875L83.19063 28.55L81.90938 28.55L81.90938 27.175L83.19063 27.175L83.19063 24.6125L84.94063 23.55L84.94063 27.175L86.70625 27.175L86.70625 28.55L84.94063 28.55L84.94063 34.6125Q84.94063 35.3625 85.03438 35.58125Q85.12813 35.784374 85.33125 35.925Q85.55 36.05 85.94063 36.05Q86.22188 36.05 86.70625 35.971874ZM88.84688 37.55L88.84688 27.175L90.425 27.175L90.425 28.753124Q91.03438 27.64375 91.55 27.3Q92.06563 26.940624 92.675 26.940624Q93.56563 26.940624 94.4875 27.503124L93.87813 29.14375Q93.2375 28.753124 92.59688 28.753124Q92.01875 28.753124 91.55 29.1125Q91.09688 29.45625 90.89375 30.065624Q90.6125 31.003124 90.6125 32.1125L90.6125 37.55L88.84688 37.55ZM102.64375 36.26875Q101.65938 37.096874 100.75313 37.440624Q99.84688 37.784374 98.81563 37.784374Q97.1125 37.784374 96.19063 36.95625Q95.26875 36.1125 95.26875 34.815624Q95.26875 34.05 95.6125 33.425Q95.97188 32.8 96.53438 32.425Q97.09688 32.034374 97.8 31.83125Q98.31563 31.70625 99.3625 31.565624Q101.4875 31.315624 102.4875 30.971874Q102.50313 30.6125 102.50313 30.503124Q102.50313 29.440624 102.00313 28.9875Q101.33125 28.39375 100.00313 28.39375Q98.75313 28.39375 98.15938 28.83125Q97.58125 29.26875 97.3 30.378124L95.58125 30.14375Q95.81563 29.034374 96.34688 28.3625Q96.87813 27.675 97.89375 27.315624Q98.90938 26.940624 100.25313 26.940624Q101.58125 26.940624 102.40938 27.253124Q103.2375 27.565624 103.62813 28.05Q104.01875 28.51875 104.175 29.2375Q104.26875 29.690624 104.26875 30.8625L104.26875 33.20625Q104.26875 35.659374 104.37813 36.315624Q104.4875 36.95625 104.83125 37.55L102.9875 37.55Q102.72188 37.003124 102.64375 36.26875ZM102.4875 32.346874Q101.53438 32.7375 99.6125 33.003124Q98.53438 33.159374 98.08125 33.3625Q97.64375 33.55 97.39375 33.925Q97.14375 34.3 97.14375 34.76875Q97.14375 35.471874 97.675 35.940624Q98.20625 36.409374 99.2375 36.409374Q100.25313 36.409374 101.03438 35.971874Q101.83125 35.51875 102.20625 34.753124Q102.4875 34.14375 102.4875 32.9875L102.4875 32.346874ZM110.70625 35.971874L110.95625 37.534374Q110.22188 37.690624 109.62813 37.690624Q108.675 37.690624 108.14375 37.39375Q107.62813 37.08125 107.40938 36.596874Q107.19063 36.096874 107.19063 34.51875L107.19063 28.55L105.90938 28.55L105.90938 27.175L107.19063 27.175L107.19063 24.6125L108.94063 23.55L108.94063 27.175L110.70625 27.175L110.70625 28.55L108.94063 28.55L108.94063 34.6125Q108.94063 35.3625 109.03438 35.58125Q109.12813 35.784374 109.33125 35.925Q109.55 36.05 109.94063 36.05Q110.22188 36.05 110.70625 35.971874ZM119.97188 34.20625L121.78438 34.440624Q121.3625 36.01875 120.19063 36.909374Q119.03438 37.784374 117.22188 37.784374Q114.95625 37.784374 113.6125 36.39375Q112.28438 34.9875 112.28438 32.45625Q112.28438 29.83125 113.62813 28.39375Q114.97188 26.940624 117.12813 26.940624Q119.20625 26.940624 120.51875 28.3625Q121.84688 29.76875 121.84688 32.346874Q121.84688 32.503124 121.83125 32.815624L114.09688 32.815624Q114.19063 34.51875 115.06563 35.425Q115.94063 36.33125 117.2375 36.33125Q118.20625 36.33125 118.87813 35.83125Q119.56563 35.315624 119.97188 34.20625ZM114.19063 31.3625L119.9875 31.3625Q119.87813 30.065624 119.33125 29.409374Q118.4875 28.39375 117.14375 28.39375Q115.94063 28.39375 115.1125 29.20625Q114.28438 30.003124 114.19063 31.3625ZM127.22188 41.753124Q125.76875 39.925 124.76875 37.471874Q123.76875 35.003124 123.76875 32.3625Q123.76875 30.034374 124.51875 27.909374Q125.39375 25.440624 127.22188 22.9875L128.4875 22.9875Q127.3 25.01875 126.925 25.89375Q126.33125 27.2375 125.9875 28.70625Q125.56563 30.534374 125.56563 32.378124Q125.56563 37.065624 128.4875 41.753124L127.22188 41.753124ZM131.03438 37.55L131.03438 23.2375L133.89375 23.2375L137.26875 33.3625Q137.7375 34.784374 137.95625 35.4875Q138.20625 34.70625 138.72188 33.190624L142.14375 23.2375L144.69063 23.2375L144.69063 37.55L142.87813 37.55L142.87813 25.565624L138.70625 37.55L137.00313 37.55L132.8625 25.3625L132.8625 37.55L131.03438 37.55ZM149.4875 37.55L147.8625 37.55L147.8625 23.2375L149.6125 23.2375L149.6125 28.346874Q150.7375 26.940624 152.45625 26.940624Q153.40938 26.940624 154.26875 27.33125Q155.12813 27.721874 155.675 28.425Q156.22188 29.1125 156.53438 30.096874Q156.84688 31.08125 156.84688 32.20625Q156.84688 34.878124 155.53438 36.33125Q154.22188 37.784374 152.37813 37.784374Q150.53438 37.784374 149.4875 36.253124L149.4875 37.55ZM149.47188 32.284374Q149.47188 34.14375 149.97188 34.9875Q150.81563 36.33125 152.22188 36.33125Q153.37813 36.33125 154.20625 35.33125Q155.05 34.33125 155.05 32.346874Q155.05 30.315624 154.2375 29.3625Q153.44063 28.39375 152.3 28.39375Q151.14375 28.39375 150.3 29.39375Q149.47188 30.39375 149.47188 32.284374ZM158.87813 25.253124L158.87813 23.2375L160.64375 23.2375L160.64375 25.253124L158.87813 25.253124ZM158.87813 37.55L158.87813 27.175L160.64375 27.175L160.64375 37.55L158.87813 37.55ZM166.70625 35.971874L166.95625 37.534374Q166.22188 37.690624 165.62813 37.690624Q164.675 37.690624 164.14375 37.39375Q163.62813 37.08125 163.40938 36.596874Q163.19063 36.096874 163.19063 34.51875L163.19063 28.55L161.90938 28.55L161.90938 27.175L163.19063 27.175L163.19063 24.6125L164.94063 23.55L164.94063 27.175L166.70625 27.175L166.70625 28.55L164.94063 28.55L164.94063 34.6125Q164.94063 35.3625 165.03438 35.58125Q165.12813 35.784374 165.33125 35.925Q165.55 36.05 165.94063 36.05Q166.22188 36.05 166.70625 35.971874ZM167.55 37.8L171.70625 22.9875L173.1125 22.9875L168.97188 37.8L167.55 37.8ZM174.15938 34.45625L175.90938 34.175Q176.05 35.221874 176.72188 35.784374Q177.39375 36.33125 178.59688 36.33125Q179.8 36.33125 180.37813 35.846874Q180.97188 35.346874 180.97188 34.690624Q180.97188 34.096874 180.45625 33.753124Q180.09688 33.51875 178.65938 33.159374Q176.72188 32.659374 175.97188 32.315624Q175.2375 31.95625 174.84688 31.33125Q174.45625 30.690624 174.45625 29.925Q174.45625 29.2375 174.76875 28.64375Q175.09688 28.05 175.64375 27.659374Q176.05 27.3625 176.75313 27.159374Q177.47188 26.940624 178.28438 26.940624Q179.50313 26.940624 180.425 27.3Q181.34688 27.64375 181.78438 28.253124Q182.22188 28.846874 182.39375 29.846874L180.675 30.08125Q180.55 29.284374 179.9875 28.846874Q179.425 28.39375 178.40938 28.39375Q177.19063 28.39375 176.675 28.8Q176.15938 29.190624 176.15938 29.721874Q176.15938 30.065624 176.37813 30.346874Q176.58125 30.628124 177.05 30.815624Q177.31563 30.909374 178.59688 31.253124Q180.47188 31.753124 181.20625 32.08125Q181.94063 32.39375 182.3625 33.003124Q182.78438 33.596874 182.78438 34.503124Q182.78438 35.378124 182.26875 36.159374Q181.75313 36.940624 180.78438 37.3625Q179.81563 37.784374 178.59688 37.784374Q176.58125 37.784374 175.51875 36.940624Q174.45625 36.096874 174.15938 34.45625ZM186.01875 41.753124L184.76875 41.753124Q187.675 37.065624 187.675 32.378124Q187.675 30.534374 187.26875 28.7375Q186.925 27.26875 186.33125 25.925Q185.95625 25.034374 184.76875 22.9875L186.01875 22.9875Q187.8625 25.440624 188.7375 27.909374Q189.4875 30.034374 189.4875 32.3625Q189.4875 35.003124 188.47188 37.471874Q187.47188 39.925 186.01875 41.753124Z" fill-rule="nonzero"/></svg>