<svg version="1.1" viewBox="0.0 0.0 600.0 371.0" fill="none" stroke="none" stroke-linecap="square" stroke-miterlimit="10" width="600" height="371" xmlns:xlink="http://www.w3.org/1999/xlink" xmlns="http://www.w3.org/2000/svg"><path fill="#ffffff" d="M0 0L600.0 0L600.0 371.0L0 371.0L0 0Z" fill-rule="nonzero"/><path stroke="#333333" stroke-width="1.0" stroke-linecap="butt" d="M77.5 332.5L581.5 332.5" fill-rule="nonzero"/><path stroke="#cccccc" stroke-width="1.0" stroke-linecap="butt" d="M77.5 291.5L581.5 291.5" fill-rule="nonzero"/><path stroke="#cccccc" stroke-width="1.0" stroke-linecap="butt" d="M77.5 251.5L581.5 251.5" fill-rule="nonzero"/><path stroke="#cccccc" stroke-width="1.0" stroke-linecap="butt" d="M77.5 210.5L581.5 210.5" fill-rule="nonzero"/><path stroke="#cccccc" stroke-width="1.0" stroke-linecap="butt" d="M77.5 169.5L581.5 169.5" fill-rule="nonzero"/><path stroke="#cccccc" stroke-width="1.0" stroke-linecap="butt" d="M77.5 128.5L581.5 128.5" fill-rule="nonzero"/><path stroke="#cccccc" stroke-width="1.0" stroke-linecap="butt" d="M77.5 88.5L581.5 88.5" fill-rule="nonzero"/><clipPath id="id_0"><path d="M77.55 88.28333L581.45 88.28333L581.45 332.45L77.55 332.45L77.55 88.28333Z" clip-rule="nonzero"/></clipPath><path stroke="#000000" stroke-width="2.0" stroke-linecap="butt" stroke-opacity="0.0" clip-path="url(#id_0)" d="M329.0 332.0L210.0 332.0L210.0 111.0C210.0 109.89543 210.89543 109.0 212.0 109.0L327.0 109.0C328.10458 109.0 329.0 109.89543 329.0 111.0Z" fill-rule="nonzero"/><path fill="#4285f4" clip-path="url(#id_0)" d="M329.0 332.0L210.0 332.0L210.0 111.0C210.0 109.89543 210.89543 109.0 212.0 109.0L327.0 109.0C328.10458 109.0 329.0 109.89543 329.0 111.0Z" fill-rule="nonzero"/><path stroke="#000000" stroke-width="2.0" stroke-linecap="butt" stroke-opacity="0.0" clip-path="url(#id_0)" d="M450.0 332.0L331.0 332.0L331.0 219.0C331.0 217.89543 331.89542 217.0 333.0 217.0L448.0 217.0C449.10458 217.0 450.0 217.89543 450.0 219.0Z" fill-rule="nonzero"/><path fill="#ea4335" clip-path="url(#id_0)" d="M450.0 332.0L331.0 332.0L331.0 219.0C331.0 217.89543 331.89542 217.0 333.0 217.0L448.0 217.0C449.10458 217.0 450.0 217.89543 450.0 219.0Z" fill-rule="nonzero"/><path stroke="#4285f4" stroke-width="3.0" stroke-linejoin="round" stroke-linecap="round" d="M266.76562 125.43056L265.6875 125.43056L265.6875 118.21181L263.5 119.00868L263.5 118.02431L266.60938 116.85243L266.76562 116.85243L266.76562 125.43056ZM273.76562 125.43056L272.6875 125.43056L272.6875 118.21181L270.5 119.00868L270.5 118.02431L273.60938 116.85243L273.76562 116.85243L273.76562 125.43056Z" fill-rule="nonzero"/><path fill="#ffffff" d="M266.76562 125.43056L265.6875 125.43056L265.6875 118.21181L263.5 119.00868L263.5 118.02431L266.60938 116.85243L266.76562 116.85243L266.76562 125.43056ZM273.76562 125.43056L272.6875 125.43056L272.6875 118.21181L270.5 119.00868L270.5 118.02431L273.60938 116.85243L273.76562 116.85243L273.76562 125.43056Z" fill-rule="nonzero"/><path stroke="#ea4335" stroke-width="3.0" stroke-linejoin="round" stroke-linecap="round" d="M379.70312 229.39653L380.14062 225.14653L384.51562 225.14653L384.51562 226.14653L381.0625 226.14653L380.79688 228.47466Q381.4375 228.09966 382.23438 228.09966Q383.39062 228.09966 384.07812 228.8809Q384.76562 229.64653 384.76562 230.95903Q384.76562 232.27153 384.04688 233.03716Q383.34375 233.80278 382.0625 233.80278Q380.9375 233.80278 380.21875 233.17778Q379.5 232.53716 379.40625 231.42778L380.42188 231.42778Q380.53125 232.16216 380.95312 232.53716Q381.375 232.91216 382.0625 232.91216Q382.8125 232.91216 383.25 232.39653Q383.6875 231.8809 383.6875 230.97466Q383.6875 230.11528 383.21875 229.59966Q382.75 229.08403 381.96875 229.08403Q381.26562 229.08403 380.85938 229.3809L380.57812 229.61528L379.70312 229.39653ZM386.34375 233.11528Q386.34375 232.83403 386.5 232.64653Q386.67188 232.45903 387.0 232.45903Q387.34375 232.45903 387.51562 232.64653Q387.6875 232.83403 387.6875 233.11528Q387.6875 233.3809 387.51562 233.5684Q387.34375 233.74028 387.0 233.74028Q386.67188 233.74028 386.5 233.5684Q386.34375 233.3809 386.34375 233.11528ZM393.46875 225.14653L393.46875 226.05278L393.26562 226.05278Q392.0 226.08403 391.25 226.8184Q390.5 227.53716 390.375 228.84966Q391.0625 228.08403 392.21875 228.08403Q393.32812 228.08403 394.0 228.86528Q394.67188 229.64653 394.67188 230.89653Q394.67188 232.20903 393.95312 233.0059Q393.23438 233.80278 392.01562 233.80278Q390.79688 233.80278 390.03125 232.86528Q389.28125 231.91216 389.28125 230.42778L389.28125 230.02153Q389.28125 227.66216 390.28125 226.41216Q391.28125 225.16216 393.26562 225.14653L393.46875 225.14653ZM392.04688 228.99028Q391.48438 228.99028 391.01562 229.3184Q390.54688 229.64653 390.35938 230.16216L390.35938 230.55278Q390.35938 231.61528 390.82812 232.2559Q391.3125 232.89653 392.01562 232.89653Q392.75 232.89653 393.17188 232.36528Q393.59375 231.8184 393.59375 230.9434Q393.59375 230.0684 393.17188 229.53716Q392.75 228.99028 392.04688 228.99028ZM401.39062 227.36528Q401.39062 228.0059 401.04688 228.5059Q400.70312 229.0059 400.14062 229.28716Q400.79688 229.5684 401.1875 230.1309Q401.57812 230.67778 401.57812 231.3809Q401.57812 232.47466 400.82812 233.14653Q400.09375 233.80278 398.875 233.80278Q397.64062 233.80278 396.89062 233.14653Q396.15625 232.47466 396.15625 231.3809Q396.15625 230.67778 396.53125 230.1309Q396.90625 229.5684 397.57812 229.28716Q397.01562 229.0059 396.6875 228.5059Q396.35938 228.0059 396.35938 227.36528Q396.35938 226.28716 397.04688 225.66216Q397.73438 225.02153 398.875 225.02153Q400.0 225.02153 400.6875 225.66216Q401.39062 226.28716 401.39062 227.36528ZM400.5 231.34966Q400.5 230.6309 400.04688 230.1934Q399.59375 229.74028 398.85938 229.74028Q398.125 229.74028 397.67188 230.1934Q397.23438 230.6309 397.23438 231.36528Q397.23438 232.08403 397.67188 232.5059Q398.10938 232.91216 398.875 232.91216Q399.625 232.91216 400.0625 232.49028Q400.5 232.0684 400.5 231.34966ZM398.875 225.91216Q398.23438 225.91216 397.82812 226.3184Q397.4375 226.70903 397.4375 227.39653Q397.4375 228.03716 397.82812 228.4434Q398.21875 228.84966 398.85938 228.84966Q399.51562 228.84966 399.90625 228.4434Q400.29688 228.03716 400.29688 227.39653Q400.29688 226.74028 399.89062 226.33403Q399.48438 225.91216 398.875 225.91216Z" fill-rule="nonzero"/><path fill="#ffffff" d="M379.70312 229.39653L380.14062 225.14653L384.51562 225.14653L384.51562 226.14653L381.0625 226.14653L380.79688 228.47466Q381.4375 228.09966 382.23438 228.09966Q383.39062 228.09966 384.07812 228.8809Q384.76562 229.64653 384.76562 230.95903Q384.76562 232.27153 384.04688 233.03716Q383.34375 233.80278 382.0625 233.80278Q380.9375 233.80278 380.21875 233.17778Q379.5 232.53716 379.40625 231.42778L380.42188 231.42778Q380.53125 232.16216 380.95312 232.53716Q381.375 232.91216 382.0625 232.91216Q382.8125 232.91216 383.25 232.39653Q383.6875 231.8809 383.6875 230.97466Q383.6875 230.11528 383.21875 229.59966Q382.75 229.08403 381.96875 229.08403Q381.26562 229.08403 380.85938 229.3809L380.57812 229.61528L379.70312 229.39653ZM386.34375 233.11528Q386.34375 232.83403 386.5 232.64653Q386.67188 232.45903 387.0 232.45903Q387.34375 232.45903 387.51562 232.64653Q387.6875 232.83403 387.6875 233.11528Q387.6875 233.3809 387.51562 233.5684Q387.34375 233.74028 387.0 233.74028Q386.67188 233.74028 386.5 233.5684Q386.34375 233.3809 386.34375 233.11528ZM393.46875 225.14653L393.46875 226.05278L393.26562 226.05278Q392.0 226.08403 391.25 226.8184Q390.5 227.53716 390.375 228.84966Q391.0625 228.08403 392.21875 228.08403Q393.32812 228.08403 394.0 228.86528Q394.67188 229.64653 394.67188 230.89653Q394.67188 232.20903 393.95312 233.0059Q393.23438 233.80278 392.01562 233.80278Q390.79688 233.80278 390.03125 232.86528Q389.28125 231.91216 389.28125 230.42778L389.28125 230.02153Q389.28125 227.66216 390.28125 226.41216Q391.28125 225.16216 393.26562 225.14653L393.46875 225.14653ZM392.04688 228.99028Q391.48438 228.99028 391.01562 229.3184Q390.54688 229.64653 390.35938 230.16216L390.35938 230.55278Q390.35938 231.61528 390.82812 232.2559Q391.3125 232.89653 392.01562 232.89653Q392.75 232.89653 393.17188 232.36528Q393.59375 231.8184 393.59375 230.9434Q393.59375 230.0684 393.17188 229.53716Q392.75 228.99028 392.04688 228.99028ZM401.39062 227.36528Q401.39062 228.0059 401.04688 228.5059Q400.70312 229.0059 400.14062 229.28716Q400.79688 229.5684 401.1875 230.1309Q401.57812 230.67778 401.57812 231.3809Q401.57812 232.47466 400.82812 233.14653Q400.09375 233.80278 398.875 233.80278Q397.64062 233.80278 396.89062 233.14653Q396.15625 232.47466 396.15625 231.3809Q396.15625 230.67778 396.53125 230.1309Q396.90625 229.5684 397.57812 229.28716Q397.01562 229.0059 396.6875 228.5059Q396.35938 228.0059 396.35938 227.36528Q396.35938 226.28716 397.04688 225.66216Q397.73438 225.02153 398.875 225.02153Q400.0 225.02153 400.6875 225.66216Q401.39062 226.28716 401.39062 227.36528ZM400.5 231.34966Q400.5 230.6309 400.04688 230.1934Q399.59375 229.74028 398.85938 229.74028Q398.125 229.74028 397.67188 230.1934Q397.23438 230.6309 397.23438 231.36528Q397.23438 232.08403 397.67188 232.5059Q398.10938 232.91216 398.875 232.91216Q399.625 232.91216 400.0625 232.49028Q400.5 232.0684 400.5 231.34966ZM398.875 225.91216Q398.23438 225.91216 397.82812 226.3184Q397.4375 226.70903 397.4375 227.39653Q397.4375 228.03716 397.82812 228.4434Q398.21875 228.84966 398.85938 228.84966Q399.51562 228.84966 399.90625 228.4434Q400.29688 228.03716 400.29688 227.39653Q400.29688 226.74028 399.89062 226.33403Q399.48438 225.91216 398.875 225.91216Z" fill-rule="nonzero"/><path fill="#000000" d="M29.550013 249.10104L29.550013 250.08542L20.956263 250.08542L20.956263 249.02292L24.018763 249.02292Q23.190638 248.35104 23.190638 247.3198Q23.190638 246.74167 23.425013 246.24167Q23.643763 245.72604 24.065638 245.39792Q24.487513 245.05417 25.081263 244.86667Q25.675013 244.67917 26.346888 244.67917Q27.940638 244.67917 28.815638 245.47604Q29.690638 246.27292 29.690638 247.36667Q29.690638 248.47604 28.768763 249.10104L29.550013 249.10104ZM26.393763 249.11667Q27.503138 249.11667 28.003138 248.80417Q28.815638 248.30417 28.815638 247.46042Q28.815638 246.77292 28.221888 246.27292Q27.628138 245.7573 26.425013 245.7573Q25.206263 245.7573 24.628138 246.24167Q24.050013 246.72604 24.050013 247.41354Q24.050013 248.10104 24.659388 248.61667Q25.253138 249.11667 26.393763 249.11667ZM22.175013 243.0698L20.956263 243.0698L20.956263 242.0073L22.175013 242.0073L22.175013 243.0698ZM29.550013 243.0698L23.331263 243.0698L23.331263 242.0073L29.550013 242.0073L29.550013 243.0698ZM28.612513 237.77292L29.534388 237.61667Q29.628138 238.0698 29.628138 238.41354Q29.628138 238.99167 29.456263 239.30417Q29.268763 239.61667 28.971888 239.7573Q28.675013 239.8823 27.721888 239.8823L24.143763 239.8823L24.143763 240.64792L23.331263 240.64792L23.331263 239.8823L21.784388 239.8823L21.159388 238.83542L23.331263 238.83542L23.331263 237.77292L24.143763 237.77292L24.143763 238.83542L27.784388 238.83542Q28.237513 238.83542 28.362513 238.78854Q28.487513 238.72604 28.565638 238.60104Q28.643763 238.47604 28.643763 238.24167Q28.643763 238.05417 28.612513 237.77292ZM29.550013 237.08542L23.331263 237.08542L23.331263 236.1323L24.268763 236.1323Q23.612513 235.77292 23.409388 235.47604Q23.190638 235.16354 23.190638 234.78854Q23.190638 234.2573 23.518763 233.71042L24.503138 234.0698Q24.268763 234.46042 24.268763 234.83542Q24.268763 235.1948 24.487513 235.47604Q24.690638 235.74167 25.065638 235.85104Q25.628138 236.03854 26.284388 236.03854L29.550013 236.03854L29.550013 237.08542ZM28.784388 229.0073Q29.284388 229.60104 29.487513 230.14792Q29.690638 230.67917 29.690638 231.30417Q29.690638 232.33542 29.190638 232.8823Q28.690638 233.42917 27.909388 233.42917Q27.456263 233.42917 27.081263 233.22604Q26.690638 233.02292 26.471888 232.67917Q26.237513 232.33542 26.128138 231.91354Q26.034388 231.61667 25.956263 230.97604Q25.815638 229.71042 25.596888 229.10104Q25.378138 229.10104 25.331263 229.10104Q24.675013 229.10104 24.409388 229.39792Q24.065638 229.80417 24.065638 230.60104Q24.065638 231.33542 24.331263 231.6948Q24.581263 232.05417 25.237513 232.22604L25.096888 233.2573Q24.440638 233.11667 24.034388 232.78854Q23.628138 232.46042 23.409388 231.85104Q23.190638 231.24167 23.190638 230.4448Q23.190638 229.64792 23.378138 229.14792Q23.565638 228.64792 23.846888 228.41354Q24.128138 228.17917 24.565638 228.08542Q24.831263 228.03854 25.534388 228.03854L26.940638 228.03854Q28.409388 228.03854 28.800013 227.97604Q29.190638 227.89792 29.550013 227.6948L29.550013 228.80417Q29.221888 228.96042 28.784388 229.0073ZM26.425013 229.10104Q26.659388 229.67917 26.831263 230.8198Q26.925013 231.47604 27.050013 231.74167Q27.159388 232.0073 27.378138 232.16354Q27.596888 232.30417 27.878138 232.30417Q28.300013 232.30417 28.581263 231.99167Q28.862513 231.66354 28.862513 231.05417Q28.862513 230.4448 28.596888 229.97604Q28.331263 229.49167 27.862513 229.27292Q27.503138 229.10104 26.815638 229.10104L26.425013 229.10104ZM28.612513 223.77292L29.534388 223.61667Q29.628138 224.0698 29.628138 224.41354Q29.628138 224.99167 29.456263 225.30417Q29.268763 225.61667 28.971888 225.7573Q28.675013 225.8823 27.721888 225.8823L24.143763 225.8823L24.143763 226.64792L23.331263 226.64792L23.331263 225.8823L21.784388 225.8823L21.159388 224.83542L23.331263 224.83542L23.331263 223.77292L24.143763 223.77292L24.143763 224.83542L27.784388 224.83542Q28.237513 224.83542 28.362513 224.78854Q28.487513 224.72604 28.565638 224.60104Q28.643763 224.47604 28.643763 224.24167Q28.643763 224.05417 28.612513 223.77292ZM27.550013 218.8198L27.675013 217.72604Q28.628138 217.97604 29.159388 218.67917Q29.690638 219.3823 29.690638 220.46042Q29.690638 221.8198 28.846888 222.6323Q28.003138 223.42917 26.487513 223.42917Q24.925013 223.42917 24.065638 222.61667Q23.190638 221.80417 23.190638 220.52292Q23.190638 219.27292 24.034388 218.49167Q24.878138 217.6948 26.425013 217.6948Q26.518763 217.6948 26.706263 217.6948L26.706263 222.33542Q27.737513 222.27292 28.284388 221.7573Q28.815638 221.24167 28.815638 220.46042Q28.815638 219.8823 28.518763 219.47604Q28.206263 219.05417 27.550013 218.8198ZM25.846888 222.27292L25.846888 218.80417Q25.050013 218.86667 24.659388 219.1948Q24.050013 219.71042 24.050013 220.5073Q24.050013 221.24167 24.534388 221.74167Q25.018763 222.22604 25.846888 222.27292ZM32.08126 214.05417Q30.971888 214.92917 29.503138 215.53854Q28.018763 216.1323 26.440638 216.1323Q25.050013 216.1323 23.768763 215.6948Q22.284388 215.16354 20.815638 214.05417L20.815638 213.30417Q22.034388 214.0073 22.550013 214.24167Q23.362513 214.60104 24.237513 214.80417Q25.331263 215.05417 26.440638 215.05417Q29.268763 215.05417 32.08126 213.30417L32.08126 214.05417ZM26.175013 207.91354L25.175013 207.91354L25.159388 204.28854L28.346888 204.28854Q29.018763 205.11667 29.362513 206.0073Q29.690638 206.89792 29.690638 207.83542Q29.690638 209.10104 29.159388 210.14792Q28.612513 211.17917 27.596888 211.71042Q26.565638 212.22604 25.300013 212.22604Q24.034388 212.22604 22.956263 211.71042Q21.862513 211.17917 21.346888 210.1948Q20.815638 209.21042 20.815638 207.92917Q20.815638 206.99167 21.112513 206.24167Q21.409388 205.49167 21.956263 205.0698Q22.487513 204.6323 23.362513 204.41354L23.643763 205.42917Q22.987513 205.6323 22.612513 205.92917Q22.237513 206.21042 22.018763 206.74167Q21.784388 207.27292 21.784388 207.91354Q21.784388 208.6948 22.018763 209.27292Q22.253138 209.83542 22.643763 210.1948Q23.034388 210.53854 23.503138 210.72604Q24.300013 211.05417 25.221888 211.05417Q26.378138 211.05417 27.159388 210.66354Q27.925013 210.2573 28.300013 209.5073Q28.675013 208.7573 28.675013 207.89792Q28.675013 207.16354 28.393763 206.46042Q28.096888 205.7573 27.784388 205.39792L26.175013 205.39792L26.175013 207.91354ZM29.550013 202.10104L29.550013 203.08542L20.956263 203.08542L20.956263 202.02292L24.018763 202.02292Q23.190638 201.35104 23.190638 200.3198Q23.190638 199.74167 23.425013 199.24167Q23.643763 198.72604 24.065638 198.39792Q24.487513 198.05417 25.081263 197.86667Q25.675013 197.67917 26.346888 197.67917Q27.940638 197.67917 28.815638 198.47604Q29.690638 199.27292 29.690638 200.36667Q29.690638 201.47604 28.768763 202.10104L29.550013 202.10104ZM26.393763 202.11667Q27.503138 202.11667 28.003138 201.80417Q28.815638 201.30417 28.815638 200.46042Q28.815638 199.77292 28.221888 199.27292Q27.628138 198.7573 26.425013 198.7573Q25.206263 198.7573 24.628138 199.24167Q24.050013 199.72604 24.050013 200.41354Q24.050013 201.10104 24.659388 201.61667Q25.253138 202.11667 26.393763 202.11667ZM29.690638 196.86667L20.815638 194.3823L20.815638 193.53854L29.690638 196.02292L29.690638 196.86667ZM27.690638 193.49167L27.534388 192.46042Q28.159388 192.36667 28.487513 191.97604Q28.815638 191.5698 28.815638 190.83542Q28.815638 190.11667 28.534388 189.77292Q28.237513 189.41354 27.831263 189.41354Q27.471888 189.41354 27.268763 189.72604Q27.128138 189.9448 26.909388 190.80417Q26.612513 191.96042 26.409388 192.41354Q26.190638 192.85104 25.815638 193.08542Q25.440638 193.3198 24.971888 193.3198Q24.565638 193.3198 24.206263 193.1323Q23.846888 192.9448 23.612513 192.61667Q23.440638 192.36667 23.315638 191.9448Q23.190638 191.52292 23.190638 191.02292Q23.190638 190.30417 23.409388 189.7573Q23.612513 189.1948 23.971888 188.92917Q24.331263 188.66354 24.925013 188.5698L25.065638 189.60104Q24.596888 189.66354 24.331263 190.0073Q24.050013 190.33542 24.050013 190.96042Q24.050013 191.67917 24.300013 191.99167Q24.534388 192.30417 24.862513 192.30417Q25.065638 192.30417 25.221888 192.17917Q25.393763 192.03854 25.503138 191.77292Q25.565638 191.61667 25.768763 190.83542Q26.081263 189.71042 26.268763 189.27292Q26.456263 188.83542 26.815638 188.58542Q27.175013 188.33542 27.721888 188.33542Q28.253138 188.33542 28.721888 188.64792Q29.175013 188.9448 29.440638 189.52292Q29.690638 190.10104 29.690638 190.83542Q29.690638 192.05417 29.190638 192.6948Q28.675013 193.3198 27.690638 193.49167ZM32.08126 185.3823L32.08126 186.1323Q29.268763 184.3823 26.440638 184.3823Q25.346888 184.3823 24.253138 184.6323Q23.378138 184.83542 22.565638 185.1948Q22.050013 185.42917 20.815638 186.1323L20.815638 185.3823Q22.284388 184.28854 23.768763 183.7573Q25.050013 183.30417 26.440638 183.30417Q28.018763 183.30417 29.503138 183.91354Q30.971888 184.52292 32.08126 185.3823Z" fill-rule="nonzero"/><path fill="#000000" d="M65.05 332.21564Q65.05 330.6844 65.3625 329.7625Q65.675 328.825 66.28438 328.325Q66.90938 327.825 67.84688 327.825Q68.53438 327.825 69.05 328.10626Q69.58125 328.3875 69.925 328.91876Q70.26875 329.4344 70.45625 330.1844Q70.64375 330.9344 70.64375 332.21564Q70.64375 333.73126 70.33125 334.65314Q70.03438 335.575 69.40938 336.09064Q68.8 336.59064 67.84688 336.59064Q66.6125 336.59064 65.89375 335.7Q65.05 334.6375 65.05 332.21564ZM66.12813 332.21564Q66.12813 334.325 66.62813 335.02814Q67.12813 335.73126 67.84688 335.73126Q68.58125 335.73126 69.06563 335.02814Q69.56563 334.325 69.56563 332.21564Q69.56563 330.09064 69.06563 329.40314Q68.58125 328.7 67.83125 328.7Q67.1125 328.7 66.675 329.3094Q66.12813 330.09064 66.12813 332.21564Z" fill-rule="nonzero"/><path fill="#000000" d="M70.59688 294.73993L70.59688 295.75555L64.90938 295.75555Q64.90938 295.38055 65.03438 295.02118Q65.25313 294.44305 65.72188 293.88055Q66.20625 293.31805 67.1125 292.58368Q68.51875 291.42743 69.00313 290.75555Q69.50313 290.08368 69.50313 289.48993Q69.50313 288.86493 69.05 288.44305Q68.59688 288.00555 67.87813 288.00555Q67.1125 288.00555 66.65938 288.45868Q66.20625 288.9118 66.19063 289.7243L65.1125 289.61493Q65.22188 288.39618 65.94063 287.77118Q66.675 287.13055 67.90938 287.13055Q69.14375 287.13055 69.8625 287.81805Q70.58125 288.50555 70.58125 289.52118Q70.58125 290.0368 70.3625 290.5368Q70.15938 291.02118 69.65938 291.58368Q69.175 292.13055 68.05 293.08368Q67.09688 293.88055 66.81563 294.17743Q66.55 294.45868 66.37813 294.73993L70.59688 294.73993Z" fill-rule="nonzero"/><path fill="#000000" d="M68.425 255.06111L68.425 252.99861L64.70625 252.99861L64.70625 252.02986L68.62813 246.46736L69.4875 246.46736L69.4875 252.02986L70.64375 252.02986L70.64375 252.99861L69.4875 252.99861L69.4875 255.06111L68.425 255.06111ZM68.425 252.02986L68.425 248.17049L65.7375 252.02986L68.425 252.02986Z" fill-rule="nonzero"/><path fill="#000000" d="M70.51875 207.8823L69.47188 207.96042Q69.33125 207.33542 69.08125 207.05417Q68.64375 206.60104 68.01875 206.60104Q67.51875 206.60104 67.12813 206.8823Q66.64375 207.2573 66.34688 207.96042Q66.06563 208.64792 66.05 209.92917Q66.425 209.35104 66.97188 209.0698Q67.53438 208.78854 68.14375 208.78854Q69.19063 208.78854 69.925 209.5698Q70.675 210.35104 70.675 211.5698Q70.675 212.3823 70.31563 213.08542Q69.97188 213.77292 69.3625 214.14792Q68.75313 214.5073 67.9875 214.5073Q66.65938 214.5073 65.83125 213.53854Q65.00313 212.5698 65.00313 210.35104Q65.00313 207.85104 65.925 206.72604Q66.72188 205.74167 68.08125 205.74167Q69.09688 205.74167 69.7375 206.3198Q70.39375 206.8823 70.51875 207.8823ZM66.22188 211.58542Q66.22188 212.1323 66.44063 212.6323Q66.675 213.11667 67.08125 213.3823Q67.50313 213.64792 67.97188 213.64792Q68.62813 213.64792 69.1125 213.11667Q69.59688 212.5698 69.59688 211.64792Q69.59688 210.7573 69.1125 210.24167Q68.64375 209.72604 67.925 209.72604Q67.20625 209.72604 66.70625 210.24167Q66.22188 210.7573 66.22188 211.58542Z" fill-rule="nonzero"/><path fill="#000000" d="M66.675 169.01598Q66.01875 168.76598 65.69063 168.32848Q65.37813 167.87535 65.37813 167.26598Q65.37813 166.32848 66.05 165.68785Q66.7375 165.04723 67.84688 165.04723Q68.97188 165.04723 69.65938 165.70348Q70.34688 166.35973 70.34688 167.29723Q70.34688 167.89098 70.03438 168.32848Q69.72188 168.76598 69.08125 169.01598Q69.87813 169.26598 70.28438 169.8441Q70.69063 170.42223 70.69063 171.2191Q70.69063 172.31285 69.90938 173.06285Q69.14375 173.81285 67.8625 173.81285Q66.59688 173.81285 65.81563 173.06285Q65.03438 172.31285 65.03438 171.18785Q65.03438 170.3441 65.45625 169.7816Q65.89375 169.2191 66.675 169.01598ZM66.45625 167.2191Q66.45625 167.82848 66.84688 168.2191Q67.25313 168.60973 67.87813 168.60973Q68.4875 168.60973 68.87813 168.23473Q69.26875 167.8441 69.26875 167.2816Q69.26875 166.70348 68.8625 166.31285Q68.45625 165.9066 67.8625 165.9066Q67.25313 165.9066 66.84688 166.29723Q66.45625 166.68785 66.45625 167.2191ZM66.12813 171.18785Q66.12813 171.64098 66.33125 172.06285Q66.55 172.48473 66.97188 172.7191Q67.39375 172.95348 67.87813 172.95348Q68.62813 172.95348 69.1125 172.4691Q69.6125 171.98473 69.6125 171.23473Q69.6125 170.4691 69.1125 169.9691Q68.6125 169.4691 67.84688 169.4691Q67.09688 169.4691 66.6125 169.9691Q66.12813 170.45348 66.12813 171.18785Z" fill-rule="nonzero"/><path fill="#000000" d="M62.01875 132.97778L60.971874 132.97778L60.971874 126.25903Q60.58125 126.61841 59.95625 126.99341Q59.346874 127.35278 58.8625 127.52466L58.8625 126.50903Q59.7375 126.08716 60.39375 125.50903Q61.065624 124.91528 61.346874 124.35278L62.01875 124.35278L62.01875 132.97778ZM65.05 128.74341Q65.05 127.21216 65.3625 126.29028Q65.675 125.35278 66.28438 124.85278Q66.90938 124.35278 67.84688 124.35278Q68.53438 124.35278 69.05 124.63403Q69.58125 124.91528 69.925 125.44653Q70.26875 125.96216 70.45625 126.71216Q70.64375 127.46216 70.64375 128.74341Q70.64375 130.25903 70.33125 131.18091Q70.03438 132.10278 69.40938 132.61841Q68.8 133.11841 67.84688 133.11841Q66.6125 133.11841 65.89375 132.22778Q65.05 131.16528 65.05 128.74341ZM66.12813 128.74341Q66.12813 130.85278 66.62813 131.55591Q67.12813 132.25903 67.84688 132.25903Q68.58125 132.25903 69.06563 131.55591Q69.56563 130.85278 69.56563 128.74341Q69.56563 126.61841 69.06563 125.93091Q68.58125 125.22778 67.83125 125.22778Q67.1125 125.22778 66.675 125.83716Q66.12813 126.61841 66.12813 128.74341Z" fill-rule="nonzero"/><path fill="#000000" d="M62.01875 92.28333L60.971874 92.28333L60.971874 85.56458Q60.58125 85.92396 59.95625 86.29896Q59.346874 86.65833 58.8625 86.83021L58.8625 85.81458Q59.7375 85.39271 60.39375 84.81458Q61.065624 84.22083 61.346874 83.65833L62.01875 83.65833L62.01875 92.28333ZM70.59688 91.26771L70.59688 92.28333L64.90938 92.28333Q64.90938 91.90833 65.03438 91.54896Q65.25313 90.97083 65.72188 90.40833Q66.20625 89.84583 67.1125 89.11146Q68.51875 87.95521 69.00313 87.28333Q69.50313 86.61146 69.50313 86.01771Q69.50313 85.39271 69.05 84.97083Q68.59688 84.53333 67.87813 84.53333Q67.1125 84.53333 66.65938 84.98646Q66.20625 85.43958 66.19063 86.25208L65.1125 86.14271Q65.22188 84.92396 65.94063 84.29896Q66.675 83.65833 67.90938 83.65833Q69.14375 83.65833 69.8625 84.34583Q70.58125 85.03333 70.58125 86.04896Q70.58125 86.56458 70.3625 87.06458Q70.15938 87.54896 69.65938 88.11146Q69.175 88.65833 68.05 89.61146Q67.09688 90.40833 66.81563 90.70521Q66.55 90.98646 66.37813 91.26771L70.59688 91.26771Z" fill-rule="nonzero"/><path fill="#000000" d="M297.26562 349.45L296.28125 349.45L296.28125 340.85626L297.34375 340.85626L297.34375 343.91876Q298.01562 343.09064 299.04688 343.09064Q299.625 343.09064 300.125 343.325Q300.64062 343.54376 300.96875 343.96564Q301.3125 344.3875 301.5 344.98126Q301.6875 345.575 301.6875 346.2469Q301.6875 347.84064 300.89062 348.71564Q300.09375 349.59064 299.0 349.59064Q297.89062 349.59064 297.26562 348.66876L297.26562 349.45ZM297.25 346.29376Q297.25 347.40314 297.5625 347.90314Q298.0625 348.71564 298.90625 348.71564Q299.59375 348.71564 300.09375 348.1219Q300.60938 347.52814 300.60938 346.325Q300.60938 345.10626 300.125 344.52814Q299.64062 343.95 298.95312 343.95Q298.26562 343.95 297.75 344.5594Q297.25 345.15314 297.25 346.29376ZM303.29688 342.075L303.29688 340.85626L304.35938 340.85626L304.35938 342.075L303.29688 342.075ZM303.29688 349.45L303.29688 343.23126L304.35938 343.23126L304.35938 349.45L303.29688 349.45ZM308.59375 348.5125L308.75 349.4344Q308.29688 349.52814 307.95312 349.52814Q307.375 349.52814 307.0625 349.35626Q306.75 349.16876 306.60938 348.8719Q306.48438 348.575 306.48438 347.6219L306.48438 344.04376L305.71875 344.04376L305.71875 343.23126L306.48438 343.23126L306.48438 341.6844L307.53125 341.0594L307.53125 343.23126L308.59375 343.23126L308.59375 344.04376L307.53125 344.04376L307.53125 347.6844Q307.53125 348.1375 307.57812 348.2625Q307.64062 348.3875 307.76562 348.46564Q307.89062 348.54376 308.125 348.54376Q308.3125 348.54376 308.59375 348.5125ZM309.28125 349.45L309.28125 343.23126L310.23438 343.23126L310.23438 344.16876Q310.59375 343.5125 310.89062 343.3094Q311.20312 343.09064 311.57812 343.09064Q312.10938 343.09064 312.65625 343.41876L312.29688 344.40314Q311.90625 344.16876 311.53125 344.16876Q311.17188 344.16876 310.89062 344.3875Q310.625 344.59064 310.51562 344.96564Q310.32812 345.52814 310.32812 346.1844L310.32812 349.45L309.28125 349.45ZM317.35938 348.6844Q316.76562 349.1844 316.21875 349.3875Q315.6875 349.59064 315.0625 349.59064Q314.03125 349.59064 313.48438 349.09064Q312.9375 348.59064 312.9375 347.8094Q312.9375 347.35626 313.14062 346.98126Q313.34375 346.59064 313.6875 346.3719Q314.03125 346.1375 314.45312 346.02814Q314.75 345.9344 315.39062 345.85626Q316.65625 345.71564 317.26562 345.4969Q317.26562 345.27814 317.26562 345.23126Q317.26562 344.575 316.96875 344.3094Q316.5625 343.96564 315.76562 343.96564Q315.03125 343.96564 314.67188 344.23126Q314.3125 344.48126 314.14062 345.1375L313.10938 344.9969Q313.25 344.34064 313.57812 343.9344Q313.90625 343.52814 314.51562 343.3094Q315.125 343.09064 315.92188 343.09064Q316.71875 343.09064 317.21875 343.27814Q317.71875 343.46564 317.95312 343.7469Q318.1875 344.02814 318.28125 344.46564Q318.32812 344.73126 318.32812 345.4344L318.32812 346.84064Q318.32812 348.3094 318.39062 348.7Q318.46875 349.09064 318.67188 349.45L317.5625 349.45Q317.40625 349.1219 317.35938 348.6844ZM317.26562 346.325Q316.6875 346.5594 315.54688 346.73126Q314.89062 346.825 314.625 346.95Q314.35938 347.0594 314.20312 347.27814Q314.0625 347.4969 314.0625 347.77814Q314.0625 348.2 314.375 348.48126Q314.70312 348.7625 315.3125 348.7625Q315.92188 348.7625 316.39062 348.4969Q316.875 348.23126 317.09375 347.7625Q317.26562 347.40314 317.26562 346.71564L317.26562 346.325ZM322.59375 348.5125L322.75 349.4344Q322.29688 349.52814 321.95312 349.52814Q321.375 349.52814 321.0625 349.35626Q320.75 349.16876 320.60938 348.8719Q320.48438 348.575 320.48438 347.6219L320.48438 344.04376L319.71875 344.04376L319.71875 343.23126L320.48438 343.23126L320.48438 341.6844L321.53125 341.0594L321.53125 343.23126L322.59375 343.23126L322.59375 344.04376L321.53125 344.04376L321.53125 347.6844Q321.53125 348.1375 321.57812 348.2625Q321.64062 348.3875 321.76562 348.46564Q321.89062 348.54376 322.125 348.54376Q322.3125 348.54376 322.59375 348.5125ZM327.54688 347.45L328.64062 347.575Q328.39062 348.52814 327.6875 349.0594Q326.98438 349.59064 325.90625 349.59064Q324.54688 349.59064 323.73438 348.7469Q322.9375 347.90314 322.9375 346.3875Q322.9375 344.825 323.75 343.96564Q324.5625 343.09064 325.84375 343.09064Q327.09375 343.09064 327.875 343.9344Q328.67188 344.77814 328.67188 346.325Q328.67188 346.41876 328.67188 346.60626L324.03125 346.60626Q324.09375 347.6375 324.60938 348.1844Q325.125 348.71564 325.90625 348.71564Q326.48438 348.71564 326.89062 348.41876Q327.3125 348.10626 327.54688 347.45ZM324.09375 345.7469L327.5625 345.7469Q327.5 344.95 327.17188 344.5594Q326.65625 343.95 325.85938 343.95Q325.125 343.95 324.625 344.4344Q324.14062 344.91876 324.09375 345.7469ZM332.3125 351.98126Q331.4375 350.8719 330.82812 349.40314Q330.23438 347.91876 330.23438 346.34064Q330.23438 344.95 330.67188 343.66876Q331.20312 342.1844 332.3125 340.71564L333.0625 340.71564Q332.35938 341.9344 332.125 342.45Q331.76562 343.2625 331.5625 344.1375Q331.3125 345.23126 331.3125 346.34064Q331.3125 349.16876 333.0625 351.98126L332.3125 351.98126ZM338.45312 346.075L338.45312 345.075L342.07812 345.0594L342.07812 348.2469Q341.25 348.91876 340.35938 349.2625Q339.46875 349.59064 338.53125 349.59064Q337.26562 349.59064 336.21875 349.0594Q335.1875 348.5125 334.65625 347.4969Q334.14062 346.46564 334.14062 345.2Q334.14062 343.9344 334.65625 342.85626Q335.1875 341.7625 336.17188 341.2469Q337.15625 340.71564 338.4375 340.71564Q339.375 340.71564 340.125 341.0125Q340.875 341.3094 341.29688 341.85626Q341.73438 342.3875 341.95312 343.2625L340.9375 343.54376Q340.73438 342.8875 340.4375 342.5125Q340.15625 342.1375 339.625 341.91876Q339.09375 341.6844 338.45312 341.6844Q337.67188 341.6844 337.09375 341.91876Q336.53125 342.15314 336.17188 342.54376Q335.82812 342.9344 335.64062 343.40314Q335.3125 344.2 335.3125 345.1219Q335.3125 346.27814 335.70312 347.0594Q336.10938 347.825 336.85938 348.2Q337.60938 348.575 338.46875 348.575Q339.20312 348.575 339.90625 348.29376Q340.60938 347.9969 340.96875 347.6844L340.96875 346.075L338.45312 346.075ZM344.26562 349.45L343.28125 349.45L343.28125 340.85626L344.34375 340.85626L344.34375 343.91876Q345.01562 343.09064 346.04688 343.09064Q346.625 343.09064 347.125 343.325Q347.64062 343.54376 347.96875 343.96564Q348.3125 344.3875 348.5 344.98126Q348.6875 345.575 348.6875 346.2469Q348.6875 347.84064 347.89062 348.71564Q347.09375 349.59064 346.0 349.59064Q344.89062 349.59064 344.26562 348.66876L344.26562 349.45ZM344.25 346.29376Q344.25 347.40314 344.5625 347.90314Q345.0625 348.71564 345.90625 348.71564Q346.59375 348.71564 347.09375 348.1219Q347.60938 347.52814 347.60938 346.325Q347.60938 345.10626 347.125 344.52814Q346.64062 343.95 345.95312 343.95Q345.26562 343.95 344.75 344.5594Q344.25 345.15314 344.25 346.29376ZM349.5 349.59064L351.98438 340.71564L352.82812 340.71564L350.34375 349.59064L349.5 349.59064ZM352.875 347.59064L353.90625 347.4344Q354.0 348.0594 354.39062 348.3875Q354.79688 348.71564 355.53125 348.71564Q356.25 348.71564 356.59375 348.4344Q356.95312 348.1375 356.95312 347.73126Q356.95312 347.3719 356.64062 347.16876Q356.42188 347.02814 355.5625 346.8094Q354.40625 346.5125 353.95312 346.3094Q353.51562 346.09064 353.28125 345.71564Q353.04688 345.34064 353.04688 344.8719Q353.04688 344.46564 353.23438 344.10626Q353.42188 343.7469 353.75 343.5125Q354.0 343.34064 354.42188 343.21564Q354.84375 343.09064 355.34375 343.09064Q356.0625 343.09064 356.60938 343.3094Q357.17188 343.5125 357.4375 343.8719Q357.70312 344.23126 357.79688 344.825L356.76562 344.96564Q356.70312 344.4969 356.35938 344.23126Q356.03125 343.95 355.40625 343.95Q354.6875 343.95 354.375 344.2Q354.0625 344.4344 354.0625 344.7625Q354.0625 344.96564 354.1875 345.1219Q354.32812 345.29376 354.59375 345.40314Q354.75 345.46564 355.53125 345.66876Q356.65625 345.98126 357.09375 346.16876Q357.53125 346.35626 357.78125 346.71564Q358.03125 347.075 358.03125 347.6219Q358.03125 348.15314 357.71875 348.6219Q357.42188 349.075 356.84375 349.34064Q356.26562 349.59064 355.53125 349.59064Q354.3125 349.59064 353.67188 349.09064Q353.04688 348.575 352.875 347.59064ZM360.98438 351.98126L360.23438 351.98126Q361.98438 349.16876 361.98438 346.34064Q361.98438 345.2469 361.73438 344.15314Q361.53125 343.27814 361.17188 342.46564Q360.9375 341.95 360.23438 340.71564L360.98438 340.71564Q362.07812 342.1844 362.60938 343.66876Q363.0625 344.95 363.0625 346.34064Q363.0625 347.91876 362.45312 349.40314Q361.84375 350.8719 360.98438 351.98126Z" fill-rule="nonzero"/><path fill="#4285f4" d="M246.0 56.916668C246.0 56.364384 246.44771 55.916668 247.0 55.916668L257.0 55.916668C257.55228 55.916668 258.0 56.364384 258.0 56.916668L258.0 66.916664C258.0 67.46895 257.55228 67.916664 257.0 67.916664L247.0 67.916664C246.44771 67.916664 246.0 67.46895 246.0 66.916664Z" fill-rule="nonzero"/><path fill="#1a1a1a" d="M266.78125 65.916664L266.78125 59.697914L267.73438 59.697914L267.73438 60.635414Q268.09375 59.979164 268.39062 59.77604Q268.70312 59.55729 269.07812 59.55729Q269.60938 59.55729 270.15625 59.885414L269.79688 60.86979Q269.40625 60.635414 269.03125 60.635414Q268.67188 60.635414 268.39062 60.854164Q268.125 61.05729 268.01562 61.43229Q267.82812 61.99479 267.82812 62.65104L267.82812 65.916664L266.78125 65.916664ZM274.85938 65.15104Q274.26562 65.65104 273.71875 65.854164Q273.1875 66.05729 272.5625 66.05729Q271.53125 66.05729 270.98438 65.55729Q270.4375 65.05729 270.4375 64.27604Q270.4375 63.822914 270.64062 63.447914Q270.84375 63.05729 271.1875 62.83854Q271.53125 62.604164 271.95312 62.49479Q272.25 62.40104 272.89062 62.322914Q274.15625 62.18229 274.76562 61.96354Q274.76562 61.74479 274.76562 61.697914Q274.76562 61.041664 274.46875 60.77604Q274.0625 60.43229 273.26562 60.43229Q272.53125 60.43229 272.17188 60.697914Q271.8125 60.947914 271.64062 61.604164L270.60938 61.46354Q270.75 60.80729 271.07812 60.40104Q271.40625 59.99479 272.01562 59.77604Q272.625 59.55729 273.42188 59.55729Q274.21875 59.55729 274.71875 59.74479Q275.21875 59.93229 275.45312 60.21354Q275.6875 60.49479 275.78125 60.93229Q275.82812 61.197914 275.82812 61.90104L275.82812 63.30729Q275.82812 64.77604 275.89062 65.166664Q275.96875 65.55729 276.17188 65.916664L275.0625 65.916664Q274.90625 65.58854 274.85938 65.15104ZM274.76562 62.791664Q274.1875 63.02604 273.04688 63.197914Q272.39062 63.291664 272.125 63.416664Q271.85938 63.52604 271.70312 63.74479Q271.5625 63.96354 271.5625 64.24479Q271.5625 64.666664 271.875 64.947914Q272.20312 65.229164 272.8125 65.229164Q273.42188 65.229164 273.89062 64.96354Q274.375 64.697914 274.59375 64.229164Q274.76562 63.86979 274.76562 63.18229L274.76562 62.791664ZM280.09375 64.979164L280.25 65.90104Q279.79688 65.99479 279.45312 65.99479Q278.875 65.99479 278.5625 65.822914Q278.25 65.635414 278.10938 65.33854Q277.98438 65.041664 277.98438 64.08854L277.98438 60.510414L277.21875 60.510414L277.21875 59.697914L277.98438 59.697914L277.98438 58.15104L279.03125 57.52604L279.03125 59.697914L280.09375 59.697914L280.09375 60.510414L279.03125 60.510414L279.03125 64.15104Q279.03125 64.604164 279.07812 64.729164Q279.14062 64.854164 279.26562 64.93229Q279.39062 65.010414 279.625 65.010414Q279.8125 65.010414 280.09375 64.979164ZM280.79688 65.916664L280.79688 57.322914L281.84375 57.322914L281.84375 60.40104Q282.57812 59.55729 283.70312 59.55729Q284.40625 59.55729 284.90625 59.83854Q285.42188 60.104164 285.64062 60.58854Q285.85938 61.05729 285.85938 61.979164L285.85938 65.916664L284.8125 65.916664L284.8125 61.979164Q284.8125 61.18229 284.46875 60.822914Q284.125 60.46354 283.5 60.46354Q283.03125 60.46354 282.60938 60.71354Q282.20312 60.947914 282.01562 61.36979Q281.84375 61.77604 281.84375 62.510414L281.84375 65.916664L280.79688 65.916664ZM287.40625 62.80729Q287.40625 61.072914 288.35938 60.24479Q289.15625 59.55729 290.3125 59.55729Q291.59375 59.55729 292.40625 60.40104Q293.23438 61.229164 293.23438 62.71354Q293.23438 63.916664 292.875 64.604164Q292.51562 65.291664 291.8125 65.68229Q291.125 66.05729 290.3125 66.05729Q289.01562 66.05729 288.20312 65.229164Q287.40625 64.385414 287.40625 62.80729ZM288.48438 62.80729Q288.48438 63.99479 289.0 64.58854Q289.53125 65.18229 290.3125 65.18229Q291.10938 65.18229 291.625 64.58854Q292.14062 63.99479 292.14062 62.77604Q292.14062 61.61979 291.60938 61.02604Q291.09375 60.43229 290.3125 60.43229Q289.53125 60.43229 289.0 61.02604Q288.48438 61.604164 288.48438 62.80729ZM294.76562 65.916664L294.76562 57.322914L295.82812 57.322914L295.82812 65.916664L294.76562 65.916664ZM302.04688 63.916664L303.14062 64.041664Q302.89062 64.99479 302.1875 65.52604Q301.48438 66.05729 300.40625 66.05729Q299.04688 66.05729 298.23438 65.21354Q297.4375 64.36979 297.4375 62.854164Q297.4375 61.291664 298.25 60.43229Q299.0625 59.55729 300.34375 59.55729Q301.59375 59.55729 302.375 60.40104Q303.17188 61.24479 303.17188 62.791664Q303.17188 62.885414 303.17188 63.072914L298.53125 63.072914Q298.59375 64.104164 299.10938 64.65104Q299.625 65.18229 300.40625 65.18229Q300.98438 65.18229 301.39062 64.885414Q301.8125 64.572914 302.04688 63.916664ZM298.59375 62.21354L302.0625 62.21354Q302.0 61.416664 301.67188 61.02604Q301.15625 60.416664 300.35938 60.416664Q299.625 60.416664 299.125 60.90104Q298.64062 61.385414 298.59375 62.21354Z" fill-rule="nonzero"/><path fill="#ea4335" d="M320.0 56.916668C320.0 56.364384 320.44772 55.916668 321.0 55.916668L331.0 55.916668C331.55228 55.916668 332.0 56.364384 332.0 56.916668L332.0 66.916664C332.0 67.46895 331.55228 67.916664 331.0 67.916664L321.0 67.916664C320.44772 67.916664 320.0 67.46895 320.0 66.916664Z" fill-rule="nonzero"/><path fill="#1a1a1a" d="M341.04688 65.916664L341.04688 60.510414L340.10938 60.510414L340.10938 59.697914L341.04688 59.697914L341.04688 59.02604Q341.04688 58.40104 341.15625 58.104164Q341.3125 57.68229 341.6875 57.43229Q342.07812 57.18229 342.76562 57.18229Q343.21875 57.18229 343.75 57.291664L343.59375 58.197914Q343.26562 58.15104 342.96875 58.15104Q342.48438 58.15104 342.28125 58.354164Q342.09375 58.55729 342.09375 59.11979L342.09375 59.697914L343.3125 59.697914L343.3125 60.510414L342.09375 60.510414L342.09375 65.916664L341.04688 65.916664ZM343.78125 65.916664L343.78125 59.697914L344.73438 59.697914L344.73438 60.635414Q345.09375 59.979164 345.39062 59.77604Q345.70312 59.55729 346.07812 59.55729Q346.60938 59.55729 347.15625 59.885414L346.79688 60.86979Q346.40625 60.635414 346.03125 60.635414Q345.67188 60.635414 345.39062 60.854164Q345.125 61.05729 345.01562 61.43229Q344.82812 61.99479 344.82812 62.65104L344.82812 65.916664L343.78125 65.916664ZM347.79688 68.30729L347.79688 59.697914L348.75 59.697914L348.75 60.49479Q349.09375 60.02604 349.51562 59.791664Q349.95312 59.55729 350.5625 59.55729Q351.35938 59.55729 351.96875 59.96354Q352.57812 60.36979 352.875 61.11979Q353.1875 61.86979 353.1875 62.760414Q353.1875 63.71354 352.84375 64.479164Q352.51562 65.24479 351.85938 65.65104Q351.20312 66.05729 350.48438 66.05729Q349.95312 66.05729 349.53125 65.83854Q349.10938 65.604164 348.84375 65.27604L348.84375 68.30729L347.79688 68.30729ZM348.75 62.83854Q348.75 64.041664 349.23438 64.61979Q349.71875 65.18229 350.40625 65.18229Q351.10938 65.18229 351.60938 64.58854Q352.10938 63.99479 352.10938 62.74479Q352.10938 61.55729 351.625 60.979164Q351.14062 60.385414 350.45312 60.385414Q349.78125 60.385414 349.26562 61.010414Q348.75 61.635414 348.75 62.83854Z" fill-rule="nonzero"/><path fill="#757575" d="M20.01875 37.55L20.01875 23.2375L25.39375 23.2375Q27.034374 23.2375 28.01875 23.675Q29.003124 24.096874 29.565624 25.003124Q30.128124 25.909374 30.128124 26.89375Q30.128124 27.815624 29.628124 28.628124Q29.14375 29.440624 28.128124 29.925Q29.425 30.315624 30.128124 31.2375Q30.83125 32.14375 30.83125 33.39375Q30.83125 34.409374 30.39375 35.26875Q29.971874 36.128124 29.346874 36.596874Q28.721874 37.065624 27.784374 37.315624Q26.846874 37.55 25.471874 37.55L20.01875 37.55ZM21.909374 29.253124L25.003124 29.253124Q26.26875 29.253124 26.815624 29.08125Q27.534374 28.8625 27.89375 28.378124Q28.26875 27.878124 28.26875 27.1125Q28.26875 26.409374 27.925 25.8625Q27.58125 25.315624 26.940624 25.128124Q26.315624 24.925 24.76875 24.925L21.909374 24.925L21.909374 29.253124ZM21.909374 35.8625L25.471874 35.8625Q26.39375 35.8625 26.76875 35.784374Q27.425 35.675 27.8625 35.409374Q28.3 35.128124 28.58125 34.6125Q28.8625 34.08125 28.8625 33.39375Q28.8625 32.596874 28.45625 32.003124Q28.05 31.409374 27.315624 31.175Q26.58125 30.940624 25.221874 30.940624L21.909374 30.940624L21.909374 35.8625ZM32.878124 25.253124L32.878124 23.2375L34.64375 23.2375L34.64375 25.253124L32.878124 25.253124ZM32.878124 37.55L32.878124 27.175L34.64375 27.175L34.64375 37.55L32.878124 37.55ZM40.70625 35.971874L40.95625 37.534374Q40.221874 37.690624 39.628124 37.690624Q38.675 37.690624 38.14375 37.39375Q37.628124 37.08125 37.409374 36.596874Q37.190624 36.096874 37.190624 34.51875L37.190624 28.55L35.909374 28.55L35.909374 27.175L37.190624 27.175L37.190624 24.6125L38.940624 23.55L38.940624 27.175L40.70625 27.175L40.70625 28.55L38.940624 28.55L38.940624 34.6125Q38.940624 35.3625 39.034374 35.58125Q39.128124 35.784374 39.33125 35.925Q39.55 36.05 39.940624 36.05Q40.221874 36.05 40.70625 35.971874ZM42.846874 37.55L42.846874 27.175L44.425 27.175L44.425 28.753124Q45.034374 27.64375 45.55 27.3Q46.065624 26.940624 46.675 26.940624Q47.565624 26.940624 48.4875 27.503124L47.878124 29.14375Q47.2375 28.753124 46.596874 28.753124Q46.01875 28.753124 45.55 29.1125Q45.096874 29.45625 44.89375 30.065624Q44.6125 31.003124 44.6125 32.1125L44.6125 37.55L42.846874 37.55ZM56.64375 36.26875Q55.659374 37.096874 54.753124 37.440624Q53.846874 37.784374 52.815624 37.784374Q51.1125 37.784374 50.190624 36.95625Q49.26875 36.1125 49.26875 34.815624Q49.26875 34.05 49.6125 33.425Q49.971874 32.8 50.534374 32.425Q51.096874 32.034374 51.8 31.83125Q52.315624 31.70625 53.3625 31.565624Q55.4875 31.315624 56.4875 30.971874Q56.503124 30.6125 56.503124 30.503124Q56.503124 29.440624 56.003124 28.9875Q55.33125 28.39375 54.003124 28.39375Q52.753124 28.39375 52.159374 28.83125Q51.58125 29.26875 51.3 30.378124L49.58125 30.14375Q49.815624 29.034374 50.346874 28.3625Q50.878124 27.675 51.89375 27.315624Q52.909374 26.940624 54.253124 26.940624Q55.58125 26.940624 56.409374 27.253124Q57.2375 27.565624 57.628124 28.05Q58.01875 28.51875 58.175 29.2375Q58.26875 29.690624 58.26875 30.8625L58.26875 33.20625Q58.26875 35.659374 58.378124 36.315624Q58.4875 36.95625 58.83125 37.55L56.9875 37.55Q56.721874 37.003124 56.64375 36.26875ZM56.4875 32.346874Q55.534374 32.7375 53.6125 33.003124Q52.534374 33.159374 52.08125 33.3625Q51.64375 33.55 51.39375 33.925Q51.14375 34.3 51.14375 34.76875Q51.14375 35.471874 51.675 35.940624Q52.20625 36.409374 53.2375 36.409374Q54.253124 36.409374 55.034374 35.971874Q55.83125 35.51875 56.20625 34.753124Q56.4875 34.14375 56.4875 32.9875L56.4875 32.346874ZM64.70625 35.971874L64.95625 37.534374Q64.22188 37.690624 63.628124 37.690624Q62.675 37.690624 62.14375 37.39375Q61.628124 37.08125 61.409374 36.596874Q61.190624 36.096874 61.190624 34.51875L61.190624 28.55L59.909374 28.55L59.909374 27.175L61.190624 27.175L61.190624 24.6125L62.940624 23.55L62.940624 27.175L64.70625 27.175L64.70625 28.55L62.940624 28.55L62.940624 34.6125Q62.940624 35.3625 63.034374 35.58125Q63.128124 35.784374 63.33125 35.925Q63.55 36.05 63.940624 36.05Q64.22188 36.05 64.70625 35.971874ZM73.97188 34.20625L75.78438 34.440624Q75.3625 36.01875 74.19063 36.909374Q73.03438 37.784374 71.22188 37.784374Q68.95625 37.784374 67.6125 36.39375Q66.28438 34.9875 66.28438 32.45625Q66.28438 29.83125 67.62813 28.39375Q68.97188 26.940624 71.12813 26.940624Q73.20625 26.940624 74.51875 28.3625Q75.84688 29.76875 75.84688 32.346874Q75.84688 32.503124 75.83125 32.815624L68.09688 32.815624Q68.19063 34.51875 69.06563 35.425Q69.94063 36.33125 71.2375 36.33125Q72.20625 36.33125 72.87813 35.83125Q73.56563 35.315624 73.97188 34.20625ZM68.19063 31.3625L73.9875 31.3625Q73.87813 30.065624 73.33125 29.409374Q72.4875 28.39375 71.14375 28.39375Q69.94063 28.39375 69.1125 29.20625Q68.28438 30.003124 68.19063 31.3625ZM87.22188 41.753124Q85.76875 39.925 84.76875 37.471874Q83.76875 35.003124 83.76875 32.3625Q83.76875 30.034374 84.51875 27.909374Q85.39375 25.440624 87.22188 22.9875L88.4875 22.9875Q87.3 25.01875 86.925 25.89375Q86.33125 27.2375 85.9875 28.70625Q85.56563 30.534374 85.56563 32.378124Q85.56563 37.065624 88.4875 41.753124L87.22188 41.753124ZM91.15938 37.55L91.15938 23.2375L93.05 23.2375L93.05 29.1125L100.4875 29.1125L100.4875 23.2375L102.37813 23.2375L102.37813 37.55L100.4875 37.55L100.4875 30.8L93.05 30.8L93.05 37.55L91.15938 37.55ZM103.87813 25.253124L103.87813 23.2375L105.64375 23.2375L105.64375 25.253124L103.87813 25.253124ZM103.87813 37.55L103.87813 27.175L105.64375 27.175L105.64375 37.55L103.87813 37.55ZM107.55 38.409374L109.25313 38.659374Q109.3625 39.45625 109.84688 39.815624Q110.50313 40.3 111.64375 40.3Q112.8625 40.3 113.51875 39.815624Q114.19063 39.33125 114.425 38.45625Q114.56563 37.909374 114.55 36.190624Q113.39375 37.55 111.675 37.55Q109.53438 37.55 108.3625 36.003124Q107.19063 34.45625 107.19063 32.3Q107.19063 30.815624 107.72188 29.565624Q108.26875 28.315624 109.28438 27.628124Q110.31563 26.940624 111.69063 26.940624Q113.51875 26.940624 114.72188 28.425L114.72188 27.175L116.33125 27.175L116.33125 36.14375Q116.33125 38.565624 115.83125 39.565624Q115.34688 40.58125 114.26875 41.159374Q113.20625 41.753124 111.64375 41.753124Q109.8 41.753124 108.64375 40.925Q107.50313 40.096874 107.55 38.409374ZM109.00313 32.175Q109.00313 34.221874 109.81563 35.159374Q110.62813 36.096874 111.84688 36.096874Q113.05 36.096874 113.8625 35.159374Q114.69063 34.221874 114.69063 32.2375Q114.69063 30.33125 113.84688 29.3625Q113.00313 28.39375 111.81563 28.39375Q110.64375 28.39375 109.81563 29.346874Q109.00313 30.3 109.00313 32.175ZM118.8625 37.55L118.8625 23.2375L120.62813 23.2375L120.62813 28.3625Q121.8625 26.940624 123.7375 26.940624Q124.87813 26.940624 125.72188 27.39375Q126.58125 27.846874 126.94063 28.659374Q127.31563 29.45625 127.31563 30.971874L127.31563 37.55L125.56563 37.55L125.56563 30.971874Q125.56563 29.659374 124.9875 29.065624Q124.40938 28.45625 123.37813 28.45625Q122.59688 28.45625 121.89375 28.8625Q121.20625 29.26875 120.90938 29.971874Q120.62813 30.659374 120.62813 31.878124L120.62813 37.55L118.8625 37.55ZM135.97188 34.20625L137.78438 34.440624Q137.3625 36.01875 136.19063 36.909374Q135.03438 37.784374 133.22188 37.784374Q130.95625 37.784374 129.6125 36.39375Q128.28438 34.9875 128.28438 32.45625Q128.28438 29.83125 129.62813 28.39375Q130.97188 26.940624 133.12813 26.940624Q135.20625 26.940624 136.51875 28.3625Q137.84688 29.76875 137.84688 32.346874Q137.84688 32.503124 137.83125 32.815624L130.09688 32.815624Q130.19063 34.51875 131.06563 35.425Q131.94063 36.33125 133.2375 36.33125Q134.20625 36.33125 134.87813 35.83125Q135.56563 35.315624 135.97188 34.20625ZM130.19063 31.3625L135.9875 31.3625Q135.87813 30.065624 135.33125 29.409374Q134.4875 28.39375 133.14375 28.39375Q131.94063 28.39375 131.1125 29.20625Q130.28438 30.003124 130.19063 31.3625ZM139.84688 37.55L139.84688 27.175L141.425 27.175L141.425 28.753124Q142.03438 27.64375 142.55 27.3Q143.06563 26.940624 143.675 26.940624Q144.56563 26.940624 145.4875 27.503124L144.87813 29.14375Q144.2375 28.753124 143.59688 28.753124Q143.01875 28.753124 142.55 29.1125Q142.09688 29.45625 141.89375 30.065624Q141.6125 31.003124 141.6125 32.1125L141.6125 37.55L139.84688 37.55ZM153.40938 37.55L153.40938 23.2375L155.31563 23.2375L155.31563 37.55L153.40938 37.55ZM158.15938 34.45625L159.90938 34.175Q160.05 35.221874 160.72188 35.784374Q161.39375 36.33125 162.59688 36.33125Q163.8 36.33125 164.37813 35.846874Q164.97188 35.346874 164.97188 34.690624Q164.97188 34.096874 164.45625 33.753124Q164.09688 33.51875 162.65938 33.159374Q160.72188 32.659374 159.97188 32.315624Q159.2375 31.95625 158.84688 31.33125Q158.45625 30.690624 158.45625 29.925Q158.45625 29.2375 158.76875 28.64375Q159.09688 28.05 159.64375 27.659374Q160.05 27.3625 160.75313 27.159374Q161.47188 26.940624 162.28438 26.940624Q163.50313 26.940624 164.425 27.3Q165.34688 27.64375 165.78438 28.253124Q166.22188 28.846874 166.39375 29.846874L164.675 30.08125Q164.55 29.284374 163.9875 28.846874Q163.425 28.39375 162.40938 28.39375Q161.19063 28.39375 160.675 28.8Q160.15938 29.190624 160.15938 29.721874Q160.15938 30.065624 160.37813 30.346874Q160.58125 30.628124 161.05 30.815624Q161.31563 30.909374 162.59688 31.253124Q164.47188 31.753124 165.20625 32.08125Q165.94063 32.39375 166.3625 33.003124Q166.78438 33.596874 166.78438 34.503124Q166.78438 35.378124 166.26875 36.159374Q165.75313 36.940624 164.78438 37.3625Q163.81563 37.784374 162.59688 37.784374Q160.58125 37.784374 159.51875 36.940624Q158.45625 36.096874 158.15938 34.45625ZM175.01875 37.55L175.01875 23.2375L180.39375 23.2375Q182.03438 23.2375 183.01875 23.675Q184.00313 24.096874 184.56563 25.003124Q185.12813 25.909374 185.12813 26.89375Q185.12813 27.815624 184.62813 28.628124Q184.14375 29.440624 183.12813 29.925Q184.425 30.315624 185.12813 31.2375Q185.83125 32.14375 185.83125 33.39375Q185.83125 34.409374 185.39375 35.26875Q184.97188 36.128124 184.34688 36.596874Q183.72188 37.065624 182.78438 37.315624Q181.84688 37.55 180.47188 37.55L175.01875 37.55ZM176.90938 29.253124L180.00313 29.253124Q181.26875 29.253124 181.81563 29.08125Q182.53438 28.8625 182.89375 28.378124Q183.26875 27.878124 183.26875 27.1125Q183.26875 26.409374 182.925 25.8625Q182.58125 25.315624 181.94063 25.128124Q181.31563 24.925 179.76875 24.925L176.90938 24.925L176.90938 29.253124ZM176.90938 35.8625L180.47188 35.8625Q181.39375 35.8625 181.76875 35.784374Q182.425 35.675 182.8625 35.409374Q183.3 35.128124 183.58125 34.6125Q183.8625 34.08125 183.8625 33.39375Q183.8625 32.596874 183.45625 32.003124Q183.05 31.409374 182.31563 31.175Q181.58125 30.940624 180.22188 30.940624L176.90938 30.940624L176.90938 35.8625ZM194.97188 34.20625L196.78438 34.440624Q196.3625 36.01875 195.19063 36.909374Q194.03438 37.784374 192.22188 37.784374Q189.95625 37.784374 188.6125 36.39375Q187.28438 34.9875 187.28438 32.45625Q187.28438 29.83125 188.62813 28.39375Q189.97188 26.940624 192.12813 26.940624Q194.20625 26.940624 195.51875 28.3625Q196.84688 29.76875 196.84688 32.346874Q196.84688 32.503124 196.83125 32.815624L189.09688 32.815624Q189.19063 34.51875 190.06563 35.425Q190.94063 36.33125 192.2375 36.33125Q193.20625 36.33125 193.87813 35.83125Q194.56563 35.315624 194.97188 34.20625ZM189.19063 31.3625L194.9875 31.3625Q194.87813 30.065624 194.33125 29.409374Q193.4875 28.39375 192.14375 28.39375Q190.94063 28.39375 190.1125 29.20625Q189.28438 30.003124 189.19063 31.3625ZM202.70625 35.971874L202.95625 37.534374Q202.22188 37.690624 201.62813 37.690624Q200.675 37.690624 200.14375 37.39375Q199.62813 37.08125 199.40938 36.596874Q199.19063 36.096874 199.19063 34.51875L199.19063 28.55L197.90938 28.55L197.90938 27.175L199.19063 27.175L199.19063 24.6125L200.94063 23.55L200.94063 27.175L202.70625 27.175L202.70625 28.55L200.94063 28.55L200.94063 34.6125Q200.94063 35.3625 201.03438 35.58125Q201.12813 35.784374 201.33125 35.925Q201.55 36.05 201.94063 36.05Q202.22188 36.05 202.70625 35.971874ZM208.70625 35.971874L208.95625 37.534374Q208.22188 37.690624 207.62813 37.690624Q206.675 37.690624 206.14375 37.39375Q205.62813 37.08125 205.40938 36.596874Q205.19063 36.096874 205.19063 34.51875L205.19063 28.55L203.90938 28.55L203.90938 27.175L205.19063 27.175L205.19063 24.6125L206.94063 23.55L206.94063 27.175L208.70625 27.175L208.70625 28.55L206.94063 28.55L206.94063 34.6125Q206.94063 35.3625 207.03438 35.58125Q207.12813 35.784374 207.33125 35.925Q207.55 36.05 207.94063 36.05Q208.22188 36.05 208.70625 35.971874ZM217.97188 34.20625L219.78438 34.440624Q219.3625 36.01875 218.19063 36.909374Q217.03438 37.784374 215.22188 37.784374Q212.95625 37.784374 211.6125 36.39375Q210.28438 34.9875 210.28438 32.45625Q210.28438 29.83125 211.62813 28.39375Q212.97188 26.940624 215.12813 26.940624Q217.20625 26.940624 218.51875 28.3625Q219.84688 29.76875 219.84688 32.346874Q219.84688 32.503124 219.83125 32.815624L212.09688 32.815624Q212.19063 34.51875 213.06563 35.425Q213.94063 36.33125 215.2375 36.33125Q216.20625 36.33125 216.87813 35.83125Q217.56563 35.315624 217.97188 34.20625ZM212.19063 31.3625L217.9875 31.3625Q217.87813 30.065624 217.33125 29.409374Q216.4875 28.39375 215.14375 28.39375Q213.94063 28.39375 213.1125 29.20625Q212.28438 30.003124 212.19063 31.3625ZM221.84688 37.55L221.84688 27.175L223.425 27.175L223.425 28.753124Q224.03438 27.64375 224.55 27.3Q225.06563 26.940624 225.675 26.940624Q226.56563 26.940624 227.4875 27.503124L226.87813 29.14375Q226.2375 28.753124 225.59688 28.753124Q225.01875 28.753124 224.55 29.1125Q224.09688 29.45625 223.89375 30.065624Q223.6125 31.003124 223.6125 32.1125L223.6125 37.55L221.84688 37.55ZM230.01875 41.753124L228.76875 41.753124Q231.675 37.065624 231.675 32.378124Q231.675 30.534374 231.26875 28.7375Q230.925 27.26875 230.33125 25.925Q229.95625 25.034374 228.76875 22.9875L230.01875 22.9875Q231.8625 25.440624 232.7375 27.909374Q233.4875 30.034374 233.4875 32.3625Q233.4875 35.003124 232.47188 37.471874Q231.47188 39.925 230.01875 41.753124Z" fill-rule="nonzero"/></svg>